<svg xmlns="http://www.w3.org/2000/svg" width="250" height="250.453" viewBox="0 0 250 250.453"><g data-name="32-bultex"><path data-name="Rectangle 265" fill="none" d="M0 .329h250v250H0z"/><g data-name="Groupe 298"><g data-name="Groupe 293" transform="translate(-.092 .77)"><rect data-name="Rectangle 266" width="197.712" height="197.712" rx="2.149" transform="translate(7.538 -.77)" fill="#001f45"/><path data-name="Tracé 397" d="M71.507 116.483a13.209 13.209 0 01-9.033-3.338 12.239 12.239 0 01-3.819-9.232V83.9a3.647 3.647 0 017.29 0v20.009c0 5.1 4.25 5.5 5.562 5.5s5.563-.4 5.563-5.5V83.555a3.646 3.646 0 017.289 0v20.358a12.236 12.236 0 01-3.819 9.232 13.208 13.208 0 01-9.033 3.338" fill="#fff"/><path data-name="Tracé 398" d="M105.512 116.4H93.391a3.639 3.639 0 01-3.637-3.653V83.692a3.645 3.645 0 117.29 0v25.421h8.468a3.645 3.645 0 110 7.29" fill="#fff"/><path data-name="Tracé 399" d="M177.214 98.266l8.419-12.371a3.728 3.728 0 00-.93-5.147 3.6 3.6 0 00-5.064.929l-6.858 10.08-6.858-10.08a3.605 3.605 0 00-5.064-.929 3.728 3.728 0 00-.93 5.147l8.418 12.371-8.418 12.37a3.728 3.728 0 00.93 5.147 3.53 3.53 0 002.059.665 3.633 3.633 0 003.005-1.594l6.858-10.079 6.858 10.079a3.633 3.633 0 003 1.594 3.53 3.53 0 002.059-.665 3.728 3.728 0 00.93-5.147z" fill="#fff"/><path data-name="Tracé 400" d="M150.117 102.105a3.878 3.878 0 10-3.852-3.869 3.87 3.87 0 003.852 3.869" fill="#fff"/><path data-name="Tracé 401" d="M150.947 109.155h-8.568V87.3h8.568a3.653 3.653 0 000-7.306h-12.138a3.671 3.671 0 00-3.52 2.69 2.4 2.4 0 00-.2.98v29.058a3.77 3.77 0 003.719 3.719h12.138a3.645 3.645 0 100-7.289" fill="#fff"/><path data-name="Tracé 402" d="M126.758 80.02H110.8a3.645 3.645 0 100 7.29h4.333v25.505a3.645 3.645 0 107.29 0V87.31h4.334a3.645 3.645 0 100-7.29" fill="#fff"/><path data-name="Tracé 403" d="M42.487 109.245H33.62v-22h8.867a3.766 3.766 0 110 7.522 3.6 3.6 0 00-3.653 3.554v.049a3.612 3.612 0 003.653 3.554 3.672 3.672 0 110 7.323M53.729 91a11.081 11.081 0 00-11.242-10.88l-12.1.017h-.033a2.624 2.624 0 00-.365-.017 3.6 3.6 0 00-3.653 3.553V112.8a3.6 3.6 0 003.653 3.57h12.5a11.031 11.031 0 0011.242-10.776 10.517 10.517 0 00-2.939-7.273A10.609 10.609 0 0053.729 91" fill="#fff"/></g><g data-name="Groupe 294"><path data-name="Tracé 404" d="M131.008 194.654a55.684 55.684 0 1155.675 55.675 55.671 55.671 0 01-55.675-55.675" fill="#fff"/><path data-name="Tracé 405" d="M186.678 250.454a55.541 55.541 0 01-31.2-9.529 55.955 55.955 0 01-20.215-24.55 55.734 55.734 0 015.144-52.921 55.953 55.953 0 0124.549-20.216 55.75 55.75 0 0152.926 5.144 55.967 55.967 0 0120.224 24.55 55.711 55.711 0 01-5.147 52.921 55.983 55.983 0 01-24.557 20.217 55.477 55.477 0 01-21.724 4.384zm0-111.351a55.292 55.292 0 00-31.06 9.486 55.706 55.706 0 00-20.125 24.441 55.484 55.484 0 005.121 52.684 55.705 55.705 0 0024.44 20.126 55.5 55.5 0 0052.69-5.121 55.718 55.718 0 0020.134-24.44 55.462 55.462 0 00-5.124-52.684 55.733 55.733 0 00-24.446-20.125 55.229 55.229 0 00-21.63-4.367z" fill="#001f45"/><path data-name="Tracé 406" d="M155.23 179.651l3.479.009a2.15 2.15 0 011.8.981l13.248 20.475h.083l.06-19.238a2.149 2.149 0 012.156-2.142h.833a2.149 2.149 0 012.141 2.156l-.084 24.5a2.15 2.15 0 01-2.155 2.141l-3.189-.008a2.152 2.152 0 01-1.8-.991l-13.538-21.164h-.083l-.075 19.953a2.148 2.148 0 01-2.155 2.141h-.818a2.149 2.149 0 01-2.142-2.156l.085-24.513a2.15 2.15 0 012.154-2.144z" fill="#001f45"/><path data-name="Tracé 407" d="M190.359 189.137a3.338 3.338 0 10-3.32-3.354 3.37 3.37 0 003.32 3.354m.034-9.846a6.509 6.509 0 11-6.526 6.492 6.542 6.542 0 016.526-6.492" fill="#001f45"/><path data-name="Tracé 408" d="M202.535 188.719a2.149 2.149 0 003.1.21l.166-.152a2.149 2.149 0 013.6 1.6l-.07 16.133a2.149 2.149 0 002.149 2.158h.6a2.149 2.149 0 002.149-2.141l.085-24.5a2.15 2.15 0 00-2.141-2.156h-1.509a2.148 2.148 0 00-1.375.491l-6.47 5.338a2.148 2.148 0 00-.284 3.019z" fill="#001f45"/><path data-name="Tracé 409" d="M158.708 154.811l2.408 9.033-.017.017-8.236-4.4-1.511 1.212 6.808 8.551 1.013-.814-5.712-7.173.017-.017 8.784 4.732.614-.482-2.64-9.631.033-.017 5.7 7.173 1.029-.8-6.808-8.551z" fill="#001f45"/><path data-name="Tracé 410" d="M170.343 150.899h.033l3.869 4.3-4.2 1.528zm-1.1-1.379l-.814 11.906 1.4-.482.133-2.922 5.147-1.86 1.959 2.159 1.412-.515-8.087-8.7z" fill="#001f45"/><path data-name="Tracé 411" d="M181.076 151.49l1.145-.083c1.429-.117 3.3-.266 3.155-2.059-.116-1.578-1.511-1.694-2.773-1.594l-1.809.133zm-1.677-4.7l2.789-.216c2.109-.166 4.367-.033 4.583 2.656a2.868 2.868 0 01-2.507 3.089l3.487 4.782-1.578.116-3.354-4.649-1.66.116.4 4.9-1.295.1z" fill="#001f45"/><path data-name="Tracé 412" d="M195.035 156.984a4.4 4.4 0 001.843-8.6 4.4 4.4 0 00-1.843 8.6m5.945 2.507l-6.21-1.328a5.6 5.6 0 116.675-4.3 4.837 4.837 0 01-3.537 3.807v.033l3.3.714z" fill="#001f45"/><path data-name="Tracé 413" d="M211.68 160.918c-1.2 2.059-3.188 3.3-5.795 1.793s-2.541-3.852-1.345-5.911l3.368-5.862 1.129.648-3.288 5.7c-.88 1.528-1.146 3.3.731 4.384 1.893 1.1 3.287-.033 4.167-1.561l3.288-5.695 1.113.647z" fill="#001f45"/><path data-name="Tracé 414" d="M211.868 166.437l5.048 5.064.847-.847-4.135-4.151 2.773-2.756 3.67 3.686.847-.847-3.67-3.686 2.424-2.408 3.935 3.935.863-.847-4.865-4.865z" fill="#001f45"/><path data-name="Tracé 415" d="M162.121 232.986a45.64 45.64 0 01-15.771-16.042 44.314 44.314 0 01.953-46.032l.812.518a43.3 43.3 0 00-.932 45.031 44.675 44.675 0 0015.438 15.7z" fill="#001f45"/><path data-name="Tracé 416" d="M211.93 232.986l-.5-.823a44.679 44.679 0 0015.438-15.7 43.35 43.35 0 00-.932-45.031l.812-.518a44.259 44.259 0 01.953 46.032 45.644 45.644 0 01-15.771 16.04z" fill="#cb1d25"/></g><g data-name="Groupe 297"><g data-name="Groupe 295" fill="#001f45"><path data-name="Tracé 417" d="M164.562 223.556a1.5 1.5 0 10-1.461-1.511 1.453 1.453 0 001.461 1.511m1.494.249h-.016a1.963 1.963 0 01-1.727.88 2.43 2.43 0 01-2.458-2.64 2.457 2.457 0 012.424-2.624 2.089 2.089 0 011.694.764h.033v-3.5h1.246l-.017 7.871h-1.179z"/><path data-name="Tracé 418" d="M172.241 221.57a1.164 1.164 0 00-1.278-1.2 1.24 1.24 0 00-1.295 1.178zm-2.573.93a1.3 1.3 0 001.345 1.2 1.654 1.654 0 001.345-.68l.9.68a2.624 2.624 0 01-2.125 1 2.625 2.625 0 11.017-5.247c1.394 0 2.341.979 2.341 2.723v.332z"/><path data-name="Tracé 419" d="M177.322 220.957a1.128 1.128 0 00-.979-.515c-.332 0-.731.15-.731.532 0 .9 2.707.166 2.69 2.125 0 1.179-1.129 1.594-2.158 1.594a2.471 2.471 0 01-1.943-.764l.83-.78a1.575 1.575 0 001.2.614c.365 0 .83-.182.83-.581 0-1.029-2.707-.216-2.69-2.125 0-1.113 1-1.611 2.009-1.611a2.165 2.165 0 011.777.764z"/><path data-name="Tracé 420" d="M182.819 220.645h-1.03v-1.063h1.03v-.712c0-1.378.315-2.291 1.876-2.291a4.313 4.313 0 01.8.083l-.1 1.062a1.784 1.784 0 00-.514-.083c-.7 0-.8.482-.8 1.047l-.017.9h1.162v1.063h-1.162v3.935h-1.245z"/><path data-name="Tracé 421" d="M188.514 223.6a1.5 1.5 0 10-1.478-1.511 1.452 1.452 0 001.478 1.511m0-4.134a2.625 2.625 0 11-2.723 2.623 2.6 2.6 0 012.723-2.623"/><path data-name="Tracé 422" d="M191.727 219.597h1.381l1.395 3.47h.017l1.262-3.47 1.295.017-2.375 6.06a1.808 1.808 0 01-1.909 1.428 3.156 3.156 0 01-.963-.132l.166-1.113a2.031 2.031 0 00.631.116c.614 0 .78-.216 1-.73l.232-.6z"/><path data-name="Tracé 423" d="M201.386 221.62a1.166 1.166 0 00-1.279-1.2 1.242 1.242 0 00-1.295 1.179zm-2.574.929a1.3 1.3 0 001.345 1.2 1.653 1.653 0 001.345-.681l.9.681a2.625 2.625 0 01-2.126 1 2.625 2.625 0 11.017-5.247c1.395 0 2.341.98 2.341 2.723v.332z"/><path data-name="Tracé 424" d="M203.802 219.619h1.245v.8h.017a1.6 1.6 0 011.494-.914 2.111 2.111 0 01.449.067v1.212a2.772 2.772 0 00-.615-.1 1.261 1.261 0 00-1.345 1.262v2.674h-1.262z"/><path data-name="Tracé 425" d="M210.525 221.017a1.128 1.128 0 00-.98-.515c-.332 0-.73.15-.73.531 0 .9 2.706.166 2.69 2.126 0 1.179-1.129 1.594-2.159 1.594a2.471 2.471 0 01-1.943-.764l.831-.78a1.577 1.577 0 001.195.614c.366 0 .83-.183.83-.581 0-1.03-2.706-.216-2.689-2.126 0-1.112 1-1.61 2.009-1.61a2.161 2.161 0 011.776.764z"/><path data-name="Tracé 426" d="M169.085 230.5h-1.03v-1.063h1.03v-.714c0-1.378.315-2.291 1.876-2.291a4.305 4.305 0 01.8.083l-.1 1.062a1.751 1.751 0 00-.515-.083c-.7 0-.8.482-.8 1.03l-.017.913h1.163v1.063h-1.163v3.935h-1.245z"/><path data-name="Tracé 427" d="M172.308 229.442h1.245v.8h.033a1.562 1.562 0 011.478-.913 2.1 2.1 0 01.448.066v1.212a2.83 2.83 0 00-.614-.1 1.261 1.261 0 00-1.343 1.263v2.673h-1.262z"/><path data-name="Tracé 428" d="M179.418 232.21h-.266c-.681 0-1.876.05-1.876.78 0 .449.465.648.88.648.847 0 1.262-.448 1.262-1.146zm.066 1.561h-.033a1.783 1.783 0 01-1.61.813 1.616 1.616 0 01-1.81-1.511c0-1.627 1.893-1.726 3.138-1.726h.315v-.133c0-.615-.481-.947-1.145-.947a1.948 1.948 0 00-1.329.515l-.664-.648a2.984 2.984 0 012.142-.813 1.917 1.917 0 012.126 2.258v2.891l-1.13-.016z"/><path data-name="Tracé 429" d="M181.963 229.459h1.2l-.017.8h.034a1.561 1.561 0 011.527-.914 1.746 1.746 0 011.827 1.976l-.026 3.149h-1.24v-2.54c0-.548-.033-1.461-.913-1.461a1.111 1.111 0 00-1.146 1.261v2.724h-1.262z"/><path data-name="Tracé 430" d="M191.367 230.976a1.408 1.408 0 00-.947-.5 1.503 1.503 0 000 3.006 1.171 1.171 0 00.963-.482l.831.913a2.8 2.8 0 01-1.777.681l-.365.5c.614.017 1.261.067 1.261.88 0 .764-.813 1.013-1.444 1a2.353 2.353 0 01-1.113-.283l.233-.481a1.9 1.9 0 00.863.216c.216 0 .581-.1.581-.449 0-.265-.3-.365-.514-.365a1.076 1.076 0 00-.4.066l-.282-.265.6-.864a2.543 2.543 0 01-2.159-2.573 2.591 2.591 0 012.723-2.624 2.447 2.447 0 011.81.764z"/><path data-name="Tracé 431" d="M196.029 232.24h-.265c-.681 0-1.877.05-1.877.78 0 .449.465.648.88.648.847 0 1.262-.448 1.262-1.146zm.067 1.561h-.034a1.781 1.781 0 01-1.61.813 1.625 1.625 0 01-1.81-1.511c0-1.627 1.893-1.727 3.138-1.727h.316v-.132c0-.615-.482-.947-1.146-.947a1.94 1.94 0 00-1.328.515l-.665-.648a2.984 2.984 0 012.142-.813 1.917 1.917 0 012.126 2.258v2.889l-1.129-.016z"/><path data-name="Tracé 432" d="M198.601 229.48l1.246.017-.017 5h-1.245zm.615-2.441a.749.749 0 11-.8.748.771.771 0 01.8-.748"/><path data-name="Tracé 433" d="M203.953 230.885a1.128 1.128 0 00-.98-.515c-.332 0-.73.15-.73.532 0 .9 2.706.166 2.69 2.125 0 1.179-1.129 1.594-2.159 1.594a2.471 2.471 0 01-1.943-.764l.831-.78a1.577 1.577 0 001.2.614c.365 0 .83-.182.83-.581 0-1.03-2.69-.216-2.69-2.125 0-1.113 1-1.611 2.01-1.611a2.161 2.161 0 011.776.764z"/></g><g data-name="Groupe 296"><path data-name="Tracé 434" d="M206.489 227.458l.846-.276.162.5-.851.276.538.733-.432.313-.539-.739-.526.72-.42-.32.539-.707-.858-.295.162-.5.853.295v-.89h.526z" fill="#001f45"/></g></g></g></g></svg>