<svg xmlns="http://www.w3.org/2000/svg" width="639" height="157"><g fill="#ff8700"><path d="M256.968 45.76c-14.767 0-24.896 4.76-32.34 15.352-5.834-9.275-17.72-15.352-30.656-15.352-11.495 0-19.11 3.1-26.726 11.13v-.537a11 11 0 0 0-3.026-7.59c-1.953-2.002-4.589-3.125-7.347-3.125-2.733 0-5.37 1.123-7.322 3.124a10.915 10.915 0 0 0-3.051 7.59v88.402c.024 3.026 1.196 5.93 3.27 8.079 2.075 2.147 4.882 3.343 7.81 3.343s5.761-1.196 7.836-3.343a11.64 11.64 0 0 0 3.246-8.08V94.988c0-19.111 7.127-27.995 22.43-27.995 13.62 0 20.527 8.737 20.527 25.969v51.793a11.64 11.64 0 0 0 3.246 8.079c2.075 2.147 4.906 3.343 7.835 3.343s5.736-1.196 7.81-3.343c2.075-2.148 3.246-5.053 3.27-8.08V94.793c0-19.502 6.444-27.874 21.552-27.874 14.205 0 21.406 9.47 21.406 28.167v49.595c0 3.051 1.171 5.956 3.246 8.104 2.075 2.123 4.881 3.344 7.81 3.344s5.76-1.22 7.835-3.369c2.075-2.123 3.222-5.027 3.222-8.079V90.325c.073-27.897-15.597-44.568-41.883-44.568zM429.258 45.76c-14.766 0-24.895 4.76-32.34 15.352-5.833-9.275-17.72-15.352-30.655-15.352-11.496 0-19.087 3.1-26.702 11.13v-.537c0-2.856-1.098-5.565-3.05-7.59-1.953-2.002-4.59-3.125-7.323-3.125-2.758 0-5.394 1.123-7.347 3.124a11 11 0 0 0-3.026 7.59v88.402a11.64 11.64 0 0 0 3.246 8.079 10.86 10.86 0 0 0 7.835 3.343c2.929 0 5.735-1.196 7.81-3.343a11.64 11.64 0 0 0 3.246-8.08V94.988c0-19.111 7.151-27.995 22.48-27.995 13.595 0 20.477 8.737 20.477 25.969v51.793c.025 3.026 1.196 5.93 3.27 8.079s4.882 3.343 7.811 3.343 5.76-1.196 7.835-3.343a11.64 11.64 0 0 0 3.246-8.08V94.793c0-19.502 6.443-27.874 21.576-27.874 14.18 0 21.381 9.47 21.381 28.167v49.595c0 1.538.269 3.027.83 4.443a11.505 11.505 0 0 0 2.44 3.734c1.05 1.074 2.27 1.928 3.638 2.49 1.366.56 2.83.854 4.295.83 2.93 0 5.736-1.197 7.81-3.344 2.075-2.148 3.247-5.053 3.271-8.08V90.398c-.122-27.97-15.791-44.64-42.054-44.64zM571.82 56.548v3.173c-7.762-9.103-18.916-13.863-32.56-13.863-30.387 0-53.305 24.53-53.305 57.088 0 29.997 23.724 53.575 53.916 53.575 13.204 0 24.53-5.272 31.852-14.67v3.418c0 1.513.292 3.002.854 4.393a11.668 11.668 0 0 0 2.392 3.71 11.061 11.061 0 0 0 3.612 2.465 10.56 10.56 0 0 0 4.223.879c2.928 0 5.76-1.22 7.834-3.344 2.075-2.148 3.222-5.077 3.222-8.104v-88.67c0-2.83-1.098-5.564-3.027-7.565-1.952-2.002-4.588-3.149-7.346-3.149h-1.416a10.28 10.28 0 0 0-7.25 3.173c-1.903 1.977-2.977 4.686-3.001 7.493zm.341 44.837c.049 8.933-3.344 17.5-9.421 23.846s-14.327 9.959-22.968 10.007c-17.182 0-31.68-15.499-31.68-33.853 0-18.965 14.205-34.293 31.68-34.293 18.477-.097 32.462 14.694 32.462 34.293zM116.162 119.324c-3.759-.537-6.639 1.537-10.666 4.271-7.908 6.248-17.524 9.739-27.482 9.983-13.132.464-25.945-4.271-35.83-13.205-8.91-8.2-14.962-19.208-17.208-31.338-4.027-22.968 5.712-51.037 35.098-61.971 5.785-1.977 11.838-2.88 17.915-2.636 11.106.488 21.748 4.686 30.315 11.96 2.196 1.83 4.979 2.709 7.786 2.416a10.576 10.576 0 0 0 7.2-3.88 10.846 10.846 0 0 0 2.416-5.42c.293-2 .049-4.026-.757-5.881-5.272-12.448-31.534-20.65-40.614-21.674a64.222 64.222 0 0 0-9.177-.66C57.51 1.387 40.499 8.15 27.32 20.303 12.553 33.776 3.45 52.667 1.936 72.95c-1.513 20.307 4.686 40.394 17.256 56.064 11.032 14.156 26.726 23.626 44.08 26.604 3.93.684 7.932 1.05 11.935 1.05 17.159.024 33.78-6.297 46.838-17.818a11.389 11.389 0 0 0 3.32-5.394 11.536 11.536 0 0 0-.05-6.37 11.298 11.298 0 0 0-3.392-5.297 10.566 10.566 0 0 0-5.662-2.562z"/><path d="M107.346 64.626c-1.44.269-2.783.854-4.003 1.684-1.22.83-2.27 1.88-3.075 3.149-1.709 2.611-4.003 4.784-6.712 6.273s-5.736 2.27-8.787 2.27c-3.075 0-6.077-.782-8.786-2.27s-5.003-3.662-6.712-6.273c-.83-1.245-1.855-2.319-3.075-3.149a10.659 10.659 0 0 0-4.003-1.66 9.988 9.988 0 0 0-2.075-.22 10.72 10.72 0 0 0-5.687 1.66 11.185 11.185 0 0 0-4.076 4.443 11.929 11.929 0 0 0-1.269 5.955 11.702 11.702 0 0 0 1.88 5.81c3.734 5.71 8.786 10.397 14.693 13.619a39.637 39.637 0 0 0 38.295 0c5.907-3.222 10.96-7.908 14.694-13.62 1.22-1.88 1.88-4.1 1.88-6.346a11.53 11.53 0 0 0-1.831-6.37c-1.196-1.88-2.905-3.368-4.93-4.247a10.763 10.763 0 0 0-6.37-.707zM629.741 138.462c0-2.147-1.489-4.295-5.15-4.295h-5.003v14.57h2.294v-5.833h2.538l3.369 5.834h2.66l-3.734-6.15a3.904 3.904 0 0 0 2.22-1.514c.562-.732.83-1.66.806-2.612zm-7.859 2.466v-4.736h2.953c1.562 0 2.539.757 2.539 2.295 0 1.928-1.22 2.44-2.587 2.44z"/><path d="M624.08 127.747c-2.685 0-5.296.805-7.541 2.367-2.246 1.538-3.979 3.734-5.004 6.297a14.431 14.431 0 0 0-.757 8.128c.513 2.71 1.807 5.223 3.71 7.175a13.323 13.323 0 0 0 6.957 3.832c2.636.537 5.37.269 7.859-.805 2.49-1.05 4.613-2.856 6.102-5.174a14.435 14.435 0 0 0 2.27-7.81c0-3.71-1.44-7.274-3.979-9.91-2.563-2.636-6.004-4.1-9.617-4.1zm0 26.018a11.32 11.32 0 0 1-6.443-2.026c-1.904-1.318-3.393-3.197-4.271-5.394s-1.123-4.588-.66-6.932a12.048 12.048 0 0 1 3.174-6.15 11.525 11.525 0 0 1 5.955-3.271 11.215 11.215 0 0 1 6.688.683 11.63 11.63 0 0 1 5.223 4.418 12.352 12.352 0 0 1 1.952 6.663c0 3.198-1.22 6.249-3.392 8.494s-5.126 3.515-8.226 3.515z"/></g></svg>