<svg xmlns="http://www.w3.org/2000/svg" shape-rendering="geometricPrecision" text-rendering="geometricPrecision" image-rendering="optimizeQuality" fill-rule="evenodd" clip-rule="evenodd" viewBox="0 0 424 512.324"><path fill="#4D4D4D" fill-rule="nonzero" d="M212.001 0c58.438 0 111.355 23.698 149.653 61.996 38.298 38.298 61.996 91.215 61.996 149.653 0 58.438-23.698 111.355-61.996 149.653-38.298 38.298-91.215 61.996-149.653 61.996-58.432 0-111.355-23.698-149.653-61.996C24.05 323.004.352 270.081.352 211.649c0-58.438 23.698-111.355 61.996-149.653C100.646 23.698 153.563 0 212.001 0z"/><path fill="#fff" fill-rule="nonzero" d="M212.002 16.202c53.969 0 102.834 21.88 138.202 57.246 35.366 35.368 57.246 84.233 57.246 138.202 0 53.969-21.88 102.834-57.248 138.2-35.366 35.368-84.231 57.249-138.2 57.249-53.969 0-102.834-21.881-138.202-57.247-35.366-35.368-57.247-84.233-57.247-138.202 0-53.969 21.881-102.834 57.247-138.202 35.368-35.366 84.233-57.246 138.202-57.246z"/><path fill="#C1272D" fill-rule="nonzero" d="M276.739 378.484H147.265C80.453 352.539 33.087 287.629 33.087 211.65c0-98.814 80.101-178.915 178.915-178.915 98.812 0 178.915 80.101 178.915 178.915 0 75.979-47.366 140.889-114.178 166.834z"/><path fill="#006233" fill-rule="nonzero" d="M216.134 125.176l16.423 50.545h66.549l-53.84 39.117 20.558 63.272-53.822-39.104-53.822 39.104 20.558-63.272-53.84-39.117h66.548l20.556-63.266 4.132 12.721zm19.252 59.253l7.056 21.712 29.884-21.712h-36.94zm13.905 70.919l-11.418-35.138-18.473 13.421 29.891 21.717zm-14.244-43.835l-8.799-27.084h-28.493l-8.798 27.084 23.045 16.744 23.045-16.744zm-11.63-35.792l-11.415-35.136-11.418 35.136h22.833zm-18.813 57.91l-18.473-13.421-11.418 35.138 29.891-21.717zm-52.926-49.202l29.884 21.712 7.056-21.712h-36.94z"/><path fill="#4D4D4D" fill-rule="nonzero" d="M47.4 325.256h329.194c14.722 0 24.966 11.9 26.93 26.931L424 485.393c0 14.723-12.208 26.931-26.93 26.931H26.924C12.154 512.324 0 500.164 0 485.393l20.476-133.206c3.366-15.677 12.872-26.925 26.924-26.931z"/><path fill="#fff" d="M45.496 336.16h333.01c7.763 0 13.032 6.753 14.136 14.136l20.478 136.993c1.104 7.391-6.651 14.136-14.136 14.136H25.026c-7.484 0-15.286-6.441-14.135-14.136l20.47-136.993c1.15-7.695 6.385-14.136 14.135-14.136z"/><path fill="#333" fill-rule="nonzero" d="M128.699 400.619h-9.327v-38.38h11.418l6.217 20.506 6.216-20.506h11.42v38.38h-9.267v-24.39l-4.782 16.079h-7.173l-4.722-15.96v24.271zm50.273 0l-1.196-5.739h-9.206l-1.255 5.739h-10.283l9.863-38.38h12.734l9.865 38.38h-10.522zm-8.789-13.151h5.98l-2.929-13.81-3.051 13.81zm22.301-25.229h17.634c5.857 0 8.789 2.472 8.789 7.414v23.553c0 4.943-2.932 7.413-8.789 7.413h-17.634v-38.38zm15.959 30.188v-21.998c0-.876-.498-1.315-1.493-1.315h-4.005v24.629h4.005c.995 0 1.493-.437 1.493-1.316zm25.528.718h13.092v7.474H223.51v-38.38h23.016v7.473h-12.555v7.832h10.819v7.471h-10.819v8.13zm28.336-30.906h10.461v38.38h-10.461v-38.38zm32.759 0h9.565v38.38h-8.967l-8.547-20.146v20.146h-9.565v-38.38h8.967l8.547 20.506v-20.506z"/><path fill="#C1272D" fill-rule="nonzero" d="M72.494 475.353h-13.06v-53.744h15.989l8.706 28.714 8.706-28.714h15.989v53.744H95.849v-34.155l-6.697 22.517H79.106l-6.612-22.349v33.987zm55.082-53.744h12.389c8.205 0 12.306 3.461 12.306 10.38v32.984c0 6.919-4.101 10.38-12.306 10.38h-12.389c-8.204 0-12.306-3.461-12.306-10.38v-32.984c0-6.919 4.102-10.38 12.306-10.38zm10.046 41.438v-29.132c0-1.228-.698-1.843-2.094-1.843h-3.515c-1.396 0-2.094.615-2.094 1.843v29.132c0 1.227.698 1.842 2.094 1.842h3.515c1.396 0 2.094-.615 2.094-1.842zm35.744-6.78v19.086h-14.649v-53.744h24.863c8.203 0 12.306 3.461 12.306 10.38v13.897c0 5.301-2.402 8.567-7.2 9.795l9.878 19.672h-15.738l-8.538-19.086h-.922zm5.777-24.195h-5.777v14.231h5.777c1.396 0 2.091-.612 2.091-1.84v-10.548c0-1.228-.695-1.843-2.091-1.843zm34.658-10.463h12.389c8.205 0 12.306 3.461 12.306 10.38v32.984c0 6.919-4.101 10.38-12.306 10.38h-12.389c-8.203 0-12.306-3.461-12.306-10.38v-32.984c0-6.919 4.103-10.38 12.306-10.38zm10.045 41.438v-29.132c0-1.228-.697-1.843-2.094-1.843h-3.514c-1.396 0-2.094.615-2.094 1.843v29.132c0 1.227.698 1.842 2.094 1.842h3.514c1.397 0 2.094-.615 2.094-1.842zm57.093-21.346h-14.651v-8.624c0-1.227-.698-1.842-2.092-1.842h-2.931c-1.394 0-2.092.615-2.092 1.842v30.807c0 1.227.698 1.843 2.092 1.843h2.931c1.394 0 2.092-.616 2.092-1.843v-8.289h14.651v9.378c0 6.919-4.103 10.38-12.306 10.38h-11.805c-8.204 0-12.306-3.461-12.306-10.38v-32.984c0-6.919 4.102-10.38 12.306-10.38h11.805c8.203 0 12.306 3.461 12.306 10.38v9.712zm41.439 0h-14.652v-8.624c0-1.227-.698-1.842-2.092-1.842h-2.931c-1.394 0-2.092.615-2.092 1.842v30.807c0 1.227.698 1.843 2.092 1.843h2.931c1.394 0 2.092-.616 2.092-1.843v-8.289h14.652v9.378c0 6.919-4.103 10.38-12.306 10.38h-11.806c-8.203 0-12.306-3.461-12.306-10.38v-32.984c0-6.919 4.103-10.38 12.306-10.38h11.806c8.203 0 12.306 3.461 12.306 10.38v9.712zm17.494-20.092h12.389c8.206 0 12.306 3.461 12.306 10.38v32.984c0 6.919-4.1 10.38-12.306 10.38h-12.389c-8.203 0-12.306-3.461-12.306-10.38v-32.984c0-6.919 4.103-10.38 12.306-10.38zm10.046 41.438v-29.132c0-1.228-.698-1.843-2.094-1.843h-3.514c-1.397 0-2.095.615-2.095 1.843v29.132c0 1.227.698 1.842 2.095 1.842h3.514c1.396 0 2.094-.615 2.094-1.842z"/></svg>