<?xml version="1.0" encoding="UTF-8"?>
<!-- Created with Inkscape (http://www.inkscape.org/) -->
<svg width="321.14" height="126.66" version="1.1" viewBox="0 0 84.967 33.511" xmlns="http://www.w3.org/2000/svg" xmlns:cc="http://creativecommons.org/ns#" xmlns:dc="http://purl.org/dc/elements/1.1/" xmlns:rdf="http://www.w3.org/1999/02/22-rdf-syntax-ns#">
 <metadata>
  <rdf:RDF>
   <cc:Work rdf:about="">
    <dc:format>image/svg+xml</dc:format>
    <dc:type rdf:resource="http://purl.org/dc/dcmitype/StillImage"/>
    <dc:title/>
   </cc:Work>
  </rdf:RDF>
 </metadata>
 <g transform="translate(-92.756 -119.91)">
  <g transform="matrix(1.5484 0 0 -1.5484 393.6 384.08)">
   <path d="m-185.92 152.55c0.088 0.107 0.171 0.271 0.618 0.38 1e-3 0 15.195 5.161 35.408 4.129 0 0 1.148 0.042 0.836-0.46-0.182-0.294-0.523-0.313-1.171-0.347 0 0-0.22-0.033-1.08-0.024 0 0 2.067-0.803-6.093-0.635 0 0 0.721-0.736-2.28-0.524 0 0-8.368 0.381-25.282-2.685 0 0-1.329-0.287-0.956 0.166" fill="#034ea2" fill-rule="evenodd"/>
  </g>
  <g transform="matrix(1.5484 0 0 -1.5484 452.81 377.29)">
   <path d="m-185.92 152.55c0.618-0.038 1.313-0.046 2.275-0.139 0.501-0.049 1.273-0.049 1.382-0.374 0.1-0.298-0.277-0.604-0.949-0.734-0.341-0.066-0.556-0.122-0.863-0.111-0.364 0.012-1.142-0.016-1.165 0.404-0.017 0.262-0.525 0.26-0.865 0.273-0.68 0.027-0.61 0.219-0.462 0.451 0.088 0.142 0.274 0.233 0.647 0.23" fill="#034ea2" fill-rule="evenodd"/>
  </g>
  <g transform="matrix(1.5484 0 0 -1.5484 462.89 373.38)">
   <path d="m-185.92 152.55s2.366-1.95-0.57-1.852c0 0-0.57-0.042-0.92 1.133 0 0-1.009 2.304-0.935 3.175-0.1-0.111-0.658-0.784-0.978-1.528-0.185-0.431-0.26-0.581-0.525-0.992-0.145-0.206-0.284-0.392-0.414-0.512-1.296-1.201-1.422 0.334-1.422 0.334-0.268 1.308 0.404 3.407 0.404 3.407 0.488 1.45 1.204 0.853 1.204 0.853 0.994-0.26 0.592-1.217 0.592-1.217-0.212-0.731-0.403-0.572-0.403-0.572-0.245-0.162-0.312-0.512-0.33-0.733 0 0-0.092-0.812 0.271-0.19 0.272 0.555 0.801 1.479 1.185 1.774 0 0 0.567 0.602 0.898 0.106 0 0 1.427-2.868 1.943-3.186m-40.46-6.182c0.606-0.845 1.07-1.441 0.943-1.552-0.412-0.358-2.267 1.091-2.267 1.091-3.226 2.675-4.653 6.085-4.964 6.913-0.047 0.121 0.044 0.229 0.044 0.229 0.111 0.122 0.286 0.191 0.754 0.244-0.245 0.117-0.322 0.148-0.3 0.23 0.047 0.134 0.498 0.13 0.498 0.13 0.357 0.016 0.616 0.039 0.616 0.039 0.523 0.055 0.789 0.104 0.789 0.104 1.113 0.178 1.549 0.662 1.549 0.662 1.101 1.116-0.667 2.234-0.667 2.234-4.484 2.576-8.094 1.355-8.094 1.355-0.196-0.056-0.347-0.057-0.562 0.013-0.47 0.157 0.366 0.822 0.366 0.822 2.224 1.842 3.39 1.291 3.39 1.291 4.321-0.287 6.222-2.546 6.222-2.546 1.506-1.592 1.115-2.863 0.913-3.232-0.736-1.348-2.482-1.381-2.482-1.381-0.272-0.016-0.51-0.023-0.72-0.023 0.2-0.229 0.347-0.629 0.347-0.629 0.335-1.051 3.625-5.994 3.625-5.994m-5.804 10.821c0.242-0.442-0.082-1.145-0.082-1.145-1.399-2.864-3.149-9.625-3.5-11.004l8e-3 2e-3s-9e-3 -0.021-0.022-0.06c-0.032-0.123-0.048-0.191-0.048-0.191-0.023-0.102-0.048-0.192-0.072-0.279-0.039-0.211-0.068-0.478-0.062-0.783l-4e-3 2e-3c0.011-0.367-4e-3 -0.742-0.115-0.792-0.314-0.144-0.477 0.277-0.564 0.736-0.308 0.072-0.562 0.472-0.562 0.472-1.135 0.76-0.286 2.873-0.286 2.873 0.77 3.061 4.591 9.515 4.591 9.515 0.447 0.722 0.634 0.808 0.718 0.654m8.804-5.992c-0.096-0.153-0.187-0.325-0.433-0.482 0 0-1.262-0.773-1.218 0.318 0 0 0.042 0.605 0.25 1.168 0 0 0.582 1.478 1.483 2.339 0.083 0.084 0.154 0.092 0.201 0.029 0.125-0.172 0.147-0.368 0.243-0.529 0.024-0.042 0.052-0.086 0.082-0.128-0.108-0.554-0.385-1.605-0.431-2.4-0.035-0.11-0.113-0.212-0.177-0.315m3.327 0.683s-5e-3 0.036-0.038 0.065c-0.083 0.057-0.492-0.128-0.898-0.372-0.065-0.038-0.123-0.072-0.178-0.103-0.149-0.092-0.292-0.185-0.35-0.234 0 0-0.262-0.209-0.233 0.26l1e-3 0.018c4e-3 0.104 0.024 0.237 0.031 0.378 0 0 0.359 1.431 0.513 1.831 0 0 0.085 0.378 0.219 0.808 0 0 0.61 0.634-0.511 0.84 0 0-0.536 1.317-1.113-0.758v2e-3c-0.04 0.213-0.235 0.542-0.537 0.671-0.06 0.035-0.146 0.061-0.264 0.07-0.045 5e-3 -0.075-7e-3 -0.174 6e-3 0 0-0.537 0.185-1.112-0.534-0.613-0.674-2.398-2.815-1.991-4.607 0 0 0.222-0.928 1.046-0.924 0 0 1.09-0.012 1.915 0.769 0 0 0.247 0.219 0.512 0.542 0.01-0.109 0.027-0.231 0.059-0.35 5e-3 -0.024 0.011-0.047 0.017-0.07 0 0 0.03-0.208 0.201-0.365 0.124-0.115 0.326-0.203 0.648-0.159 0.033 6e-3 0.065 0.014 0.101 0.025 0 0 1.153 0.279 1.125 0.77-0.014 0.241 0.074 0.291 0.074 0.291s0.073 0.04 0.048 0.125c0 0 0.92 0.616 0.889 1.005m19.954 3.735c0.515-0.359 1.377-1.155 1.235-1.985 0 0-0.249-1.872-3.345-1.808 0 0-0.337 0.018-0.344 0.227 1e-3 0.154 0.065 0.278 0.331 0.379 0 0 2.013 0.651 0.695 3.07 0 0-0.498-0.385-1.197-0.928 0 0-0.488-0.537-0.453 0.227 0 0 0.043 0.422 0.224 0.585 0 0 1.123 0.662 1.496 1.698 0.186 0.683 1.187 1.261 1.284 0.686 0.043-0.26-0.254-0.422-0.401-0.606-0.335-0.419 0.095-1.305 0.475-1.545m4.49 1.401c0.539 0.715 0.917 0.392 0.917 0.392 0.051-0.029 0.159 5e-3 0.203 9e-3 0.718 0.054 0.129-0.65 0.129-0.65-0.604-0.821-1.151-2.356-1.151-2.356-0.138-0.348-0.272-0.907-0.272-0.907-0.218-0.931 0.763-0.272 0.763-0.272 0.141 0.1 0.269 0.241 0.335 0.303 0.113 0.106 0.21 0.118 0.21 0.118 0.205 0.029-0.144 1.096-0.144 1.096-0.148 0.422-0.122 0.441-0.122 0.441-0.096 0.517 0.192 0.651 0.192 0.651 0.307 0.187 0.554-0.304 0.554-0.304 0.274-0.417 0.518-1.517 0.518-1.517 0.233-0.974-0.497-0.898-0.497-0.898-0.302-0.06-0.82-0.575-0.82-0.575-0.806-0.666-1.93-0.731-1.93-0.731-1.115-0.039-1.026 0.943-1.026 0.943-9e-3 1.063 2.141 4.257 2.141 4.257m-12.855 2.511c-0.032-0.292-0.187-0.535-0.399-0.664-0.302-0.227-0.929-0.617-1.13-0.565-0.204 0.053 0.026 0.699 0.037 0.881 0.012 0.204 0.012 0.353 0.053 0.542 0.066 0.441 0.418 0.759 0.805 0.719 0.399-0.043 0.683-0.451 0.634-0.913m2.701-2.872s1.822-1.941 1.747-3.285c0 0-0.248-1.871-3.344-1.807 0 0-0.766 0.114-0.013 0.605 0 0 2.012 0.651 0.694 3.07 0 0-1.246-1.463-2.071-2.273l6e-3 -6e-3c-2.359-2.302-2.824-1.457-2.824-1.457-0.898 1.285-0.24 4.098-0.24 4.098 0.349 1.488 1.119 0.961 1.119 0.961 1.125-0.182 0.704-1.155 0.704-1.155-0.143-0.747-0.325-0.665-0.325-0.665-0.348-0.28-0.42-1.511-0.42-1.511 0.139-0.679-0.465-1.624 1.281-0.108 0.415 0.416 2.507 2.771 2.84 3.698 0 0 0.348 0.902 0.846-0.165m-11.649-4.669s-0.232 0.154-0.218 0.848c0 0 0.065 1.207 0.885 2.174 0 0 0.229 0.29 0.415 0.325 0.062 0.012 0.163-0.08 0.209-0.448 0.012-0.09-0.249-0.109-0.154-0.398 0 0 0.437-1.104 1.355-0.606-0.038-0.226-0.079-0.455-0.122-0.684-0.48-0.664-1.486-1.813-2.37-1.211m3.907 10.347s-1.006 1.27-0.835-0.194c0 0 0.137-3.051-0.367-6.848-0.057 0.147-0.135 0.298-0.241 0.447 0 0-0.878 1.169-1.861 0.844 0 0-1.255-0.395-1.982-2.289 0 0-0.513-1.309-0.367-2.295 0 0-0.048-2.59 3.103-0.76 0 0 0.334 0.203 0.725 0.6-0.075-0.323-0.199-0.536-0.211-0.868 0 0-0.113-0.684 0.2-0.856 0.119-0.066 0.248 0.025 0.526 0.69 0 0 2.241 5.75 2.361 8.124 0 0 0.787 1.178-1.051 3.405" fill-rule="evenodd"/>
  </g>
 </g>
</svg>
