<?xml version="1.0" encoding="UTF-8" standalone="no"?>
<!-- Created with Inkscape (http://www.inkscape.org/) -->

<svg
   xmlns:dc="http://purl.org/dc/elements/1.1/"
   xmlns:cc="http://creativecommons.org/ns#"
   xmlns:rdf="http://www.w3.org/1999/02/22-rdf-syntax-ns#"
   xmlns:svg="http://www.w3.org/2000/svg"
   xmlns="http://www.w3.org/2000/svg"
   xmlns:sodipodi="http://sodipodi.sourceforge.net/DTD/sodipodi-0.dtd"
   xmlns:inkscape="http://www.inkscape.org/namespaces/inkscape"
   width="100.90001"
   height="63.450001"
   viewBox="0 0 26.69646 16.787813"
   version="1.1"
   id="svg8"
   inkscape:version="0.92.0 r15299"
   sodipodi:docname="simmons.svg">
  <defs
     id="defs2">
    <clipPath
       id="clipPath28"
       clipPathUnits="userSpaceOnUse">
      <path
         inkscape:connector-curvature="0"
         id="path26"
         d="M 0,0 H 4633.75 V 1430.77 H 0 Z" />
    </clipPath>
    <clipPath
       id="clipPath48"
       clipPathUnits="userSpaceOnUse">
      <path
         inkscape:connector-curvature="0"
         id="path46"
         d="m 246.926,234.469 -17.613,11.832 c -31.258,29.168 -54.665,61.859 -64.797,99.48 L 0,956.543 3.24609,964.582 31.0234,859.09 160.422,367.012 c 13.793,-52.481 44.203,-98.93 86.504,-132.543 m -201.5197,849.321 -12.875,34.15 13.9687,-31.16 -1.0937,-2.99" />
    </clipPath>
    <clipPath
       id="clipPath60"
       clipPathUnits="userSpaceOnUse">
      <path
         inkscape:connector-curvature="0"
         id="path58"
         d="m 604.02,1.71094 c -13.739,0 -40.204,21.55076 -91.481,54.46876 L 246.926,234.469 c -42.301,33.613 -72.711,80.062 -86.504,132.543 L 31.0234,859.09 3.24609,964.582 48.3008,1076.11 l -2.8945,7.68 1.0937,2.99 -13.9687,31.16 -17.5743,46.61 79.7383,81.19 c 17.4647,15.53 46.3517,24.32 70.7387,24.32 12.054,0 23.004,-2.15 30.941,-6.69 l 112.301,-64.35 c -1.957,0.34 -3.156,0.54 -3.336,0.54 -0.016,0 -0.024,0 -0.024,-0.01 h -1.07 c 0,0 -0.004,0 -0.008,0 -0.582,0 -7.73,-8.36 -15.953,-18.68 l -53.656,-67.32 c -8.27,-10.37 -21.109,-27.85 -28.535,-38.84 l -39.781,-58.87 c -7.426,-10.99 -15.958,-25.184 -18.958,-31.543 -3,-6.359 -5.632,-29.899 -5.437,-37.277 0,0 0,0 2.02,-6.411 3.218,-11.511 3.691,-12.097 3.691,-12.097 8.305,-10.344 22.543,-26.703 31.633,-36.36 L 319.746,742.977 c 9.09,-9.657 12.309,-27.555 7.145,-39.77 l -22.996,-54.43 c -5.165,-12.218 -5.645,-32.402 -1.071,-44.851 l 4.653,-12.664 c 7.543,-20.535 20.472,-38.657 37.437,-52.465 l 22.078,-17.977 c 6.406,-5.215 15.891,-8.031 25.028,-8.031 5.527,0 10.925,1.031 15.441,3.184 l 78.406,37.371 c 11.973,5.707 29.824,17.648 39.672,26.535 l 62.816,56.68 c 10.54,9.511 11.118,25.859 1.27,36.086 l -141.687,95.488 c -10.997,7.41 -14.899,23.055 -8.672,34.765 l 54.957,103.305 c 6.23,11.711 7.429,30.184 2.668,41.051 -4.762,10.863 -18.809,23.59 -31.215,28.277 l -172.238,65.049 c -12.407,4.69 -11.754,9.55 1.449,10.8 l 101.129,9.58 c 2.761,0.26 5.879,0.38 9.199,0.38 12.531,0 27.933,-1.77 38.039,-4.58 l 88.082,-24.55 c 12.773,-3.57 21.273,-17.15 18.887,-30.2 l -34.59,-188.889 c -2.391,-13.047 -3.168,-27.391 -1.735,-31.879 1.438,-4.488 13.227,-10.422 26.196,-13.191 l 53.625,-11.434 c 5.504,-1.172 12.492,-1.824 19.703,-1.961 l 1.922,-201.59 c -0.227,-0.003 -0.446,-0.003 -0.656,-0.003 -2.481,0 -5.93,0 -7.668,-0.004 -1.739,0 -13.18,-4.164 -25.43,-9.254 l -38.629,-16.047 c -12.25,-5.09 -31.895,-14.27 -43.656,-20.395 l -71.032,-37.011 c -11.761,-6.129 -12.527,-17.407 -1.695,-25.059 l 61.637,-43.555 c 10.832,-7.648 27.906,-21.008 37.945,-29.679 l 17.332,-14.957 c 10.035,-8.672 26.379,-22.961 36.317,-31.743 l 16.441,-14.531 c 4.992,-4.418 11.59,-6.629 18.184,-6.629 1.097,0 2.191,0.063 3.281,0.192 l 1.656,-173.75 0.016,-6.571 c 0.019,-0.961 0.039,-1.922 0.058,-2.871 C 618.508,35.0313 621.098,1.71094 604.02,1.71094" />
    </clipPath>
    <clipPath
       id="clipPath76"
       clipPathUnits="userSpaceOnUse">
      <path
         inkscape:connector-curvature="0"
         id="path74"
         d="M 0,0 H 4633.75 V 1430.77 H 0 Z" />
    </clipPath>
    <clipPath
       id="clipPath88"
       clipPathUnits="userSpaceOnUse">
      <path
         inkscape:connector-curvature="0"
         id="path86"
         d="m 999.344,253.691 c 21.856,21.84 39.496,47.539 52.006,75.789 -15.58,-38.011 -34.03,-59.46 -52.006,-75.789 m 104.426,263.278 89.71,342.89 28.28,108.114 -34.86,94.647 37.47,-97.268 -120.6,-448.383 m 86.89,600.041 17.63,39.59 c 0.12,0.28 0.24,0.55 0.35,0.83 -0.47,-4.86 -1.63,-9.52 -3.41,-13.47 l -14.57,-26.95 m 12.76,65.83 -12.76,12.92 10.22,-9.75 c 0.93,-0.97 1.78,-2.03 2.54,-3.17 m -109.11,104.66 c -3.42,2.08 -6.92,4 -10.49,5.75 3.75,-1.22 7.32,-3.14 10.49,-5.75" />
    </clipPath>
    <linearGradient
       id="linearGradient94"
       spreadMethod="pad"
       gradientTransform="matrix(607.656,0,0,-607.656,616.71,648.517)"
       gradientUnits="userSpaceOnUse"
       y2="0"
       x2="1"
       y1="0"
       x1="0">
      <stop
         id="stop90"
         offset="0"
         style="stop-opacity:1;stop-color:#fbfcfd" />
      <stop
         id="stop92"
         offset="1"
         style="stop-opacity:1;stop-color:#eef0ef" />
    </linearGradient>
    <clipPath
       id="clipPath104"
       clipPathUnits="userSpaceOnUse">
      <path
         inkscape:connector-curvature="0"
         id="path102"
         d="m 627.387,2.19141 c -2.778,0 -4.645,1.42968 -5.649,4.57812 -4.375,13.80077 -1.121,52.92967 -2.293,114.42947 0,0.262 0.004,0.512 0.008,0.77 l -0.082,8.672 -0.441,173.91 c 4.968,0.769 9.722,2.82 13.55,6.168 l 17.25,15.062 c 9.993,8.731 26.34,23 36.333,31.719 l 17.441,15.219 c 9.992,8.722 26.996,22.172 37.781,29.89 l 61.699,44.129 c 10.789,7.715 9.942,18.946 -1.886,24.953 l -70.871,35.997 c -11.825,6.007 -31.528,15.074 -43.782,20.148 l -38.648,16.008 c -12.254,5.074 -23.703,9.226 -25.442,9.226 -0.968,-0.004 -2.476,-0.004 -4.05,-0.004 l -0.508,201.575 c 8.363,0.082 16.683,0.847 23.023,2.285 l 48.235,10.949 c 12.933,2.938 24.687,9.008 26.121,13.492 1.433,4.488 0.64,18.832 -1.762,31.875 L 678.633,1002.1 c -2.403,13.04 6.082,26.64 18.855,30.22 l 88.043,24.66 c 10.141,2.84 25.621,4.63 38.18,4.63 3.266,0 6.328,-0.13 9.055,-0.38 l 101.136,-9.47 c 13.207,-1.24 13.864,-6.09 1.461,-10.8 L 763.211,975.699 C 750.805,971 736.773,958.258 732.027,947.383 c -4.75,-10.871 -3.527,-29.34 2.715,-41.043 l 55.074,-103.266 c 6.243,-11.703 2.36,-27.351 -8.632,-34.777 L 639.617,672.68 c -9.832,-10.242 -9.238,-26.59 1.317,-36.09 l 62.882,-56.602 c 9.86,-8.875 27.727,-20.793 39.707,-26.484 l 78.45,-37.277 c 4.504,-2.137 9.886,-3.161 15.394,-3.161 9.153,0 18.656,2.825 25.071,8.063 l 22.07,18.012 c 16.941,13.828 29.847,31.961 37.359,52.5 l 4.637,12.668 c 4.555,12.457 4.047,32.64 -1.133,44.851 l -23.058,54.403 c -5.176,12.21 -1.985,30.109 7.097,39.777 l 140.32,149.351 c 9.09,9.668 23.3,26.047 31.6,36.395 0,0 0.47,0.59 3.67,12.105 2.01,6.411 2.01,6.411 2.01,6.411 0.19,7.378 -0.55,18.953 -1.64,25.714 -1.09,6.762 -15.4,32.094 -22.84,43.074 l -39.85,58.82 c -7.44,10.99 -20.3,28.45 -28.582,38.81 l -53.743,67.26 c -8.23,10.3 -15.386,18.66 -15.972,18.66 -0.004,0 -0.008,0 -0.012,0 h -0.219 l 12.868,2.02 117.28,86.32 c 5.79,4.4 12.66,6.56 19.51,6.56 3.38,0 6.77,-0.53 10.01,-1.59 3.57,-1.75 7.07,-3.67 10.49,-5.75 0.61,-0.5 1.2,-1.03 1.78,-1.58 l 94.57,-90.16 12.76,-12.92 c 4.55,-6.8 6.09,-16.42 5.22,-25.41 -0.11,-0.28 -0.23,-0.55 -0.35,-0.83 l -17.63,-39.59 -14.43,-26.69 10.67,-27.7 34.86,-94.647 -28.28,-108.114 -89.71,-342.89 L 1058.59,349 c -2.33,-6.961 -4.75,-13.461 -7.24,-19.52 -12.51,-28.25 -30.15,-53.949 -52.006,-75.789 C 988.422,243.77 977.672,235.73 967.852,227.02 L 726.75,62.0703 C 671.805,31.9492 640.086,2.19141 627.387,2.19141 M 776.68,1172.4 c -4.434,0 -10.27,0.67 -16.352,1.84 l 155.25,24.35 c -4.25,-0.79 -9.91,-1.86 -16.09,-3.05 l -82.148,-15.88 c -13.024,-2.51 -29.203,-5.62 -35.949,-6.9 -1.274,-0.24 -2.871,-0.36 -4.711,-0.36 m -20.078,2.62 c -3.551,0.79 -7.106,1.74 -10.434,2.81 l -15.945,5.15 26.379,-7.96 m -119.184,35.99 c -0.434,0.1 -0.863,0.2 -1.285,0.3 0.164,-0.01 0.328,-0.04 0.496,-0.06 l 0.789,-0.24" />
    </clipPath>
    <clipPath
       id="clipPath120"
       clipPathUnits="userSpaceOnUse">
      <path
         inkscape:connector-curvature="0"
         id="path118"
         d="M 0,0 H 4633.75 V 1430.77 H 0 Z" />
    </clipPath>
    <clipPath
       id="clipPath130"
       clipPathUnits="userSpaceOnUse">
      <path
         inkscape:connector-curvature="0"
         id="path128"
         d="m 619.445,121.199 c -0.019,0.949 -0.039,1.91 -0.058,2.871 l -0.016,6.571 0.082,-8.672 c -0.004,-0.258 -0.008,-0.508 -0.008,-0.77" />
    </clipPath>
    <clipPath
       id="clipPath146"
       clipPathUnits="userSpaceOnUse">
      <path
         inkscape:connector-curvature="0"
         id="path144"
         d="m 618.93,304.551 -0.625,248.515 c 1.574,0 3.082,0 4.05,0.004 1.739,0 13.188,-4.152 25.442,-9.226 l 38.648,-16.008 c 12.254,-5.074 31.957,-14.141 43.782,-20.148 l 70.871,-35.997 c 11.828,-6.007 12.675,-17.238 1.886,-24.953 L 741.285,402.609 C 730.5,394.891 713.496,381.441 703.504,372.719 L 686.063,357.5 c -9.993,-8.719 -26.34,-22.988 -36.333,-31.719 l -17.25,-15.062 c -3.828,-3.348 -8.582,-5.399 -13.55,-6.168" />
    </clipPath>
    <clipPath
       id="clipPath162"
       clipPathUnits="userSpaceOnUse">
      <path
         inkscape:connector-curvature="0"
         id="path160"
         d="m 837.367,513.066 c -5.508,0 -10.89,1.024 -15.394,3.161 l -78.45,37.277 c -11.98,5.691 -29.847,17.609 -39.707,26.484 l -62.882,56.602 c -10.555,9.5 -11.149,25.848 -1.317,36.09 l 141.567,95.617 c 10.992,7.426 14.875,23.074 8.632,34.777 L 734.742,906.34 c -6.242,11.703 -7.465,30.172 -2.715,41.043 4.746,10.875 18.778,23.617 31.184,28.316 l 172.152,65.261 c 12.403,4.71 11.746,9.56 -1.461,10.8 l -101.136,9.47 c -2.727,0.25 -5.789,0.38 -9.055,0.38 -12.559,0 -28.039,-1.79 -38.18,-4.63 l -88.043,-24.66 c -12.773,-3.58 -21.258,-17.18 -18.855,-30.22 l 34.781,-188.858 c 2.402,-13.043 3.195,-27.387 1.762,-31.875 -1.434,-4.484 -13.188,-10.554 -26.121,-13.492 L 640.82,756.926 c -6.34,-1.438 -14.66,-2.203 -23.023,-2.285 l -1.086,430.509 c 0.523,9.86 6.977,26.24 18.109,26.24 0.434,0 0.868,-0.03 1.313,-0.08 0.422,-0.1 0.851,-0.2 1.285,-0.3 l 92.805,-28.03 15.945,-5.15 c 3.328,-1.07 6.883,-2.02 10.434,-2.81 l 2.964,-0.9 0.762,0.12 c 6.082,-1.17 11.918,-1.84 16.352,-1.84 1.84,0 3.437,0.12 4.711,0.36 6.746,1.28 22.925,4.39 35.949,6.9 l 82.148,15.88 c 6.18,1.19 11.84,2.26 16.09,3.05 l 8.574,1.35 h 0.219 c 0.004,0 0.008,0 0.012,0 0.586,0 7.742,-8.36 15.972,-18.66 l 53.743,-67.26 c 8.282,-10.36 21.142,-27.82 28.582,-38.81 l 39.85,-58.82 c 7.44,-10.98 21.75,-36.312 22.84,-43.074 1.09,-6.761 1.83,-18.336 1.64,-25.714 0,0 0,0 -2.01,-6.411 -3.2,-11.515 -3.67,-12.105 -3.67,-12.105 -8.3,-10.348 -22.51,-26.727 -31.6,-36.395 L 909.41,743.34 c -9.082,-9.668 -12.273,-27.567 -7.097,-39.777 l 23.058,-54.403 c 5.18,-12.211 5.688,-32.394 1.133,-44.851 l -4.637,-12.668 c -7.512,-20.539 -20.418,-38.672 -37.359,-52.5 l -22.07,-18.012 c -6.415,-5.238 -15.918,-8.063 -25.071,-8.063" />
    </clipPath>
    <clipPath
       id="clipPath178"
       clipPathUnits="userSpaceOnUse">
      <path
         inkscape:connector-curvature="0"
         id="path176"
         d="M 0,0 H 4633.75 V 1430.77 H 0 Z" />
    </clipPath>
  </defs>
  <sodipodi:namedview
     id="base"
     pagecolor="#ffffff"
     bordercolor="#666666"
     borderopacity="1.0"
     inkscape:pageopacity="0.0"
     inkscape:pageshadow="2"
     inkscape:zoom="8.0280271"
     inkscape:cx="49.950006"
     inkscape:cy="31.225002"
     inkscape:document-units="mm"
     inkscape:current-layer="layer1"
     showgrid="false"
     fit-margin-top="0"
     fit-margin-left="0"
     fit-margin-right="0"
     fit-margin-bottom="0"
     units="px"
     inkscape:window-width="1280"
     inkscape:window-height="744"
     inkscape:window-x="-4"
     inkscape:window-y="-4"
     inkscape:window-maximized="1" />
  <metadata
     id="metadata5">
    <rdf:RDF>
      <cc:Work
         rdf:about="">
        <dc:format>image/svg+xml</dc:format>
        <dc:type
           rdf:resource="http://purl.org/dc/dcmitype/StillImage" />
        <dc:title></dc:title>
      </cc:Work>
    </rdf:RDF>
  </metadata>
  <g
     inkscape:label="Layer 1"
     inkscape:groupmode="layer"
     id="layer1"
     transform="translate(-91.784062,-139.97381)">
    <g
       id="g336"
       transform="translate(0.13229138,-0.13228365)">
      <path
         id="path255"
         d="m 118.21594,153.75198 c 0,0.44979 -0.37042,0.9525 -0.79375,1.08479 -8.06979,2.56646 -16.77459,2.56646 -24.844378,0 -0.449791,-0.13229 -0.79375,-0.635 -0.79375,-1.08479 v -10.50396 c 0,-0.44979 0.370417,-0.9525 0.79375,-1.08479 8.069788,-2.56646 16.774588,-2.56646 24.844378,0 0.44979,0.13229 0.79375,0.635 0.79375,1.08479 z"
         class="SimmonsLogoBkg"
         inkscape:connector-curvature="0"
         style="fill:#00426b;fill-opacity:1;stroke-width:0.26458332" />
      <path
         style="fill:#ffffff;stroke-width:0.26458332"
         id="path257"
         d="m 116.17865,146.3701 c -1.61396,-1.27 -12.85875,-0.84666 -15.13417,-0.84666 -3.016251,0 -4.894793,-0.37042 -4.524376,-1.37584 0.238125,-0.66146 5.582706,-1.53458 8.466666,-1.53458 4.92125,0 8.83708,0.82021 8.46667,2.2225 l 1.40229,0.13229 c 0.26458,-0.21167 1.27,-1.21708 1.56104,-1.40229 -3.46604,-1.08479 -7.01146,-1.71979 -11.43,-1.71979 -5.953124,0 -9.419166,1.13771 -11.377083,1.98437 -0.529166,0.23813 -0.661458,6.13834 0.185209,6.79979 1.613958,1.27 12.858754,0.84667 15.134164,0.84667 3.01625,0 4.89479,0.37042 4.52438,1.37583 -0.23813,0.66146 -5.58271,1.50813 -8.46667,1.50813 -4.92125,0 -8.837083,-0.82021 -8.466666,-2.2225 l -1.402292,-0.13229 c -0.264583,0.21166 -1.27,1.21708 -1.561041,1.40229 3.466041,1.11125 7.011459,1.74625 11.429999,1.74625 5.95313,0 9.44563,-1.13771 11.37708,-1.98438 0.52917,-0.23812 0.66146,-6.13833 -0.1852,-6.79979"
         class="SimmonLogoS"
         inkscape:connector-curvature="0" />
      <g
         style="fill:#171717;fill-opacity:1"
         id="g323">
        <path
           id="path259"
           d="m 97.181562,149.12177 c 0,0.52917 -0.555625,0.89958 -1.190625,0.89958 -0.449791,0 -0.79375,-0.13229 -0.978958,-0.21166 l -0.02646,-0.71438 c 0.105833,0.29104 0.396875,0.68792 0.926041,0.68792 0.502709,0 0.661459,-0.29104 0.661459,-0.50271 0,-0.39688 -0.449792,-0.44979 -0.899584,-0.66146 -0.47625,-0.21167 -0.661458,-0.44979 -0.661458,-0.76729 0,-0.58208 0.635,-0.79375 1.11125,-0.79375 0.185208,0 0.502708,0.0265 0.767292,0.15875 l 0.02646,0.635 c -0.07937,-0.21167 -0.370417,-0.55563 -0.846667,-0.55563 -0.396875,0 -0.529166,0.21167 -0.529166,0.39688 0,0.26458 0.211666,0.34396 0.687916,0.52917 0.47625,0.15875 0.9525,0.3175 0.9525,0.89958"
           inkscape:connector-curvature="0"
           style="fill:#171717;fill-opacity:1;stroke-width:0.26458332" />
        <path
           id="path261"
           d="m 115.2526,149.12177 c 0,0.52917 -0.55562,0.89958 -1.19062,0.89958 -0.44979,0 -0.79375,-0.13229 -0.97896,-0.21166 l -0.0265,-0.71438 c 0.10584,0.29104 0.39688,0.68792 0.92604,0.68792 0.50271,0 0.66146,-0.29104 0.66146,-0.50271 0,-0.39688 -0.44979,-0.44979 -0.89958,-0.66146 -0.47625,-0.21167 -0.66146,-0.44979 -0.66146,-0.76729 0,-0.58208 0.635,-0.79375 1.11125,-0.79375 0.18521,0 0.50271,0.0265 0.76729,0.15875 l 0.0265,0.635 c -0.0794,-0.21167 -0.37042,-0.55563 -0.84667,-0.55563 -0.39687,0 -0.52916,0.21167 -0.52916,0.39688 0,0.26458 0.21166,0.34396 0.68791,0.52917 0.4498,0.15875 0.9525,0.3175 0.9525,0.89958"
           inkscape:connector-curvature="0"
           style="fill:#171717;fill-opacity:1;stroke-width:0.26458332" />
        <path
           id="path263"
           d="m 98.425104,147.08448 c -0.07937,0.0265 -0.105833,0.10583 -0.105833,0.18521 v 2.48708 c 0,0.10583 0.02646,0.15875 0.105833,0.18521 h -0.79375 c 0.07937,-0.0265 0.105833,-0.10584 0.105833,-0.18521 v -2.48708 c 0,-0.10584 -0.05292,-0.15875 -0.105833,-0.18521 z"
           inkscape:connector-curvature="0"
           style="fill:#171717;fill-opacity:1;stroke-width:0.26458332" />
        <path
           id="path265"
           d="m 101.49427,147.08448 h 0.74083 c -0.0794,0.0265 -0.10583,0.10583 -0.10583,0.18521 v 2.48708 c 0,0.10583 0.0529,0.15875 0.10583,0.18521 h -0.79375 c 0.0794,-0.0265 0.10584,-0.10584 0.10584,-0.18521 v -2.11667 c 0,-0.0529 0,-0.10583 0,-0.10583 v 0.10583 l -1.05834,2.38125 -1.058329,-2.30187 -0.02646,-0.10584 v 0.10584 2.06375 c 0,0.10583 0.05292,0.15875 0.132292,0.18521 h -0.502708 c 0.07937,-0.0265 0.105833,-0.10584 0.105833,-0.18521 v -2.48709 c 0,-0.0794 -0.07937,-0.15875 -0.132292,-0.1852 h 0.767292 l 0.873122,1.93145 z"
           inkscape:connector-curvature="0"
           style="fill:#171717;fill-opacity:1;stroke-width:0.26458332" />
        <path
           id="path267"
           d="m 105.19844,147.08448 h 0.74083 c -0.0794,0.0265 -0.10583,0.10583 -0.10583,0.18521 v 2.48708 c 0,0.10583 0.0529,0.15875 0.10583,0.18521 h -0.79375 c 0.0794,-0.0265 0.10583,-0.10584 0.10583,-0.18521 v -2.11667 c 0,-0.0529 0,-0.10583 0,-0.10583 l -0.0264,0.10583 -1.05834,2.38125 -1.05833,-2.30187 -0.0265,-0.10584 v 0.10584 2.06375 c 0,0.10583 0.0529,0.15875 0.13229,0.18521 h -0.50271 c 0.0794,-0.0265 0.10584,-0.10584 0.10584,-0.18521 v -2.48709 c 0,-0.0794 -0.0794,-0.15875 -0.13229,-0.1852 h 0.76729 l 0.87312,1.93145 z"
           inkscape:connector-curvature="0"
           style="fill:#171717;fill-opacity:1;stroke-width:0.26458332" />
        <path
           id="path269"
           d="m 107.92365,149.99489 c -0.89959,0 -1.64042,-0.635 -1.61396,-1.50812 0.0265,-0.74083 0.635,-1.48167 1.69333,-1.45521 0.76729,0 1.61396,0.52917 1.5875,1.48167 -0.0265,1.00541 -0.87312,1.50812 -1.66687,1.48166 m -1.00542,-1.53458 c 0,0.89958 0.52917,1.32292 1.03187,1.32292 0.58209,0 1.00542,-0.44979 1.00542,-1.21709 0,-0.8202 -0.42333,-1.29645 -1.00542,-1.29645 -0.58208,0 -1.03187,0.42333 -1.03187,1.19062"
           inkscape:connector-curvature="0"
           style="fill:#171717;fill-opacity:1;stroke-width:0.26458332" />
        <path
           id="path271"
           d="m 112.2099,147.26969 c 0,-0.10584 -0.0529,-0.15875 -0.10584,-0.18521 h 0.50271 c -0.0794,0.0265 -0.10583,0.10583 -0.10583,0.18521 v 2.80458 c 0,0 -2.11667,-2.38125 -2.11667,-2.43417 v 2.11667 c 0,0.10583 0.0529,0.15875 0.13229,0.18521 h -0.50271 c 0.0529,-0.0265 0.10584,-0.10584 0.10584,-0.18521 v -2.24896 c 0,-0.15875 0,-0.15875 -0.0794,-0.26458 -0.0529,-0.0529 -0.10583,-0.10584 -0.21166,-0.15875 h 0.76729 l 1.64041,1.85208 z"
           inkscape:connector-curvature="0"
           style="fill:#171717;fill-opacity:1;stroke-width:0.26458332" />
      </g>
      <path
         style="fill:#999999;stroke-width:0.26458332"
         id="path275"
         d="m 117.50156,155.5776 c 0,-0.0529 0,-0.10583 0.0265,-0.13229 0.0265,-0.0529 0.0529,-0.0794 0.0794,-0.10583 0.0264,-0.0265 0.0794,-0.0529 0.10583,-0.0794 0.0529,-0.0265 0.0794,-0.0265 0.13229,-0.0265 0.0529,0 0.10583,0 0.13229,0.0265 0.0529,0.0265 0.0794,0.0529 0.10584,0.0794 0.0264,0.0265 0.0529,0.0794 0.0794,0.10583 0.0265,0.0529 0.0265,0.0794 0.0265,0.13229 0,0.0529 0,0.10584 -0.0265,0.13229 -0.0265,0.0529 -0.0529,0.0794 -0.0794,0.10584 -0.0265,0.0265 -0.0794,0.0529 -0.10584,0.0794 -0.0529,0.0265 -0.0794,0.0265 -0.13229,0.0265 -0.0529,0 -0.10583,0 -0.13229,-0.0265 -0.0529,-0.0265 -0.0794,-0.0529 -0.10583,-0.0794 -0.0265,-0.0265 -0.0529,-0.0794 -0.0794,-0.10584 0,-0.0265 -0.0265,-0.0794 -0.0265,-0.13229 m 0.0794,0 c 0,0.0529 0,0.0794 0.0265,0.10584 0.0264,0.0265 0.0264,0.0794 0.0529,0.0794 0.0265,0.0265 0.0529,0.0529 0.0794,0.0529 0.0265,0.0265 0.0794,0.0265 0.10583,0.0265 0.0529,0 0.0794,0 0.10583,-0.0265 0.0265,-0.0265 0.0529,-0.0265 0.0794,-0.0529 0.0265,-0.0265 0.0529,-0.0529 0.0529,-0.0794 0.0264,-0.0265 0.0264,-0.0794 0.0264,-0.10584 0,-0.0529 0,-0.0794 -0.0264,-0.10583 -0.0265,-0.0265 -0.0265,-0.0529 -0.0529,-0.0794 -0.0265,-0.0265 -0.0529,-0.0529 -0.0794,-0.0529 -0.0265,0 -0.0529,-0.0265 -0.0794,-0.0265 -0.0529,0 -0.0794,0 -0.10583,0.0265 -0.0265,0.0265 -0.0529,0.0265 -0.0794,0.0529 -0.0265,0.0265 -0.0529,0.0529 -0.0529,0.0794 -0.0529,0.0529 -0.0529,0.0794 -0.0529,0.10583 m 0.15875,-0.18521 h 0.15875 c 0.0529,0 0.0794,0 0.10583,0.0265 0.0265,0.0265 0.0265,0.0529 0.0265,0.0794 0,0.0265 0,0.0529 -0.0265,0.0794 -0.0265,0.0265 -0.0529,0.0265 -0.0794,0.0265 l 0.10583,0.15875 h -0.0794 l -0.10583,-0.15875 h -0.0529 v 0.15875 h -0.0794 v -0.37042 z m 0.0529,0.15875 h 0.0529 c 0,0 0.0265,0 0.0265,0 0,0 0.0265,0 0.0265,0 0,0 0.0265,0 0.0265,-0.0265 0,0 0,-0.0265 0,-0.0265 0,0 0,-0.0265 0,-0.0265 0,0 0,-0.0265 -0.0265,-0.0265 0,0 -0.0265,0 -0.0265,0 0,0 -0.0265,0 -0.0265,0 h -0.0529 z"
         class="SimmonsLogoReg"
         inkscape:connector-curvature="0" />
    </g>
  </g>
</svg>
