<?xml version="1.0" encoding="UTF-8"?>
<svg xmlns="http://www.w3.org/2000/svg" xmlns:xlink="http://www.w3.org/1999/xlink" width="436.27pt" height="298.24pt" viewBox="0 0 436.27 298.24" version="1.1">
<defs>
<clipPath id="clip1">
  <path d="M 0 0 L 436.269531 0 L 436.269531 298.238281 L 0 298.238281 Z M 0 0 "/>
</clipPath>
</defs>
<g id="surface1">
<path style=" stroke:none;fill-rule:nonzero;fill:rgb(1.998901%,20.799255%,47.799683%);fill-opacity:1;" d="M 192.125 2.46875 L 279.761719 1.257813 L 342.671875 2.230469 C 376.136719 1.066406 410.773438 24.515625 422.253906 55.515625 C 432.953125 81.292969 427.3125 113.652344 410.578125 134.96875 L 396.761719 149.503906 L 356.679688 190.199219 L 353.375 193.492188 L 291.113281 256.859375 C 274.382813 276.429688 252.390625 289.804688 227.296875 292.128906 C 207.449219 293.675781 187.214844 289.21875 170.871094 278.5625 C 162.507813 272.941406 154.914063 264.609375 147.71875 257.632813 L 126.511719 236.125 L 26.890625 135.355469 C 7.628906 112.683594 4.324219 75.671875 17.359375 49.125 C 24.363281 34.203125 37.207031 20.636719 51.992188 12.886719 C 60.359375 7.652344 69.894531 4.746094 79.816406 3.199219 L 88.957031 2.425781 L 192.125 2.46875 "/>
<path style=" stroke:none;fill-rule:nonzero;fill:rgb(100%,100%,100%);fill-opacity:1;" d="M 422.753906 52.058594 C 411.445313 26.304688 384.507813 7.914063 356.949219 6.6875 L 296.382813 5.566406 L 161.179688 5.394531 L 147.125 6.074219 L 115.933594 5.867188 L 85.910156 5.664063 C 78.914063 5.867188 72.132813 6.484375 65.757813 7.914063 C 42.722656 13.226563 21.335938 31.210938 12.289063 53.28125 C 1.597656 78.628906 6.53125 111.121094 24.628906 131.558594 L 46.628906 154.039063 L 138.96875 247.4375 L 159.941406 268.484375 C 177.835938 285.648438 200.246094 294.035156 225.339844 292.195313 C 252.28125 290.554688 273.867188 273.800781 291.347656 253.566406 L 340.703125 203.699219 L 360.238281 183.878906 L 410.214844 133.398438 C 415.558594 127.472656 419.46875 120.929688 422.753906 114.183594 L 423.167969 112.757813 C 431.390625 94.976563 431.1875 69.636719 422.753906 52.058594 Z M 408.363281 110.304688 C 404.660156 119.296875 397.464844 126.246094 390.46875 133.398438 L 344.40625 179.585938 L 322.195313 202.265625 L 264.613281 259.902344 C 246.929688 276.457031 220.195313 281.769531 197.164063 274.617188 C 187.707031 271.347656 179.480469 266.851563 171.664063 259.699219 L 147.195313 234.96875 L 123.339844 210.445313 L 115.933594 203.496094 L 82.210938 169.363281 L 55.679688 142.59375 C 41.902344 128.289063 24.832031 113.367188 22.777344 93.546875 C 18.460938 67.183594 30.386719 42.046875 53.007813 28.761719 C 63.289063 22.425781 75.421875 20.992188 87.964844 20.382813 L 192.023438 20.585938 L 283.742188 20.789063 L 316.847656 20.992188 L 353.246094 20.992188 C 374.632813 20.992188 394.792969 32.640625 406.304688 51.445313 C 416.585938 67.792969 417.820313 92.933594 408.363281 110.304688 "/>
<g clip-path="url(#clip1)" clip-rule="nonzero">
<path style=" stroke:none;fill-rule:nonzero;fill:rgb(1.998901%,20.799255%,47.799683%);fill-opacity:1;" d="M 429.601563 48.480469 C 417.921875 21.726563 390.105469 2.617188 361.652344 1.34375 L 299.117188 0.175781 L 159.503906 0 L 144.992188 0.707031 L 112.789063 0.492188 L 81.789063 0.28125 C 74.570313 0.492188 67.5625 1.132813 60.980469 2.617188 C 37.199219 8.136719 15.113281 26.824219 5.773438 49.757813 C -5.269531 76.085938 -0.171875 109.847656 18.511719 131.082031 L 41.230469 154.4375 L 136.574219 251.480469 L 158.234375 273.351563 C 176.703125 291.183594 199.851563 299.890625 225.753906 297.980469 C 253.570313 296.28125 275.863281 278.871094 293.914063 257.851563 L 344.875 206.039063 L 365.046875 185.441406 L 416.648438 132.992188 C 422.164063 126.835938 426.203125 120.042969 429.601563 113.03125 L 430.027344 111.550781 C 438.519531 93.074219 438.304688 66.742188 429.601563 48.480469 Z M 414.734375 109 C 410.914063 118.34375 403.484375 125.5625 396.261719 132.992188 L 348.699219 180.980469 L 325.765625 204.550781 L 266.3125 264.429688 C 248.050781 281.628906 220.445313 287.152344 196.664063 279.71875 C 186.898438 276.324219 178.402344 271.652344 170.335938 264.21875 L 145.066406 238.527344 L 120.433594 213.046875 L 112.789063 205.824219 L 77.96875 170.367188 L 50.574219 142.546875 C 36.347656 127.6875 18.722656 112.1875 16.601563 91.589844 C 12.140625 64.195313 24.457031 38.078125 47.816406 24.277344 C 58.433594 17.695313 70.960938 16.207031 83.910156 15.570313 L 191.355469 15.78125 L 286.058594 15.992188 L 320.246094 16.207031 L 357.828125 16.207031 C 379.910156 16.207031 400.722656 28.308594 412.613281 47.84375 C 423.230469 64.832031 424.503906 90.949219 414.734375 109 "/>
</g>
<path style=" stroke:none;fill-rule:nonzero;fill:rgb(38.398743%,45.098877%,67.498779%);fill-opacity:1;" d="M 87.40625 67.441406 C 81.296875 62.121094 69.085938 57.59375 71.253906 47.546875 C 72.828125 44.394531 76.179688 42.226563 79.722656 42.226563 C 87.597656 42.03125 95.871094 45.574219 99.417969 52.863281 C 100.011719 54.242188 99.617188 56.214844 100.996094 57.199219 C 102.175781 57.390625 104.542969 58.179688 105.132813 56.410156 C 106.3125 52.273438 106.117188 47.742188 106.3125 43.410156 C 106.117188 41.832031 106.3125 40.0625 105.132813 38.882813 C 91.542969 35.335938 72.234375 32.578125 61.601563 44 C 55.695313 49.714844 54.316406 59.363281 57.269531 66.847656 C 65.738281 79.847656 80.511719 84.378906 90.949219 95.605469 C 93.511719 98.5625 93.707031 103.289063 92.527344 106.832031 C 91.148438 110.574219 87.207031 112.152344 83.464844 112.542969 C 74.210938 112.9375 65.539063 106.441406 61.800781 98.363281 C 60.617188 96.59375 61.40625 94.027344 59.632813 92.652344 C 57.859375 92.847656 56.085938 92.652344 54.90625 94.027344 C 54.707031 100.726563 55.101563 107.226563 55.695313 113.726563 L 56.679688 114.90625 C 70.070313 119.238281 87.40625 121.011719 100.011719 113.332031 C 106.3125 108.605469 109.464844 101.910156 109.664063 94.425781 C 111.039063 80.636719 95.871094 74.527344 87.40625 67.441406 Z M 381.472656 89.304688 C 381.074219 88.515625 380.484375 88.121094 379.695313 87.925781 C 370.242188 87.53125 361.773438 87.925781 352.125 87.925781 L 350.152344 89.105469 C 348.972656 94.226563 355.667969 91.269531 356.851563 94.816406 C 358.03125 99.9375 357.441406 105.847656 356.851563 110.96875 C 356.0625 111.953125 355.074219 113.136719 353.699219 113.332031 C 349.367188 114.121094 345.226563 112.9375 342.46875 109.390625 C 337.746094 101.316406 337.347656 90.882813 337.152344 81.425781 C 337.546875 72.953125 338.335938 64.09375 344.636719 57.59375 C 350.742188 53.847656 357.441406 57.789063 362.761719 60.941406 C 366.894531 62.710938 366.5 66.847656 368.078125 70 C 370.046875 71.183594 372.609375 70.394531 374.378906 69.214844 C 375.171875 63.894531 375.171875 58.578125 374.96875 53.257813 C 373.59375 52.078125 371.820313 52.667969 370.242188 53.0625 C 362.558594 52.667969 355.074219 50.699219 347.199219 50.894531 C 335.378906 50.105469 324.347656 57 320.015625 67.636719 C 315.289063 80.042969 315.289063 97.378906 324.152344 107.816406 C 333.804688 120.421875 350.152344 120.027344 364.136719 117.46875 C 368.46875 116.878906 372.804688 115.894531 376.546875 113.53125 C 377.726563 112.152344 376.347656 110.574219 375.5625 109.390625 C 375.5625 104.46875 374.773438 99.546875 375.5625 94.816406 C 376.347656 92.847656 378.519531 93.242188 380.285156 92.652344 C 381.667969 92.058594 381.863281 90.484375 381.472656 89.304688 Z M 140.785156 116.484375 C 140.980469 115.894531 141.175781 114.710938 140.585938 114.316406 C 137.828125 113.136719 133.890625 114.515625 131.722656 111.753906 C 130.144531 107.621094 130.539063 102.105469 130.933594 97.378906 C 130.933594 94.425781 130.539063 90.882813 131.917969 88.316406 L 141.371094 89.105469 C 149.445313 88.90625 157.527344 84.773438 160.871094 76.890625 C 163.039063 71.96875 163.039063 65.074219 160.476563 60.347656 C 157.324219 55.03125 151.421875 51.683594 145.3125 51.488281 C 133.492188 51.289063 121.675781 51.683594 109.464844 51.683594 C 108.480469 52.273438 108.679688 53.453125 108.679688 54.4375 C 109.464844 56.015625 111.433594 55.625 113.007813 55.816406 C 115.570313 57.390625 114.980469 60.742188 114.980469 63.304688 L 114.390625 99.9375 L 113.800781 110.769531 C 113.203125 113.726563 109.859375 112.742188 108.085938 114.316406 C 107.890625 115.304688 107.691406 116.878906 108.679688 117.273438 L 139.992188 117.46875 Z M 131.523438 58.179688 C 131.917969 57.390625 132.3125 56.410156 133.296875 56.214844 C 137.039063 56.015625 141.175781 56.214844 142.949219 59.953125 C 146.101563 66.0625 145.703125 75.121094 142.160156 81.027344 C 139.992188 83.984375 136.253906 84.179688 133.101563 83.789063 C 132.3125 83.394531 131.523438 83.199219 131.328125 82.210938 C 131.128906 73.941406 131.523438 66.0625 131.523438 58.179688 Z M 317.066406 54.4375 C 316.671875 53.453125 316.078125 52.667969 315.09375 52.273438 L 302.09375 52.273438 C 299.535156 52.667969 296.183594 51.289063 294.808594 54.046875 C 293.621094 58.179688 298.945313 56.410156 300.121094 58.773438 C 303.078125 67.835938 301.308594 78.863281 301.699219 88.710938 C 301.308594 89.105469 301.109375 89.304688 300.71875 89.105469 L 282.988281 69.605469 L 267.820313 52.667969 C 261.324219 52.273438 254.820313 51.878906 248.71875 52.46875 C 247.535156 52.863281 247.339844 54.242188 247.535156 55.625 C 247.925781 57.789063 250.488281 57.390625 252.066406 57.789063 C 254.230469 59.363281 254.035156 62.316406 254.230469 64.683594 L 254.628906 92.652344 C 254.230469 98.5625 254.820313 105.257813 253.050781 110.769531 C 252.65625 112.542969 250.488281 112.9375 249.109375 113.332031 C 247.925781 113.921875 247.734375 114.90625 247.734375 115.894531 C 247.925781 116.878906 248.71875 117.863281 249.703125 118.058594 C 255.804688 118.847656 261.324219 117.863281 267.820313 117.863281 C 268.804688 117.664063 269.59375 116.679688 269.398438 115.304688 C 269.003906 113.332031 266.25 113.53125 264.867188 112.152344 C 261.714844 100.925781 263.09375 88.316406 263.292969 76.5 C 263.292969 76.105469 263.882813 75.121094 264.671875 75.710938 L 284.367188 97.574219 L 294.019531 108.40625 C 298.546875 111.953125 300.914063 120.027344 307.808594 118.847656 C 308.988281 118.847656 309.777344 117.273438 309.96875 116.285156 L 310.171875 70.394531 C 310.367188 66.847656 310.761719 63.105469 311.546875 59.757813 C 312.136719 57.789063 314.304688 57.984375 315.878906 57.390625 C 316.867188 57 317.257813 55.625 317.066406 54.4375 Z M 165.203125 57.390625 C 167.566406 58.382813 166.976563 61.332031 167.566406 63.304688 L 166.78125 105.257813 L 166.191406 111.363281 C 165.402344 113.53125 163.234375 113.332031 161.460938 113.726563 C 160.671875 114.121094 160.476563 115.105469 160.476563 115.894531 C 160.476563 116.878906 161.066406 117.46875 161.855469 117.863281 C 170.914063 117.273438 178.796875 118.257813 187.660156 117.46875 C 191.402344 112.742188 183.71875 114.90625 183.128906 111.5625 C 181.75 103.878906 182.734375 95.410156 182.734375 87.53125 L 183.519531 86.542969 C 184.902344 86.152344 186.28125 86.542969 187.265625 87.726563 C 191.597656 96.984375 194.949219 106.636719 199.277344 115.894531 C 199.867188 117.074219 201.25 117.863281 202.429688 117.863281 C 216.613281 118.257813 229.414063 117.273438 243.402344 117.863281 C 244.578125 117.46875 244.777344 116.089844 244.382813 114.90625 C 243.789063 113.726563 242.019531 113.921875 240.839844 113.726563 C 236.703125 112.347656 239.066406 106.832031 238.472656 103.679688 L 238.871094 63.894531 L 239.460938 58.578125 C 240.640625 56.410156 243.402344 57.59375 244.578125 55.816406 C 244.777344 54.835938 244.777344 53.652344 243.988281 52.863281 L 243.003906 52.667969 C 235.324219 52.667969 225.867188 52.273438 217.796875 52.46875 C 216.414063 52.667969 216.613281 54.242188 216.613281 55.425781 C 217.398438 57 219.367188 56.410156 220.746094 57.199219 C 223.113281 58.578125 222.128906 61.726563 222.71875 64.09375 L 222.324219 98.363281 L 221.929688 108.605469 C 221.535156 110.179688 221.929688 112.347656 219.960938 113.332031 C 218.582031 114.121094 217.203125 113.136719 216.019531 112.347656 C 212.078125 105.652344 209.128906 98.5625 205.976563 91.664063 L 203.8125 88.515625 C 202.234375 86.542969 199.675781 86.542969 198.097656 85.164063 C 203.019531 83.394531 208.140625 81.621094 211.6875 76.890625 C 214.050781 73.152344 215.039063 68.625 213.660156 64.09375 C 211.6875 57.59375 204.992188 53.453125 198.886719 53.0625 C 187.265625 52.667969 174.265625 52.863281 162.449219 52.863281 C 161.066406 53.257813 161.066406 55.03125 161.460938 56.214844 C 162.253906 57.59375 164.023438 56.804688 165.203125 57.390625 Z M 183.328125 59.363281 C 184.308594 56.214844 188.25 58.382813 190.414063 57.984375 C 192.191406 58.578125 194.554688 59.757813 194.949219 61.726563 C 197.898438 66.652344 197.507813 74.925781 194.355469 79.453125 C 191.402344 82.015625 187.066406 82.800781 183.328125 81.425781 L 182.933594 79.453125 Z M 229.355469 140.121094 C 219.898438 139.527344 211.628906 140.316406 201.976563 140.121094 C 200.597656 140.515625 200.597656 142.089844 200.597656 143.46875 C 201.386719 145.046875 203.15625 144.652344 204.539063 145.238281 C 206.898438 146.03125 206.113281 148.589844 206.703125 150.359375 L 206.898438 182.660156 C 206.898438 188.570313 207.097656 193.890625 206.113281 199.210938 C 205.519531 200.390625 204.140625 200.585938 202.964844 200.195313 C 200.007813 199.011719 199.613281 195.664063 198.429688 193.300781 L 189.566406 164.148438 L 178.734375 127.511719 L 177.355469 126.136719 C 173.414063 125.347656 169.082031 126.332031 164.949219 126.925781 C 161.792969 129.289063 161.597656 133.421875 160.414063 136.964844 L 151.160156 164.738281 C 147.421875 175.769531 144.464844 186.800781 139.539063 197.238281 C 138.554688 199.601563 136.191406 199.796875 134.8125 201.570313 C 134.222656 202.753906 134.617188 204.328125 135.601563 205.3125 C 140.914063 206.296875 145.25 205.117188 150.371094 205.707031 C 152.34375 205.511719 155.300781 206.496094 156.871094 204.722656 C 156.871094 203.933594 157.460938 202.949219 156.871094 201.964844 C 156.476563 200.585938 155.101563 200.390625 153.917969 200.195313 C 149.777344 198.8125 152.144531 193.695313 151.945313 190.542969 C 152.34375 187.390625 152.539063 184.042969 154.3125 181.679688 C 161.007813 181.285156 168.492188 181.484375 174.597656 181.484375 L 175.582031 182.269531 C 176.964844 186.40625 178.144531 190.738281 178.734375 195.46875 C 178.933594 200.785156 172.429688 199.011719 170.066406 201.769531 C 169.675781 203.144531 169.871094 204.722656 171.054688 205.511719 C 189.769531 205.511719 209.660156 205.707031 228.566406 205.90625 C 230.140625 205.511719 229.550781 203.933594 229.746094 202.949219 C 229.550781 200.585938 226.992188 201.175781 225.414063 200.785156 C 224.035156 200.390625 223.445313 198.8125 223.445313 197.433594 L 223.445313 158.4375 L 223.839844 147.210938 C 224.433594 143.46875 228.761719 146.621094 230.140625 143.664063 C 230.339844 142.484375 230.535156 140.710938 229.355469 140.121094 Z M 172.429688 174 L 157.265625 173.800781 L 156.671875 173.210938 C 159.234375 164.347656 161.792969 155.484375 164.949219 146.816406 C 165.148438 146.621094 165.539063 146.226563 165.734375 146.621094 C 168.296875 155.484375 170.855469 164.347656 173.023438 173.605469 Z M 287.457031 199.011719 C 283.914063 191.722656 280.761719 184.238281 277.015625 177.148438 C 275.835938 174.59375 273.082031 174.390625 271.699219 172.621094 C 275.835938 170.449219 280.175781 169.46875 283.519531 165.332031 C 286.671875 160.996094 288.050781 155.089844 285.683594 149.773438 C 283.914063 145.046875 278.988281 141.691406 274.066406 140.710938 C 260.867188 139.527344 248.460938 140.515625 235.066406 140.121094 C 234.28125 140.515625 233.09375 140.515625 232.898438 141.691406 C 231.128906 145.832031 236.246094 144.449219 238.019531 146.621094 C 239.203125 149.773438 238.808594 153.910156 239.003906 157.058594 L 238.609375 195.859375 L 238.214844 198.8125 C 237.230469 202.160156 232.503906 199.601563 232.308594 203.34375 C 232.503906 204.132813 232.503906 205.3125 233.488281 205.707031 L 259.683594 205.90625 L 260.671875 205.117188 C 262.839844 200.195313 256.730469 202.160156 255.550781 199.210938 C 253.972656 191.527344 254.761719 183.449219 254.957031 175.378906 C 254.957031 174.390625 255.941406 174.195313 256.730469 174 C 257.914063 174 259.09375 174.785156 259.683594 175.769531 C 263.820313 184.828125 267.5625 193.890625 271.699219 202.949219 C 274.453125 208.269531 281.550781 204.921875 286.476563 205.90625 C 288.050781 205.90625 290.019531 205.90625 291.007813 204.722656 C 292.777344 200.980469 288.441406 201.769531 287.457031 199.011719 Z M 266.382813 166.511719 C 263.820313 169.269531 259.683594 169.269531 256.140625 168.878906 L 255.15625 168.089844 L 255.351563 147.605469 C 255.550781 146.421875 256.730469 146.03125 257.714844 145.636719 C 261.460938 145.4375 265.992188 145.636719 267.367188 149.773438 C 269.730469 154.695313 269.53125 162.179688 266.382813 166.511719 "/>
<path style=" stroke:none;fill-rule:nonzero;fill:rgb(100%,100%,100%);fill-opacity:1;" d="M 82.894531 63.832031 C 76.789063 58.511719 64.578125 53.984375 66.742188 43.9375 C 68.320313 40.785156 71.667969 38.617188 75.214844 38.617188 C 83.089844 38.421875 91.359375 41.96875 94.910156 49.253906 C 95.5 50.632813 95.105469 52.605469 96.484375 53.589844 C 97.664063 53.785156 100.03125 54.570313 100.621094 52.800781 C 101.800781 48.664063 101.605469 44.136719 101.800781 39.800781 C 101.605469 38.222656 101.800781 36.453125 100.621094 35.273438 C 87.03125 31.726563 67.726563 28.96875 57.09375 40.390625 C 51.183594 46.105469 49.804688 55.757813 52.757813 63.238281 C 61.226563 76.238281 76 80.769531 86.441406 91.996094 C 89 94.953125 89.195313 99.679688 88.015625 103.222656 C 86.636719 106.964844 82.699219 108.542969 78.957031 108.933594 C 69.699219 109.328125 61.03125 102.828125 57.289063 94.753906 C 56.105469 92.984375 56.894531 90.421875 55.121094 89.042969 C 53.347656 89.238281 51.578125 89.042969 50.394531 90.421875 C 50.199219 97.117188 50.59375 103.617188 51.183594 110.117188 L 52.167969 111.296875 C 65.5625 115.632813 82.894531 117.40625 95.5 109.722656 C 101.800781 104.996094 104.953125 98.300781 105.148438 90.816406 C 106.53125 77.027344 91.359375 70.921875 82.894531 63.832031 Z M 376.960938 85.695313 C 376.5625 84.90625 375.976563 84.511719 375.1875 84.316406 C 365.730469 83.921875 357.261719 84.316406 347.613281 84.316406 L 345.644531 85.496094 C 344.460938 90.617188 351.15625 87.664063 352.339844 91.207031 C 353.519531 96.332031 352.929688 102.238281 352.339844 107.359375 C 351.550781 108.34375 350.566406 109.527344 349.191406 109.722656 C 344.855469 110.511719 340.714844 109.328125 337.960938 105.78125 C 333.234375 97.710938 332.835938 87.269531 332.644531 77.816406 C 333.035156 69.347656 333.824219 60.484375 340.128906 53.984375 C 346.234375 50.238281 352.929688 54.179688 358.25 57.332031 C 362.386719 59.105469 361.988281 63.238281 363.5625 66.390625 C 365.535156 67.574219 368.097656 66.785156 369.867188 65.605469 C 370.65625 60.285156 370.65625 54.96875 370.460938 49.648438 C 369.085938 48.46875 367.308594 49.058594 365.730469 49.453125 C 358.050781 49.058594 350.566406 47.089844 342.691406 47.285156 C 330.867188 46.496094 319.839844 53.390625 315.507813 64.027344 C 310.777344 76.433594 310.777344 93.769531 319.644531 104.210938 C 329.296875 116.8125 345.644531 116.421875 359.625 113.859375 C 363.960938 113.269531 368.292969 112.285156 372.035156 109.921875 C 373.21875 108.542969 371.839844 106.964844 371.050781 105.78125 C 371.050781 100.859375 370.261719 95.9375 371.050781 91.207031 C 371.839844 89.238281 374.007813 89.632813 375.773438 89.042969 C 377.15625 88.449219 377.351563 86.875 376.960938 85.695313 Z M 136.273438 112.875 C 136.46875 112.285156 136.664063 111.101563 136.074219 110.710938 C 133.316406 109.527344 129.378906 110.90625 127.210938 108.148438 C 125.632813 104.011719 126.027344 98.496094 126.425781 93.769531 C 126.425781 90.816406 126.027344 87.269531 127.40625 84.710938 L 136.863281 85.496094 C 144.9375 85.300781 153.015625 81.164063 156.359375 73.285156 C 158.527344 68.359375 158.527344 61.46875 155.96875 56.738281 C 152.816406 51.421875 146.910156 48.074219 140.804688 47.878906 C 128.980469 47.679688 117.164063 48.074219 104.953125 48.074219 C 103.96875 48.664063 104.167969 49.847656 104.167969 50.832031 C 104.953125 52.410156 106.921875 52.015625 108.5 52.207031 C 111.058594 53.785156 110.472656 57.136719 110.472656 59.695313 L 109.878906 96.332031 L 109.289063 107.160156 C 108.695313 110.117188 105.347656 109.136719 103.574219 110.710938 C 103.378906 111.695313 103.183594 113.269531 104.167969 113.664063 L 135.480469 113.859375 Z M 127.011719 54.570313 C 127.40625 53.785156 127.800781 52.800781 128.785156 52.605469 C 132.527344 52.410156 136.664063 52.605469 138.4375 56.347656 C 141.589844 62.453125 141.195313 71.511719 137.648438 77.421875 C 135.480469 80.375 131.742188 80.570313 128.589844 80.179688 C 127.800781 79.785156 127.011719 79.589844 126.816406 78.601563 C 126.617188 70.332031 127.011719 62.453125 127.011719 54.570313 Z M 312.554688 50.832031 C 312.160156 49.847656 311.566406 49.058594 310.582031 48.664063 L 297.585938 48.664063 C 295.023438 49.058594 291.671875 47.679688 290.296875 50.4375 C 289.113281 54.570313 294.433594 52.800781 295.613281 55.164063 C 298.566406 64.226563 296.796875 75.257813 297.1875 85.101563 C 296.796875 85.496094 296.597656 85.695313 296.207031 85.496094 L 278.476563 65.996094 L 263.3125 49.058594 C 256.8125 48.664063 250.308594 48.269531 244.207031 48.859375 C 243.023438 49.253906 242.828125 50.632813 243.023438 52.015625 C 243.414063 54.179688 245.976563 53.785156 247.554688 54.179688 C 249.722656 55.757813 249.523438 58.710938 249.722656 61.074219 L 250.113281 89.042969 C 249.722656 94.953125 250.308594 101.648438 248.539063 107.160156 C 248.144531 108.933594 245.976563 109.328125 244.597656 109.722656 C 243.414063 110.3125 243.222656 111.296875 243.222656 112.285156 C 243.414063 113.269531 244.207031 114.253906 245.191406 114.449219 C 251.296875 115.238281 256.8125 114.253906 263.3125 114.253906 C 264.296875 114.054688 265.082031 113.070313 264.886719 111.695313 C 264.492188 109.722656 261.738281 109.921875 260.355469 108.542969 C 257.203125 97.316406 258.585938 84.710938 258.78125 72.890625 C 258.78125 72.496094 259.371094 71.511719 260.160156 72.105469 L 279.855469 93.96875 L 289.507813 104.800781 C 294.035156 108.34375 296.402344 116.421875 303.296875 115.238281 C 304.476563 115.238281 305.265625 113.664063 305.460938 112.679688 L 305.660156 66.785156 C 305.855469 63.238281 306.253906 59.5 307.039063 56.148438 C 307.628906 54.179688 309.792969 54.375 311.367188 53.785156 C 312.355469 53.390625 312.75 52.015625 312.554688 50.832031 Z M 160.695313 53.785156 C 163.058594 54.769531 162.464844 57.722656 163.058594 59.695313 L 162.269531 101.648438 L 161.679688 107.753906 C 160.890625 109.921875 158.726563 109.722656 156.953125 110.117188 C 156.164063 110.511719 155.96875 111.496094 155.96875 112.285156 C 155.96875 113.269531 156.554688 113.859375 157.34375 114.253906 C 166.40625 113.664063 174.285156 114.648438 183.148438 113.859375 C 186.890625 109.136719 179.210938 111.296875 178.617188 107.953125 C 177.238281 100.269531 178.222656 91.800781 178.222656 83.921875 L 179.011719 82.933594 C 180.390625 82.542969 181.769531 82.933594 182.753906 84.117188 C 187.085938 93.375 190.4375 103.027344 194.769531 112.285156 C 195.359375 113.464844 196.738281 114.253906 197.917969 114.253906 C 212.101563 114.648438 224.90625 113.664063 238.890625 114.253906 C 240.070313 113.859375 240.265625 112.480469 239.871094 111.296875 C 239.28125 110.117188 237.511719 110.3125 236.328125 110.117188 C 232.191406 108.738281 234.554688 103.222656 233.964844 100.070313 L 234.359375 60.285156 L 234.949219 54.96875 C 236.128906 52.800781 238.890625 53.984375 240.070313 52.207031 C 240.265625 51.226563 240.265625 50.042969 239.480469 49.253906 L 238.492188 49.058594 C 230.8125 49.058594 221.355469 48.664063 213.285156 48.859375 C 211.902344 49.058594 212.101563 50.632813 212.101563 51.816406 C 212.886719 53.390625 214.859375 52.800781 216.238281 53.589844 C 218.601563 54.96875 217.617188 58.121094 218.210938 60.484375 L 217.8125 94.753906 L 217.417969 104.996094 C 217.027344 106.570313 217.417969 108.738281 215.449219 109.722656 C 214.070313 110.511719 212.691406 109.527344 211.511719 108.738281 C 207.570313 102.042969 204.617188 94.953125 201.464844 88.054688 L 199.300781 84.90625 C 197.722656 82.933594 195.164063 82.933594 193.585938 81.558594 C 198.511719 79.785156 203.632813 78.011719 207.179688 73.285156 C 209.539063 69.542969 210.527344 65.015625 209.148438 60.484375 C 207.179688 53.984375 200.480469 49.847656 194.375 49.453125 C 182.753906 49.058594 169.757813 49.253906 157.9375 49.253906 C 156.554688 49.648438 156.554688 51.421875 156.953125 52.605469 C 157.742188 53.984375 159.511719 53.195313 160.695313 53.785156 Z M 178.816406 55.757813 C 179.796875 52.605469 183.738281 54.769531 185.90625 54.375 C 187.679688 54.96875 190.042969 56.148438 190.4375 58.121094 C 193.390625 63.046875 192.996094 71.316406 189.847656 75.84375 C 186.890625 78.40625 182.558594 79.195313 178.816406 77.816406 L 178.421875 75.84375 Z M 224.847656 136.511719 C 215.386719 135.921875 207.117188 136.707031 197.464844 136.511719 C 196.089844 136.902344 196.089844 138.480469 196.089844 139.859375 C 196.875 141.4375 198.644531 141.039063 200.027344 141.632813 C 202.390625 142.421875 201.601563 144.980469 202.195313 146.753906 L 202.390625 179.050781 C 202.390625 184.964844 202.585938 190.28125 201.601563 195.601563 C 201.007813 196.78125 199.632813 196.976563 198.453125 196.585938 C 195.496094 195.402344 195.105469 192.054688 193.917969 189.6875 L 185.058594 160.542969 L 174.222656 123.902344 L 176.84375 122.527344 C 172.90625 121.738281 168.570313 122.722656 164.4375 123.316406 C 161.285156 125.679688 157.085938 129.8125 155.90625 133.355469 L 146.648438 161.132813 C 142.910156 172.160156 139.953125 183.1875 135.027344 193.632813 C 134.046875 195.992188 131.679688 196.191406 130.300781 197.964844 C 129.710938 199.144531 130.105469 200.71875 131.089844 201.703125 C 136.40625 202.6875 140.738281 201.507813 145.863281 202.101563 C 147.832031 201.902344 150.785156 202.886719 152.359375 201.113281 C 152.359375 200.328125 152.953125 199.339844 152.359375 198.355469 C 151.96875 196.976563 150.585938 196.78125 149.40625 196.585938 C 145.269531 195.207031 147.632813 190.085938 147.4375 186.933594 C 147.832031 183.78125 148.027344 180.433594 149.804688 178.070313 C 156.496094 177.675781 163.980469 177.875 170.089844 177.875 L 171.070313 178.660156 C 172.449219 182.796875 173.632813 187.132813 174.222656 191.859375 C 174.421875 197.175781 167.921875 195.402344 165.558594 198.160156 C 165.164063 199.539063 165.363281 201.113281 166.542969 201.902344 C 185.257813 201.902344 205.148438 202.101563 224.054688 202.296875 C 225.632813 201.902344 225.039063 200.328125 225.238281 199.339844 C 225.039063 196.976563 222.480469 197.566406 220.90625 197.175781 C 219.523438 196.78125 218.933594 195.207031 218.933594 193.824219 L 218.933594 154.828125 L 219.328125 143.601563 C 219.921875 139.859375 224.25 143.011719 225.632813 140.054688 C 225.828125 138.875 226.023438 137.101563 224.847656 136.511719 Z M 167.921875 170.390625 L 152.753906 170.191406 L 152.164063 169.601563 C 154.726563 160.738281 157.285156 151.875 160.4375 143.207031 C 160.636719 143.011719 161.027344 142.617188 161.226563 143.011719 C 163.785156 151.875 166.34375 160.738281 168.511719 169.996094 Z M 282.949219 195.402344 C 279.402344 188.113281 276.25 180.632813 272.507813 173.542969 C 271.324219 170.980469 268.570313 170.78125 267.191406 169.011719 C 271.324219 166.84375 275.660156 165.859375 279.007813 161.722656 C 282.160156 157.386719 283.539063 151.480469 281.171875 146.164063 C 279.402344 141.4375 274.476563 138.085938 269.554688 137.101563 C 256.355469 135.921875 243.949219 136.902344 230.554688 136.511719 C 229.769531 136.902344 228.582031 136.902344 228.390625 138.085938 C 226.617188 142.222656 231.738281 140.84375 233.511719 143.011719 C 234.691406 146.164063 234.296875 150.300781 234.492188 153.449219 L 234.101563 192.253906 L 233.703125 195.207031 C 232.71875 198.550781 227.992188 195.992188 227.800781 199.738281 C 227.992188 200.527344 227.992188 201.703125 228.980469 202.101563 L 255.171875 202.296875 L 256.160156 201.507813 C 258.328125 196.585938 252.21875 198.550781 251.039063 195.601563 C 249.460938 187.921875 250.25 179.84375 250.449219 171.765625 C 250.449219 170.78125 251.429688 170.585938 252.21875 170.390625 C 253.40625 170.390625 254.585938 171.175781 255.171875 172.160156 C 259.3125 181.21875 263.054688 190.28125 267.191406 199.339844 C 269.945313 204.660156 277.039063 201.3125 281.964844 202.296875 C 283.539063 202.296875 285.507813 202.296875 286.496094 201.113281 C 288.265625 197.371094 283.933594 198.160156 282.949219 195.402344 Z M 261.871094 162.902344 C 259.3125 165.660156 255.171875 165.660156 251.628906 165.265625 L 250.648438 164.480469 L 250.84375 143.996094 C 251.039063 142.8125 252.21875 142.421875 253.203125 142.027344 C 256.949219 141.828125 261.480469 142.027344 262.855469 146.164063 C 265.21875 151.085938 265.023438 158.570313 261.871094 162.902344 "/>
<path style="fill:none;stroke-width:45.0641;stroke-linecap:butt;stroke-linejoin:miter;stroke:rgb(1.998901%,20.799255%,47.799683%);stroke-opacity:1;stroke-miterlimit:3.8636;" d="M 828.945313 2344.079688 C 767.890625 2397.282813 645.78125 2442.55625 667.421875 2543.025 C 683.203125 2574.548438 716.679688 2596.228125 752.148438 2596.228125 C 830.898438 2598.18125 913.59375 2562.7125 949.101563 2489.860938 C 955 2476.071875 951.054688 2456.345313 964.84375 2446.501563 C 976.640625 2444.548438 1000.3125 2436.696875 1006.210938 2454.392188 C 1018.007813 2495.759375 1016.054688 2541.032813 1018.007813 2584.392188 C 1016.054688 2600.173438 1018.007813 2617.86875 1006.210938 2629.665625 C 870.3125 2665.134375 677.265625 2692.7125 570.9375 2578.49375 C 511.835938 2521.345313 498.046875 2424.821875 527.578125 2350.017188 C 612.265625 2220.017188 760 2174.704688 864.414063 2062.439063 C 890 2032.86875 891.953125 1985.603125 880.15625 1950.173438 C 866.367188 1912.751563 826.992188 1896.970313 789.570313 1893.064063 C 696.992188 1889.11875 610.3125 1954.11875 572.890625 2034.860938 C 561.054688 2052.55625 568.945313 2078.18125 551.210938 2091.970313 C 533.476563 2090.017188 515.78125 2091.970313 503.945313 2078.18125 C 501.992188 2011.228125 505.9375 1946.228125 511.835938 1881.228125 L 521.679688 1869.43125 C 655.625 1826.071875 828.945313 1808.3375 955 1885.173438 C 1018.007813 1932.439063 1049.53125 1999.392188 1051.484375 2074.235938 C 1065.3125 2212.126563 913.59375 2273.18125 828.945313 2344.079688 Z M 3769.609375 2125.446875 C 3765.625 2133.3375 3759.765625 2137.282813 3751.875 2139.235938 C 3657.304688 2143.18125 3572.617188 2139.235938 3476.132813 2139.235938 L 3456.445313 2127.439063 C 3444.609375 2076.228125 3511.5625 2105.759375 3523.398438 2070.329688 C 3535.195313 2019.079688 3529.296875 1960.017188 3523.398438 1908.80625 C 3515.507813 1898.9625 3505.664063 1887.126563 3491.914063 1885.173438 C 3448.554688 1877.282813 3407.148438 1889.11875 3379.609375 1924.5875 C 3332.34375 2005.290625 3328.359375 2109.704688 3326.445313 2204.235938 C 3330.351563 2288.923438 3338.242188 2377.55625 3401.289063 2442.55625 C 3462.34375 2480.017188 3529.296875 2440.603125 3582.5 2409.079688 C 3623.867188 2391.345313 3619.882813 2350.017188 3635.625 2318.49375 C 3655.351563 2306.657813 3680.976563 2314.548438 3698.671875 2326.345313 C 3706.5625 2379.548438 3706.5625 2432.7125 3704.609375 2485.915625 C 3690.859375 2497.7125 3673.085938 2491.814063 3657.304688 2487.86875 C 3580.507813 2491.814063 3505.664063 2511.501563 3426.914063 2509.548438 C 3308.671875 2517.439063 3198.398438 2448.49375 3155.078125 2342.126563 C 3107.773438 2218.064063 3107.773438 2044.704688 3196.445313 1940.290625 C 3292.96875 1814.275 3456.445313 1818.18125 3596.25 1843.80625 C 3639.609375 1849.704688 3682.929688 1859.548438 3720.351563 1883.18125 C 3732.1875 1896.970313 3718.398438 1912.751563 3710.507813 1924.5875 C 3710.507813 1973.80625 3702.617188 2023.025 3710.507813 2070.329688 C 3718.398438 2090.017188 3740.078125 2086.071875 3757.734375 2091.970313 C 3771.5625 2097.907813 3773.515625 2113.65 3769.609375 2125.446875 Z M 1362.734375 1853.65 C 1364.6875 1859.548438 1366.640625 1871.384375 1360.742188 1875.290625 C 1333.164063 1887.126563 1293.789063 1873.3375 1272.109375 1900.915625 C 1256.328125 1942.282813 1260.273438 1997.439063 1264.257813 2044.704688 C 1264.257813 2074.235938 1260.273438 2109.704688 1274.0625 2135.290625 L 1368.632813 2127.439063 C 1449.375 2129.392188 1530.15625 2170.759375 1563.59375 2249.548438 C 1585.273438 2298.80625 1585.273438 2367.7125 1559.6875 2415.017188 C 1528.164063 2468.18125 1469.101563 2501.657813 1408.046875 2503.610938 C 1289.804688 2505.603125 1171.640625 2501.657813 1049.53125 2501.657813 C 1039.6875 2495.759375 1041.679688 2483.923438 1041.679688 2474.079688 C 1049.53125 2458.298438 1069.21875 2462.24375 1085 2460.329688 C 1110.585938 2444.548438 1104.726563 2411.032813 1104.726563 2385.446875 L 1098.789063 2019.079688 L 1092.890625 1910.798438 C 1086.953125 1881.228125 1053.476563 1891.032813 1035.742188 1875.290625 C 1033.789063 1865.446875 1031.835938 1849.704688 1041.679688 1845.759375 L 1354.804688 1843.80625 Z M 1270.117188 2436.696875 C 1274.0625 2444.548438 1278.007813 2454.392188 1287.851563 2456.345313 C 1325.273438 2458.298438 1366.640625 2456.345313 1384.375 2418.923438 C 1415.898438 2357.86875 1411.953125 2267.282813 1376.484375 2208.18125 C 1354.804688 2178.65 1317.421875 2176.696875 1285.898438 2180.603125 C 1278.007813 2184.548438 1270.117188 2186.501563 1268.164063 2196.384375 C 1266.171875 2279.079688 1270.117188 2357.86875 1270.117188 2436.696875 Z M 3125.546875 2474.079688 C 3121.601563 2483.923438 3115.664063 2491.814063 3105.820313 2495.759375 L 2975.859375 2495.759375 C 2950.234375 2491.814063 2916.71875 2505.603125 2902.96875 2478.025 C 2891.132813 2436.696875 2944.335938 2454.392188 2956.132813 2430.759375 C 2985.664063 2340.134375 2967.96875 2229.821875 2971.875 2131.384375 C 2967.96875 2127.439063 2965.976563 2125.446875 2962.070313 2127.439063 L 2784.765625 2322.439063 L 2633.125 2491.814063 C 2568.125 2495.759375 2503.085938 2499.704688 2442.070313 2493.80625 C 2430.234375 2489.860938 2428.28125 2476.071875 2430.234375 2462.24375 C 2434.140625 2440.603125 2459.765625 2444.548438 2475.546875 2440.603125 C 2497.226563 2424.821875 2495.234375 2395.290625 2497.226563 2371.657813 L 2501.132813 2091.970313 C 2497.226563 2032.86875 2503.085938 1965.915625 2485.390625 1910.798438 C 2481.445313 1893.064063 2459.765625 1889.11875 2445.976563 1885.173438 C 2434.140625 1879.275 2432.226563 1869.43125 2432.226563 1859.548438 C 2434.140625 1849.704688 2442.070313 1839.860938 2451.914063 1837.907813 C 2512.96875 1830.017188 2568.125 1839.860938 2633.125 1839.860938 C 2642.96875 1841.853125 2650.820313 1851.696875 2648.867188 1865.446875 C 2644.921875 1885.173438 2617.382813 1883.18125 2603.554688 1896.970313 C 2572.03125 2009.235938 2585.859375 2135.290625 2587.8125 2253.49375 C 2587.8125 2257.439063 2593.710938 2267.282813 2601.601563 2261.345313 L 2798.554688 2042.7125 L 2895.078125 1934.392188 C 2940.351563 1898.9625 2964.023438 1818.18125 3032.96875 1830.017188 C 3044.765625 1830.017188 3052.65625 1845.759375 3054.609375 1855.603125 L 3056.601563 2314.548438 C 3058.554688 2350.017188 3062.539063 2387.4 3070.390625 2420.915625 C 3076.289063 2440.603125 3097.929688 2438.65 3113.671875 2444.548438 C 3123.554688 2448.49375 3127.5 2462.24375 3125.546875 2474.079688 Z M 1606.953125 2444.548438 C 1630.585938 2434.704688 1624.648438 2405.173438 1630.585938 2385.446875 L 1622.695313 1965.915625 L 1616.796875 1904.860938 C 1608.90625 1883.18125 1587.265625 1885.173438 1569.53125 1881.228125 C 1561.640625 1877.282813 1559.6875 1867.439063 1559.6875 1859.548438 C 1559.6875 1849.704688 1565.546875 1843.80625 1573.4375 1839.860938 C 1664.0625 1845.759375 1742.851563 1835.915625 1831.484375 1843.80625 C 1868.90625 1891.032813 1792.109375 1869.43125 1786.171875 1902.86875 C 1772.382813 1979.704688 1782.226563 2064.392188 1782.226563 2143.18125 L 1790.117188 2153.064063 C 1803.90625 2156.970313 1817.695313 2153.064063 1827.539063 2141.228125 C 1870.859375 2048.65 1904.375 1952.126563 1947.695313 1859.548438 C 1953.59375 1847.751563 1967.382813 1839.860938 1979.179688 1839.860938 C 2121.015625 1835.915625 2249.0625 1845.759375 2388.90625 1839.860938 C 2400.703125 1843.80625 2402.65625 1857.595313 2398.710938 1869.43125 C 2392.8125 1881.228125 2375.117188 1879.275 2363.28125 1881.228125 C 2321.914063 1895.017188 2345.546875 1950.173438 2339.648438 1981.696875 L 2343.59375 2379.548438 L 2349.492188 2432.7125 C 2361.289063 2454.392188 2388.90625 2442.55625 2400.703125 2460.329688 C 2402.65625 2470.134375 2402.65625 2481.970313 2394.804688 2489.860938 L 2384.921875 2491.814063 C 2308.125 2491.814063 2213.554688 2495.759375 2132.851563 2493.80625 C 2119.023438 2491.814063 2121.015625 2476.071875 2121.015625 2464.235938 C 2128.867188 2448.49375 2148.59375 2454.392188 2162.382813 2446.501563 C 2186.015625 2432.7125 2176.171875 2401.189063 2182.109375 2377.55625 L 2178.125 2034.860938 L 2174.179688 1932.439063 C 2170.273438 1916.696875 2174.179688 1895.017188 2154.492188 1885.173438 C 2140.703125 1877.282813 2126.914063 1887.126563 2115.117188 1895.017188 C 2075.703125 1961.970313 2046.171875 2032.86875 2014.648438 2101.853125 L 1993.007813 2133.3375 C 1977.226563 2153.064063 1951.640625 2153.064063 1935.859375 2166.814063 C 1985.117188 2184.548438 2036.328125 2202.282813 2071.796875 2249.548438 C 2095.390625 2286.970313 2105.273438 2332.24375 2091.484375 2377.55625 C 2071.796875 2442.55625 2004.804688 2483.923438 1943.75 2487.86875 C 1827.539063 2491.814063 1697.578125 2489.860938 1579.375 2489.860938 C 1565.546875 2485.915625 1565.546875 2468.18125 1569.53125 2456.345313 C 1577.421875 2442.55625 1595.117188 2450.446875 1606.953125 2444.548438 Z M 1788.164063 2424.821875 C 1797.96875 2456.345313 1837.382813 2434.704688 1859.0625 2438.65 C 1876.796875 2432.7125 1900.429688 2420.915625 1904.375 2401.189063 C 1933.90625 2351.93125 1929.960938 2269.235938 1898.476563 2223.9625 C 1868.90625 2198.3375 1825.585938 2190.446875 1788.164063 2204.235938 L 1784.21875 2223.9625 Z M 2248.476563 1617.282813 C 2153.867188 1623.18125 2071.171875 1615.329688 1974.648438 1617.282813 C 1960.898438 1613.376563 1960.898438 1597.595313 1960.898438 1583.80625 C 1968.75 1568.025 1986.445313 1572.009375 2000.273438 1566.071875 C 2023.90625 1558.18125 2016.015625 1532.595313 2021.953125 1514.860938 L 2023.90625 1191.892188 C 2023.90625 1132.751563 2025.859375 1079.5875 2016.015625 1026.384375 C 2010.078125 1014.5875 1996.328125 1012.634375 1984.53125 1016.540625 C 1954.960938 1028.376563 1951.054688 1061.853125 1939.179688 1085.525 L 1850.585938 1376.970313 L 1742.226563 1743.376563 L 1768.4375 1757.126563 C 1729.0625 1765.017188 1685.703125 1755.173438 1644.375 1749.235938 C 1612.851563 1725.603125 1570.859375 1684.275 1559.0625 1648.845313 L 1466.484375 1371.071875 C 1429.101563 1260.798438 1399.53125 1150.525 1350.273438 1046.071875 C 1340.46875 1022.478125 1316.796875 1020.485938 1303.007813 1002.751563 C 1297.109375 990.954688 1301.054688 975.2125 1310.898438 965.36875 C 1364.0625 955.525 1407.382813 967.321875 1458.632813 961.384375 C 1478.320313 963.376563 1507.851563 953.532813 1523.59375 971.267188 C 1523.59375 979.11875 1529.53125 989.001563 1523.59375 998.845313 C 1519.6875 1012.634375 1505.859375 1014.5875 1494.0625 1016.540625 C 1452.695313 1030.329688 1476.328125 1081.540625 1474.375 1113.064063 C 1478.320313 1144.5875 1480.273438 1178.064063 1498.046875 1201.696875 C 1564.960938 1205.642188 1639.804688 1203.65 1700.898438 1203.65 L 1710.703125 1195.798438 C 1724.492188 1154.43125 1736.328125 1111.071875 1742.226563 1063.80625 C 1744.21875 1010.642188 1679.21875 1028.376563 1655.585938 1000.798438 C 1651.640625 987.009375 1653.632813 971.267188 1665.429688 963.376563 C 1852.578125 963.376563 2051.484375 961.384375 2240.546875 959.43125 C 2256.328125 963.376563 2250.390625 979.11875 2252.382813 989.001563 C 2250.390625 1012.634375 2224.804688 1006.735938 2209.0625 1010.642188 C 2195.234375 1014.5875 2189.335938 1030.329688 2189.335938 1044.157813 L 2189.335938 1434.11875 L 2193.28125 1546.384375 C 2199.21875 1583.80625 2242.5 1552.282813 2256.328125 1581.853125 C 2258.28125 1593.65 2260.234375 1611.384375 2248.476563 1617.282813 Z M 1679.21875 1278.49375 L 1527.539063 1280.485938 L 1521.640625 1286.384375 C 1547.265625 1375.017188 1572.851563 1463.65 1604.375 1550.329688 C 1606.367188 1552.282813 1610.273438 1556.228125 1612.265625 1552.282813 C 1637.851563 1463.65 1663.4375 1375.017188 1685.117188 1282.439063 Z M 2829.492188 1028.376563 C 2794.023438 1101.267188 2762.5 1176.071875 2725.078125 1246.970313 C 2713.242188 1272.595313 2685.703125 1274.5875 2671.914063 1292.282813 C 2713.242188 1313.9625 2756.601563 1323.80625 2790.078125 1365.173438 C 2821.601563 1408.532813 2835.390625 1467.595313 2811.71875 1520.759375 C 2794.023438 1568.025 2744.765625 1601.540625 2695.546875 1611.384375 C 2563.554688 1623.18125 2439.492188 1613.376563 2305.546875 1617.282813 C 2297.695313 1613.376563 2285.820313 1613.376563 2283.90625 1601.540625 C 2266.171875 1560.173438 2317.382813 1573.9625 2335.117188 1552.282813 C 2346.914063 1520.759375 2342.96875 1479.392188 2344.921875 1447.907813 L 2341.015625 1059.860938 L 2337.03125 1030.329688 C 2327.1875 996.892188 2279.921875 1022.478125 2278.007813 985.017188 C 2279.921875 977.126563 2279.921875 965.36875 2289.804688 961.384375 L 2551.71875 959.43125 L 2561.601563 967.321875 C 2583.28125 1016.540625 2522.1875 996.892188 2510.390625 1026.384375 C 2494.609375 1103.18125 2502.5 1183.9625 2504.492188 1264.74375 C 2504.492188 1274.5875 2514.296875 1276.540625 2522.1875 1278.49375 C 2534.0625 1278.49375 2545.859375 1270.642188 2551.71875 1260.798438 C 2593.125 1170.2125 2630.546875 1079.5875 2671.914063 989.001563 C 2699.453125 935.798438 2770.390625 969.275 2819.648438 959.43125 C 2835.390625 959.43125 2855.078125 959.43125 2864.960938 971.267188 C 2882.65625 1008.689063 2839.335938 1000.798438 2829.492188 1028.376563 Z M 2618.710938 1353.376563 C 2593.125 1325.798438 2551.71875 1325.798438 2516.289063 1329.74375 L 2506.484375 1337.595313 L 2508.4375 1542.439063 C 2510.390625 1554.275 2522.1875 1558.18125 2532.03125 1562.126563 C 2569.492188 1564.11875 2614.804688 1562.126563 2628.554688 1520.759375 C 2652.1875 1471.540625 2650.234375 1396.696875 2618.710938 1353.376563 Z M 2618.710938 1353.376563 " transform="matrix(0.1,0,0,-0.1,0,298.24)"/>
<path style=" stroke:none;fill-rule:nonzero;fill:rgb(100%,100%,100%);fill-opacity:1;" d="M 82.894531 63.832031 C 76.789063 58.511719 64.578125 53.984375 66.742188 43.9375 C 68.320313 40.785156 71.667969 38.617188 75.214844 38.617188 C 83.089844 38.421875 91.359375 41.96875 94.910156 49.253906 C 95.5 50.632813 95.105469 52.605469 96.484375 53.589844 C 97.664063 53.785156 100.03125 54.570313 100.621094 52.800781 C 101.800781 48.664063 101.605469 44.136719 101.800781 39.800781 C 101.605469 38.222656 101.800781 36.453125 100.621094 35.273438 C 87.03125 31.726563 67.726563 28.96875 57.09375 40.390625 C 51.183594 46.105469 49.804688 55.757813 52.757813 63.238281 C 61.226563 76.238281 76 80.769531 86.441406 91.996094 C 89 94.953125 89.195313 99.679688 88.015625 103.222656 C 86.636719 106.964844 82.699219 108.542969 78.957031 108.933594 C 69.699219 109.328125 61.03125 102.828125 57.289063 94.753906 C 56.105469 92.984375 56.894531 90.421875 55.121094 89.042969 C 53.347656 89.238281 51.578125 89.042969 50.394531 90.421875 C 50.199219 97.117188 50.59375 103.617188 51.183594 110.117188 L 52.167969 111.296875 C 65.5625 115.632813 82.894531 117.40625 95.5 109.722656 C 101.800781 104.996094 104.953125 98.300781 105.148438 90.816406 C 106.53125 77.027344 91.359375 70.921875 82.894531 63.832031 Z M 376.960938 85.695313 C 376.5625 84.90625 375.976563 84.511719 375.1875 84.316406 C 365.730469 83.921875 357.261719 84.316406 347.613281 84.316406 L 345.644531 85.496094 C 344.460938 90.617188 351.15625 87.664063 352.339844 91.207031 C 353.519531 96.332031 352.929688 102.238281 352.339844 107.359375 C 351.550781 108.34375 350.566406 109.527344 349.191406 109.722656 C 344.855469 110.511719 340.714844 109.328125 337.960938 105.78125 C 333.234375 97.710938 332.835938 87.269531 332.644531 77.816406 C 333.035156 69.347656 333.824219 60.484375 340.128906 53.984375 C 346.234375 50.238281 352.929688 54.179688 358.25 57.332031 C 362.386719 59.105469 361.988281 63.238281 363.5625 66.390625 C 365.535156 67.574219 368.097656 66.785156 369.867188 65.605469 C 370.65625 60.285156 370.65625 54.96875 370.460938 49.648438 C 369.085938 48.46875 367.308594 49.058594 365.730469 49.453125 C 358.050781 49.058594 350.566406 47.089844 342.691406 47.285156 C 330.867188 46.496094 319.839844 53.390625 315.507813 64.027344 C 310.777344 76.433594 310.777344 93.769531 319.644531 104.210938 C 329.296875 116.8125 345.644531 116.421875 359.625 113.859375 C 363.960938 113.269531 368.292969 112.285156 372.035156 109.921875 C 373.21875 108.542969 371.839844 106.964844 371.050781 105.78125 C 371.050781 100.859375 370.261719 95.9375 371.050781 91.207031 C 371.839844 89.238281 374.007813 89.632813 375.773438 89.042969 C 377.15625 88.449219 377.351563 86.875 376.960938 85.695313 Z M 136.273438 112.875 C 136.46875 112.285156 136.664063 111.101563 136.074219 110.710938 C 133.316406 109.527344 129.378906 110.90625 127.210938 108.148438 C 125.632813 104.011719 126.027344 98.496094 126.425781 93.769531 C 126.425781 90.816406 126.027344 87.269531 127.40625 84.710938 L 136.863281 85.496094 C 144.9375 85.300781 153.015625 81.164063 156.359375 73.285156 C 158.527344 68.359375 158.527344 61.46875 155.96875 56.738281 C 152.816406 51.421875 146.910156 48.074219 140.804688 47.878906 C 128.980469 47.679688 117.164063 48.074219 104.953125 48.074219 C 103.96875 48.664063 104.167969 49.847656 104.167969 50.832031 C 104.953125 52.410156 106.921875 52.015625 108.5 52.207031 C 111.058594 53.785156 110.472656 57.136719 110.472656 59.695313 L 109.878906 96.332031 L 109.289063 107.160156 C 108.695313 110.117188 105.347656 109.136719 103.574219 110.710938 C 103.378906 111.695313 103.183594 113.269531 104.167969 113.664063 L 135.480469 113.859375 Z M 127.011719 54.570313 C 127.40625 53.785156 127.800781 52.800781 128.785156 52.605469 C 132.527344 52.410156 136.664063 52.605469 138.4375 56.347656 C 141.589844 62.453125 141.195313 71.511719 137.648438 77.421875 C 135.480469 80.375 131.742188 80.570313 128.589844 80.179688 C 127.800781 79.785156 127.011719 79.589844 126.816406 78.601563 C 126.617188 70.332031 127.011719 62.453125 127.011719 54.570313 Z M 312.554688 50.832031 C 312.160156 49.847656 311.566406 49.058594 310.582031 48.664063 L 297.585938 48.664063 C 295.023438 49.058594 291.671875 47.679688 290.296875 50.4375 C 289.113281 54.570313 294.433594 52.800781 295.613281 55.164063 C 298.566406 64.226563 296.796875 75.257813 297.1875 85.101563 C 296.796875 85.496094 296.597656 85.695313 296.207031 85.496094 L 278.476563 65.996094 L 263.3125 49.058594 C 256.8125 48.664063 250.308594 48.269531 244.207031 48.859375 C 243.023438 49.253906 242.828125 50.632813 243.023438 52.015625 C 243.414063 54.179688 245.976563 53.785156 247.554688 54.179688 C 249.722656 55.757813 249.523438 58.710938 249.722656 61.074219 L 250.113281 89.042969 C 249.722656 94.953125 250.308594 101.648438 248.539063 107.160156 C 248.144531 108.933594 245.976563 109.328125 244.597656 109.722656 C 243.414063 110.3125 243.222656 111.296875 243.222656 112.285156 C 243.414063 113.269531 244.207031 114.253906 245.191406 114.449219 C 251.296875 115.238281 256.8125 114.253906 263.3125 114.253906 C 264.296875 114.054688 265.082031 113.070313 264.886719 111.695313 C 264.492188 109.722656 261.738281 109.921875 260.355469 108.542969 C 257.203125 97.316406 258.585938 84.710938 258.78125 72.890625 C 258.78125 72.496094 259.371094 71.511719 260.160156 72.105469 L 279.855469 93.96875 L 289.507813 104.800781 C 294.035156 108.34375 296.402344 116.421875 303.296875 115.238281 C 304.476563 115.238281 305.265625 113.664063 305.460938 112.679688 L 305.660156 66.785156 C 305.855469 63.238281 306.253906 59.5 307.039063 56.148438 C 307.628906 54.179688 309.792969 54.375 311.367188 53.785156 C 312.355469 53.390625 312.75 52.015625 312.554688 50.832031 Z M 160.695313 53.785156 C 163.058594 54.769531 162.464844 57.722656 163.058594 59.695313 L 162.269531 101.648438 L 161.679688 107.753906 C 160.890625 109.921875 158.726563 109.722656 156.953125 110.117188 C 156.164063 110.511719 155.96875 111.496094 155.96875 112.285156 C 155.96875 113.269531 156.554688 113.859375 157.34375 114.253906 C 166.40625 113.664063 174.285156 114.648438 183.148438 113.859375 C 186.890625 109.136719 179.210938 111.296875 178.617188 107.953125 C 177.238281 100.269531 178.222656 91.800781 178.222656 83.921875 L 179.011719 82.933594 C 180.390625 82.542969 181.769531 82.933594 182.753906 84.117188 C 187.085938 93.375 190.4375 103.027344 194.769531 112.285156 C 195.359375 113.464844 196.738281 114.253906 197.917969 114.253906 C 212.101563 114.648438 224.90625 113.664063 238.890625 114.253906 C 240.070313 113.859375 240.265625 112.480469 239.871094 111.296875 C 239.28125 110.117188 237.511719 110.3125 236.328125 110.117188 C 232.191406 108.738281 234.554688 103.222656 233.964844 100.070313 L 234.359375 60.285156 L 234.949219 54.96875 C 236.128906 52.800781 238.890625 53.984375 240.070313 52.207031 C 240.265625 51.226563 240.265625 50.042969 239.480469 49.253906 L 238.492188 49.058594 C 230.8125 49.058594 221.355469 48.664063 213.285156 48.859375 C 211.902344 49.058594 212.101563 50.632813 212.101563 51.816406 C 212.886719 53.390625 214.859375 52.800781 216.238281 53.589844 C 218.601563 54.96875 217.617188 58.121094 218.210938 60.484375 L 217.8125 94.753906 L 217.417969 104.996094 C 217.027344 106.570313 217.417969 108.738281 215.449219 109.722656 C 214.070313 110.511719 212.691406 109.527344 211.511719 108.738281 C 207.570313 102.042969 204.617188 94.953125 201.464844 88.054688 L 199.300781 84.90625 C 197.722656 82.933594 195.164063 82.933594 193.585938 81.558594 C 198.511719 79.785156 203.632813 78.011719 207.179688 73.285156 C 209.539063 69.542969 210.527344 65.015625 209.148438 60.484375 C 207.179688 53.984375 200.480469 49.847656 194.375 49.453125 C 182.753906 49.058594 169.757813 49.253906 157.9375 49.253906 C 156.554688 49.648438 156.554688 51.421875 156.953125 52.605469 C 157.742188 53.984375 159.511719 53.195313 160.695313 53.785156 Z M 178.816406 55.757813 C 179.796875 52.605469 183.738281 54.769531 185.90625 54.375 C 187.679688 54.96875 190.042969 56.148438 190.4375 58.121094 C 193.390625 63.046875 192.996094 71.316406 189.847656 75.84375 C 186.890625 78.40625 182.558594 79.195313 178.816406 77.816406 L 178.421875 75.84375 Z M 224.847656 136.511719 C 215.386719 135.921875 207.117188 136.707031 197.464844 136.511719 C 196.089844 136.902344 196.089844 138.480469 196.089844 139.859375 C 196.875 141.4375 198.644531 141.039063 200.027344 141.632813 C 202.390625 142.421875 201.601563 144.980469 202.195313 146.753906 L 202.390625 179.050781 C 202.390625 184.964844 202.585938 190.28125 201.601563 195.601563 C 201.007813 196.78125 199.632813 196.976563 198.453125 196.585938 C 195.496094 195.402344 195.105469 192.054688 193.917969 189.6875 L 185.058594 160.542969 L 174.222656 123.902344 L 172.84375 122.527344 C 168.90625 121.738281 164.570313 122.722656 160.4375 123.316406 C 157.285156 125.679688 157.085938 129.8125 155.90625 133.355469 L 146.648438 161.132813 C 142.910156 172.160156 139.953125 183.1875 135.027344 193.632813 C 134.046875 195.992188 131.679688 196.191406 130.300781 197.964844 C 129.710938 199.144531 130.105469 200.71875 131.089844 201.703125 C 136.40625 202.6875 140.738281 201.507813 145.863281 202.101563 C 147.832031 201.902344 150.785156 202.886719 152.359375 201.113281 C 152.359375 200.328125 152.953125 199.339844 152.359375 198.355469 C 151.96875 196.976563 150.585938 196.78125 149.40625 196.585938 C 145.269531 195.207031 147.632813 190.085938 147.4375 186.933594 C 147.832031 183.78125 148.027344 180.433594 149.804688 178.070313 C 156.496094 177.675781 163.980469 177.875 170.089844 177.875 L 171.070313 178.660156 C 172.449219 182.796875 173.632813 187.132813 174.222656 191.859375 C 174.421875 197.175781 167.921875 195.402344 165.558594 198.160156 C 165.164063 199.539063 165.363281 201.113281 166.542969 201.902344 C 185.257813 201.902344 205.148438 202.101563 224.054688 202.296875 C 225.632813 201.902344 225.039063 200.328125 225.238281 199.339844 C 225.039063 196.976563 222.480469 197.566406 220.90625 197.175781 C 219.523438 196.78125 218.933594 195.207031 218.933594 193.824219 L 218.933594 154.828125 L 219.328125 143.601563 C 219.921875 139.859375 224.25 143.011719 225.632813 140.054688 C 225.828125 138.875 226.023438 137.101563 224.847656 136.511719 Z M 167.921875 170.390625 L 152.753906 170.191406 L 152.164063 169.601563 C 154.726563 160.738281 157.285156 151.875 160.4375 143.207031 C 160.636719 143.011719 161.027344 142.617188 161.226563 143.011719 C 163.785156 151.875 166.34375 160.738281 168.511719 169.996094 Z M 282.949219 195.402344 C 279.402344 188.113281 276.25 180.632813 272.507813 173.542969 C 271.324219 170.980469 268.570313 170.78125 267.191406 169.011719 C 271.324219 166.84375 275.660156 165.859375 279.007813 161.722656 C 282.160156 157.386719 283.539063 151.480469 281.171875 146.164063 C 279.402344 141.4375 274.476563 138.085938 269.554688 137.101563 C 256.355469 135.921875 243.949219 136.902344 230.554688 136.511719 C 229.769531 136.902344 228.582031 136.902344 228.390625 138.085938 C 226.617188 142.222656 231.738281 140.84375 233.511719 143.011719 C 234.691406 146.164063 234.296875 150.300781 234.492188 153.449219 L 234.101563 192.253906 L 233.703125 195.207031 C 232.71875 198.550781 227.992188 195.992188 227.800781 199.738281 C 227.992188 200.527344 227.992188 201.703125 228.980469 202.101563 L 255.171875 202.296875 L 256.160156 201.507813 C 258.328125 196.585938 252.21875 198.550781 251.039063 195.601563 C 249.460938 187.921875 250.25 179.84375 250.449219 171.765625 C 250.449219 170.78125 251.429688 170.585938 252.21875 170.390625 C 253.40625 170.390625 254.585938 171.175781 255.171875 172.160156 C 259.3125 181.21875 263.054688 190.28125 267.191406 199.339844 C 269.945313 204.660156 277.039063 201.3125 281.964844 202.296875 C 283.539063 202.296875 285.507813 202.296875 286.496094 201.113281 C 288.265625 197.371094 283.933594 198.160156 282.949219 195.402344 Z M 261.871094 162.902344 C 259.3125 165.660156 255.171875 165.660156 251.628906 165.265625 L 250.648438 164.480469 L 250.84375 143.996094 C 251.039063 142.8125 252.21875 142.421875 253.203125 142.027344 C 256.949219 141.828125 261.480469 142.027344 262.855469 146.164063 C 265.21875 151.085938 265.023438 158.570313 261.871094 162.902344 "/>
<path style=" stroke:none;fill-rule:nonzero;fill:rgb(100%,100%,100%);fill-opacity:1;" d="M 293.910156 198.425781 C 293.910156 194.339844 297.15625 191.09375 301.261719 191.09375 C 305.363281 191.09375 308.613281 194.339844 308.613281 198.425781 C 308.613281 202.511719 305.363281 205.757813 301.261719 205.757813 C 297.15625 205.757813 293.910156 202.511719 293.910156 198.425781 Z M 295.105469 198.425781 C 295.105469 201.878906 297.902344 204.566406 301.261719 204.566406 C 304.621094 204.566406 307.417969 201.878906 307.417969 198.425781 C 307.417969 194.957031 304.621094 192.285156 301.261719 192.285156 C 297.902344 192.285156 295.105469 194.957031 295.105469 198.425781 Z M 304.621094 202.605469 L 303.257813 202.605469 L 301.152344 198.796875 L 299.617188 198.796875 L 299.617188 202.605469 L 298.421875 202.605469 L 298.421875 194.359375 L 301.894531 194.359375 C 303.386719 194.359375 304.734375 194.808594 304.734375 196.542969 C 304.734375 198.164063 303.628906 198.761719 302.53125 198.796875 Z M 299.617188 195.554688 L 299.617188 197.605469 L 300.886719 197.605469 C 302.007813 197.605469 303.539063 197.789063 303.539063 196.671875 C 303.539063 195.628906 302.660156 195.554688 301.671875 195.554688 L 299.617188 195.554688 "/>
</g>
</svg>
