<?xml version="1.0" encoding="utf-8"?>
<!-- Generator: Adobe Illustrator 19.0.0, SVG Export Plug-In . SVG Version: 6.00 Build 0)  -->
<svg version="1.1" id="layer" xmlns="http://www.w3.org/2000/svg" xmlns:xlink="http://www.w3.org/1999/xlink" x="0px" y="0px"
	 viewBox="-153 -46 652 652" style="enable-background:new -153 -46 652 652;" xml:space="preserve">
<style type="text/css">
	.st0{fill:#004990;}
</style>
<path class="st0" d="M-27.2,211.8c-9.5-6.2-22-0.8-34.3,4.3c-10.3,4.3-20,8.4-27.1,5.7c-17.5-6.9-29.2-7.4-34.7-1.7
	c-2,2.1-3,5.1-3,8.8c0,3.6,0.9,9.5,2.9,13.8l0,0l0,0l0,0c0.1,0.3,0.4,0.4,0.7,0.3s0.4-0.4,0.4-0.7c-2.4-6.5-2-13.8,1.2-16.9
	c3.6-3.4,12.1-5.9,33.3,2c9,3.4,18.7-1.3,28.2-5.9c10.5-5.1,20.4-9.9,28.7-3.7c9.6,7.2,8.8,13.6,3.8,24.4c-0.1,0.3,0,0.5,0.1,0.7
	c0.3,0.1,0.5,0.1,0.7,0l0.4-0.4l0.1-0.1C-18.8,228.6-16.6,218.7-27.2,211.8 M26,207.7L26,207.7c0,0.4,0.1,0.7,0.4,0.7l0.9,0.3
	c0.1,0,0.1,0,0.3,0c21.7,5.8,50.5,4.2,58.9,3.6c12.3-0.9,27.1-0.1,35,1.1c0.3,0,0.5-0.1,0.5-0.5l0,0c0-0.3-0.1-0.5-0.4-0.5
	c-6.9-1.1-30-4.5-43-3.4c-11.9,0.9-28.1,0.5-51-1.1c-0.4-0.1-0.8-0.1-1.2-0.3l0,0C26.3,207.1,26,207.3,26,207.7 M447.5,226.2
	c-2.1-2.1-5.1-1.6-7.6-1.2c-1.6,0.3-3,0.4-3.6,0c-8.3-6.9-12-4.3-17.1-0.9c-0.7,0.4-1.3,0.9-2,1.3c-0.9,0.4-2,0.9-3,1.4
	c-2,0.9-4.2,1.8-6.6,2.8c-3.4,0.8-7.5,1.2-12.6,0.7c-8.7-0.8-19.5-5.9-31-11.3c-16.6-7.9-35.4-16.9-54-15.8
	c-30.8,1.8-41.6-1.1-72.7-18.8c-40.1-22.9-61.9-30.3-94.2-16.5c-0.5,0.3-0.9,0.4-1.4,0.5c-1.7,0.7-3.4,1.2-5.3,2
	c-0.9,0.4-1.8,0.7-2.8,1.1c-23.6,8-35.4,2.8-59.8-8.4l-19.1-8.4c-40.4-17.1-52.7-10.3-62.2,9.4c-6.1,12.5-11.9,20.6-17.8,24.5
	c-3.3-7.5-11.3-13-17.7-14.6c-6.7-1.6-10.7-3.7-14.6-5.7c-2.4-1.2-4.6-2.4-7.4-3.3c-1.8-1.2-4.1-2.2-6.7-3.2
	c-11.3-3.8-24.2-1.8-32.9,4.7c-7.2,5.5-10.9,14-10.3,23.6c0.8,13.2,9.4,21.5,9.5,21.6c0.3,0.3,0.5,0.3,0.8,0c0.3-0.1,0.3-0.5,0-0.8
	c-3.8-4.9-6.5-9.7-7-17.7c-0.7-8.4,1.8-15.4,7.4-20.4c6.6-6.1,17.5-9,27.7-7.4c12.6,2,15.9,11.3,19,20.4c3.6,10,7.1,20.4,23.8,19.2
	c9.5-0.7,17.8,4.1,21.3,12.1c3.7,8.3,1.1,17.8-7.1,25.4c-0.3,0.1-0.3,0.5,0,0.8c0.1,0.3,0.5,0.3,0.8,0l3.2-2.8
	c7.5-8.4,9.7-18.8,5.8-27.3c-3.6-7.6-11.3-12-20.8-11.7c-17.1,0.5-19.6-7.9-22.4-17.5c-1.3-4.3-2.6-9-5.5-13c3.4,2.1,7.4,4.5,14,6.1
	c5.5,1.3,12.6,6.3,16.1,12.9c-0.8,0.3-1.4,0.5-2.2,0.8c-4.2,1.1-8.6-0.1-13.3-3.4c-0.4-0.3-0.8-0.5-1.2-0.8
	c-0.3-0.1-0.5-0.1-0.8,0.1c0,0.1-0.1,0.3-0.1,0.3c0,0.1,0,0.3,0.3,0.4l0,0l0.8,0.7c0.1,0.1,0.3,0.1,0.4,0.1
	c4.1,2.8,9.7,5.8,16.1,4.2c7.8-2,14.9-10,22-24.6c8.8-18.3,16.6-24.2,57.8-8c8.7,3.4,15.8,6.6,22.1,9.4
	c23.1,10.3,33.2,14.5,60.6,3.3c2.4-0.8,5-1.8,7.6-2.9c29.2-10.5,53.9-1.4,92.8,20.9c23.6,13.6,38.1,14.4,56.4,15.3
	c6.2,0.4,12.8,0.7,20.3,1.6c20.7,2.4,35.3,9.5,48.2,15.8c0,0,0,0,0.1,0c-34.7-11.7-50.3-8.6-64.4-5.8c-8.8,1.7-16.6,3.3-27.8,0.8
	c-47.7-10.8-65.9-7.4-76.7-5.5v-0.9c2.8-3.2,3.8-7.6,3.3-13c-0.4-3.7-1.6-7.9-3.7-12.3c-0.1-0.1-0.3-0.3-0.5-0.3h-0.1
	c-0.1,0.1-0.3,0.3-0.3,0.5v0.1c1.3,2.8,2,5.5,2.2,8c0.9,8.8-3.4,15.9-9.1,19.4c-0.1,0.1-0.3,0.3-0.3,0.5c0,0.1,0.1,0.4,0.3,0.4
	c2,0.7,4,2.8,5.3,5.8c0.9,2,1.6,4.3,1.8,7.1c0.4,4.1,0,9-2,13.8c0,0,0,0.1,0,0.3c0,0.1,0.1,0.3,0.3,0.4c0.3,0.1,0.5,0,0.7-0.1
	c0,0,0-0.1,0.1-0.1l0,0l0,0c3.6-4.7,4.9-12.4,4.1-18.3c-0.1-1.2-0.4-2.4-0.7-3.4c-0.4-1.4-0.9-2.6-1.4-3.6l0,0l1.3-0.3l0,0
	c10.7-2,26.9-5,75.8,4.1c11.2,2.1,19,1.2,27.9,0c15.5-1.8,34.9-4.2,82.2,10.3l0,0c3.2,1.1,6.5,1.7,9.7,2c9,0.8,15.2-0.7,20.3-2.6
	c3.8-0.9,6.9-2.5,9.2-4c5.4-2.5,9.9-3.3,16.7,2.2c1.1,0.8,2.8,0.5,4.9,0.3c2.6-0.4,5.7-0.9,7.5,0.8c2.4,1.7,1.4,9,1.2,12.6
	c0,0.3,0.3,0.5,0.5,0.5c0.3,0,0.5-0.3,0.5-0.5v-0.1l0,0c0.1-1.6,0.9-8,0.9-9.2C449.6,229.9,448.9,227.6,447.5,226.2 M-97.7,274.2
	h-24.9v-20h76.7v20h-24.9v81h-26.9V274.2z M-38.3,254.2h71.1v19.1h-44.3v20.8h41.9v19.1h-41.9v22.9h45.8v19.1h-72.7V254.2z
	 M44.3,254.2h42.4l21.3,67.2h0.4l22.4-67.2h40.8v101.1h-26.4l0.4-77.6h-0.3l-25.8,77.6H95l-24.6-77.6h-0.3l0.5,77.6H44.3V254.2z
	 M186.3,254.2h32.1c30.8,0,45.3,10.4,45.3,33.1c0,20.4-14.9,32.5-40.1,32.5h-10.4v35.3h-26.9V254.2H186.3z M213.2,300.8h7
	c9.2,0,16.6-3.3,16.6-13.8c0-10.3-7.4-13.6-16.6-13.6h-7V300.8z M360.4,316.9c0,27.7-17.9,40.1-44.3,40.1s-44.3-12.4-44.3-40.1
	v-62.7h26.9v58.1c0,13.3,3.6,24.6,17.4,24.6c13.7,0,17.4-11.3,17.4-24.6v-58.1h26.9V316.9z M371.2,254.2h48.1
	c17.9,0,32.5,8,32.5,25.4c0,13.4-6.3,22.4-19.4,25.4v0.3c8.7,2.4,9.2,10,14.4,22.3l9.9,27.5h-28.1l-5.8-18.2
	c-5.5-17.4-9-21.7-19-21.7h-5.7v39.9h-26.9V254.2H371.2z M398.2,296.2h7.1c8.7,0,19.6-0.3,19.6-11.7c0-9.4-9.4-11.2-19.6-11.2h-7.1
	V296.2z M455,256c0-5.1,4.2-9.4,9.4-9.4s9.4,4.2,9.4,9.4s-4.2,9.4-9.4,9.4C459.2,265.5,455,261.3,455,256 M472.3,256
	c0-4.6-3.3-8.2-7.9-8.2s-7.9,3.6-7.9,8.2s3.3,8.2,7.9,8.2S472.3,260.6,472.3,256 M469.1,261.3h-1.6l-3-4.9h-2.4v4.9h-1.3v-10.5h4.6
	c2.8,0,3.7,1.1,3.7,2.8c0,2.1-1.4,2.8-3.3,2.9L469.1,261.3z M464.1,255.5c1.4,0,3.7,0.3,3.7-1.8c0-1.6-1.3-1.8-2.6-1.8h-3v3.7H464.1
	z M80.6,387.4h12.3c5.4,0,9.7,4.3,9.7,9.7c0,2.2-0.9,4.2-2.4,5.7c2.8,1.4,4.6,4.2,4.6,7.8c0,5.4-4.3,9.6-10,9.6H80.6V387.4z
	 M92,400.6c2,0,3.4-1.4,3.4-3.2c0-1.8-1.4-3.3-3.4-3.3h-4.1v6.6H92V400.6z M94.4,413.3c2,0,3.4-1.4,3.4-3.3c0-1.8-1.4-3.3-3.4-3.3
	h-6.5v6.6H94.4z M114.7,387.4h12.9c6.2,0,10.1,4.5,10.1,9.9c0,4.2-2.2,7-6.5,8.4l11.6,14.5H134l-10.9-13.6h-1.2v13.6h-7.4v-32.8
	H114.7z M126.7,400.3c2.1,0,3.7-1.2,3.7-3.2s-1.6-3.2-3.7-3.2h-4.7v6.3H126.7L126.7,400.3z M150,387.4h20.7v7h-13.4v5.8h10.7v7
	h-10.7v5.8h13.4v7H150V387.4z M181.2,387.4h20.7v7h-13.3v5.8h10.7v7h-10.7v5.8H202v7h-20.7v-32.5H181.2z M210.7,415l15-20.7H211v-7
	h24.8v5l-15,20.7H236v7h-25.3V415z M246,387.4h20.7v7h-13.4v5.8H264v7h-10.7v5.8h13.4v7H246V387.4z"/>
</svg>
