<?xml version="1.0" encoding="utf-8"?>
<!-- Generator: Adobe Illustrator 25.4.1, SVG Export Plug-In . SVG Version: 6.00 Build 0)  -->
<svg version="1.1" id="Calque_1" xmlns="http://www.w3.org/2000/svg" xmlns:xlink="http://www.w3.org/1999/xlink" x="0px" y="0px"
	 viewBox="0 0 494.4 177.9" style="enable-background:new 0 0 494.4 177.9;" xml:space="preserve">
<g>
	<path d="M0,2.6v17.3h2v-2.6c0-3.7,2.9-6.8,6.6-7h27.9v70.1c-0.2,4-3.5,7.2-7.5,7.2h-2v2h29.3v-2h-2c-4.1,0-7.4-3.2-7.5-7.3v-70
		h27.9c3.7,0.2,6.6,3.2,6.6,7v2.6h2V2.6H0z"/>
	<path d="M190,87.6c-6.8-0.1-11.2-3.4-16.5-9.2c-4.7-5.1-13.6-20.2-13.7-20.3c-2-2.9-5.2-6.4-7.8-8.1c9.9-0.8,20-10.2,20-23.8
		c0-14.5-9.4-23.5-24.5-23.5l-45.9,0v2h2c4.1,0,7.4,3.3,7.5,7.4v68.3c-0.1,4.1-3.4,7.3-7.5,7.3h-2v2h30.8v-2h-3.6
		c-4.1,0-7.4-3.3-7.5-7.4V8c0.7,0,3,0,4.8,0c5.3-0.1,16.5-0.1,20.9,0.1c8.9,0.5,14.6,6.8,14.9,17.6c0.1,2.6-0.2,5.6-0.8,7.2
		c-3.4,10.9-12.4,12.4-18.9,12.5c-3.7,0.1-6.5,0.1-6.5,0.1l-0.4,0v1.9h0.4c4.2,0,7.6,3.9,11,8.2c0.4,0.5,3,4.2,6,8.6
		c4.4,6.3,9.4,13.5,10.2,14.5c4.3,5.1,9,10.9,20.1,10.9h7.1v-2L190,87.6L190,87.6z"/>
	<path d="M492.9,86.7c-4,0-9.6-2.8-12.2-8.1L447,0h-4.3l-34.1,79.5c-2.8,5.7-9.2,7.3-12.5,7.3h-1.6v2h27v-2h-1.6
		c-1.7,0-3.1-0.7-3.9-1.9c-0.9-1.3-1-3.2-0.2-5.2l8.8-20.8h36.3l8.9,20.7c0.8,1.9,0.7,3.7-0.2,5c-0.9,1.4-2.6,2.2-4.5,2.2h-1.6v2
		h30.9v-2L492.9,86.7L492.9,86.7z M459,54.3h-32.5l16.2-38.2L459,54.3z"/>
	<path d="M276.5,74.3v2.6c0,1.2-0.3,2.3-0.9,3.3c-1.2,2.1-3.4,3.5-5.8,3.6h-42.5v-35h24.1c3.2,0.1,5.6,2.6,5.6,5.7v2.2l2,0v-23l-2,0
		v3.4c0,3.1-2.6,5.6-5.8,5.7h-24V8.1h34.9c2.5,0.2,4.7,1.5,5.9,3.6c0.6,1,0.9,2.2,0.9,3.3v2.6l2.1,0v-15h-64l0,2h2
		c4.2,0,7.7,3.3,7.7,7.4v68.3c-0.1,4-3.6,7.4-7.7,7.4h-2l0,1.6l0,0.4h71.6V74.3L276.5,74.3z"/>
	<path d="M375.7,64c-1.7,6.1-4.9,11-9.4,14.6c-4.7,3.7-10.8,6-17.9,6.5c-0.4,0-0.8,0-1.3,0.1c-0.3,0-0.7,0-1,0c-0.4,0-0.8,0-1.2,0
		c-0.3,0-0.6,0-0.9,0c-21.2-0.7-34.9-16.4-35-40c0.1-23.6,13.8-39.2,35-40c0.3,0,0.6,0,0.9,0c0.4,0,0.8,0,1.2,0c0.3,0,0.7,0,1,0
		c0.4,0,0.8,0,1.3,0.1c7.2,0.5,13.2,2.7,17.9,6.5c4.5,3.6,7.7,8.5,9.4,14.6l0,0.1h2.6l0-9.8l0-7.1l-0.2-0.1
		C374.5,7.3,361.5,0,345.4,0H345h-0.4c-16.4,0.1-29.6,6.3-37.8,16.9c-0.1,0.1-0.2,0.3-0.3,0.4c-0.2,0.2-0.3,0.4-0.5,0.7
		c-5.3,7.3-8.3,16.5-8.3,27.1v0.1v0.1c0,10.6,3,19.8,8.3,27.1c0.2,0.2,0.3,0.4,0.5,0.7c0.1,0.1,0.2,0.2,0.3,0.4
		c8.2,10.6,21.4,16.9,37.8,16.9c0.1,0,0.3,0,0.4,0c0.1,0,0.3,0,0.4,0c16.1,0,29.1-7.3,32.7-9.6l0.2-0.1l0-7.1l0-9.8L375.7,64
		L375.7,64z"/>
	<path d="M165.1,161.2h5.9c4.7,0,8.4-0.5,8.4-5.8c0-5.2-3.7-5.9-8.4-5.9h-5.9V161.2z M184,155.5c0,8-5.5,9.7-13.4,9.7h-5.6v12.7
		h-4.5v-32.2h10.1C178.5,145.7,184,147.5,184,155.5"/>
	<path d="M215.7,167.1l-6-16.8l-6,16.8H215.7z M212.4,145.7l12.1,32.2h-4.9l-2.5-7h-14.8l-2.5,7h-4.6l11.9-32.2L212.4,145.7
		L212.4,145.7z"/>
	<path d="M246.2,160.6h6c4.7,0,8.4-0.5,8.4-5.5c0-5-3.7-5.6-8.4-5.6h-6V160.6z M251.9,164.4h-5.7v13.5h-4.5v-32.2h10.2
		c7.9,0,13.4,1.6,13.4,9.3c0,5.1-2.4,7.6-6.4,8.6l7.5,14.3h-5.1l-7-13.6C253.6,164.4,252.8,164.4,251.9,164.4"/>
	<rect x="285.2" y="145.7" width="4.5" height="32.2"/>
	<path d="M333.2,154h-4.4c-1.1-3.7-4.8-5-8-5c-2.5,0-6.8,1.1-6.8,4.7c0,2.8,2.3,4.3,5.2,4.9l3.7,0.8c4.9,1.1,10.8,2.9,10.8,9.4
		c0,6.3-5.9,9.6-12.3,9.6c-7.6,0-12.4-4.1-13.2-10.6h4.4c0.8,4.4,3.9,6.7,8.9,6.7c4.8,0,7.5-2.3,7.5-5.4c0-3.4-2.9-4.8-6.9-5.7
		l-4-0.8c-4.4-1-8.8-3.4-8.8-8.8c0-6.1,6.4-8.8,11.6-8.8C326.8,145.2,332,147.7,333.2,154"/>
</g>
</svg>
