<svg xmlns="http://www.w3.org/2000/svg" xmlns:xlink="http://www.w3.org/1999/xlink" width="200" height="200" viewBox="0 0 200 200">
  <defs>
    <clipPath id="clip-path">
      <rect id="Rectangle_20" data-name="Rectangle 20" width="147" height="147" transform="translate(2374 -123)" fill="#fff"/>
    </clipPath>
  </defs>
  <g id="Group_5" data-name="Group 5" transform="translate(-2285 -201)">
    <rect id="Rectangle_2" data-name="Rectangle 2" width="200" height="200" transform="translate(2285 201)" fill="none"/>
    <g id="Mask_Group_1" data-name="Mask Group 1" transform="translate(-62 351)" clip-path="url(#clip-path)">
      <g id="Layer_2" data-name="Layer 2" transform="translate(2374 -123)">
        <g id="Layer_1" data-name="Layer 1">
          <circle id="Ellipse_4" data-name="Ellipse 4" cx="61.373" cy="61.373" r="61.373" transform="translate(12.127 12.127)" fill="#fefef5"/>
          <path id="Path_395" data-name="Path 395" d="M73.525,85.534q.061-.256.123-.513l32.975-16.436c-5.536-8.343-10.983-16.552-16.554-24.946.143,1.82.352,3.36.351,4.9a2.551,2.551,0,0,0,.869,2.08A16.359,16.359,0,0,1,93.3,71.5a14.237,14.237,0,0,1-22.061,2.1,1.483,1.483,0,0,0-1.731-.444,19.722,19.722,0,0,1-4.306.846c-7.568.394-14-5.309-15.132-13.513A44.893,44.893,0,0,1,50.03,54.3c-3.3,4.934-6.769,10.118-10.327,15.438L75.912,81.073c-.57.367-.886.591-1.226.788A34.56,34.56,0,0,1,59.2,86.644c-8.61.471-15.218-3.2-19.419-11.9-.469-.971-.886-1.969-1.378-3.067L26.657,89.239H81.2Zm34.592-14.693c-3.515,8.4-8.31,15.064-16.379,18.412h28.58ZM84.2,35.19l.164-.207L73.66,19.045,56.06,45.264c1.772-.74,3.5-1.437,5.209-2.192a1.472,1.472,0,0,0,.674-.767c3.462-9.058,13.609-12.528,21.379-7.6C83.606,34.886,83.909,35.03,84.2,35.19Z" fill="#fff"/>
          <path id="Path_396" data-name="Path 396" d="M73.525,85.534,81.2,89.239H26.658C30.633,83.3,34.474,77.548,38.4,71.678c.492,1.095.91,2.1,1.378,3.067,4.2,8.7,10.809,12.369,19.419,11.9a34.539,34.539,0,0,0,15.488-4.789c.336-.2.656-.419,1.226-.788L39.7,69.742c3.558-5.317,7.026-10.5,10.327-15.438a44.892,44.892,0,0,0,.042,6.191c1.136,8.2,7.565,13.9,15.132,13.513a19.722,19.722,0,0,0,4.306-.846,1.483,1.483,0,0,1,1.731.444A14.235,14.235,0,0,0,93.3,71.5,16.358,16.358,0,0,0,91.289,50.62a2.548,2.548,0,0,1-.869-2.08c0-1.54-.208-3.081-.351-4.9,5.571,8.394,11.018,16.6,16.554,24.946L73.648,85.021Q73.586,85.278,73.525,85.534Z"/>
          <path id="Path_397" data-name="Path 397" d="M108.116,70.841l12.2,18.412H91.738C99.806,85.907,104.6,79.238,108.116,70.841Z"/>
          <path id="Path_398" data-name="Path 398" d="M84.2,35.19c-.3-.16-.6-.3-.886-.485-7.769-4.928-17.92-1.46-21.379,7.6a1.472,1.472,0,0,1-.674.767c-1.706.755-3.431,1.451-5.209,2.192L73.66,19.045,84.367,34.984Z"/>
          <path id="Path_400" data-name="Path 400" d="M.608-5.712H4.72v.864H1.608v1.5h2.88v.816H1.608V-.864H4.776V0H.608ZM10.792,0h-.64L10-.672a2.376,2.376,0,0,1-.8.632,2.265,2.265,0,0,1-.92.176A2.694,2.694,0,0,1,7.132-.1a2.525,2.525,0,0,1-.86-.644,2.881,2.881,0,0,1-.54-.952,3.527,3.527,0,0,1-.188-1.16,3.5,3.5,0,0,1,.188-1.152,2.881,2.881,0,0,1,.54-.952,2.57,2.57,0,0,1,.86-.648,2.655,2.655,0,0,1,1.148-.24,3.106,3.106,0,0,1,.884.124,2.361,2.361,0,0,1,.748.368,2.039,2.039,0,0,1,.544.612,2.147,2.147,0,0,1,.272.848H9.752a1.255,1.255,0,0,0-.172-.492,1.245,1.245,0,0,0-.332-.356A1.454,1.454,0,0,0,8.8-4.96a1.856,1.856,0,0,0-.52-.072,1.6,1.6,0,0,0-.788.184,1.545,1.545,0,0,0-.54.492,2.22,2.22,0,0,0-.308.7,3.224,3.224,0,0,0-.1.8,3.224,3.224,0,0,0,.1.8,2.22,2.22,0,0,0,.308.7,1.545,1.545,0,0,0,.54.492A1.6,1.6,0,0,0,8.28-.68a1.863,1.863,0,0,0,.68-.1,1.35,1.35,0,0,0,.5-.312,1.309,1.309,0,0,0,.308-.5,2.112,2.112,0,0,0,.112-.656H8.36v-.76h2.432Zm2.736-2.24L11.384-5.712h1.16l1.512,2.56,1.488-2.56h1.12L14.528-2.24V0h-1Zm3.856-3.472H19.9a2.4,2.4,0,0,1,.992.176,1.566,1.566,0,0,1,.592.44,1.494,1.494,0,0,1,.284.576,2.446,2.446,0,0,1,.076.576,2.4,2.4,0,0,1-.076.572,1.5,1.5,0,0,1-.284.572,1.532,1.532,0,0,1-.592.436,2.444,2.444,0,0,1-.992.172h-1.52V0h-1Zm1,2.7h1.464a1.3,1.3,0,0,0,.344-.048.985.985,0,0,0,.324-.156.8.8,0,0,0,.24-.288.988.988,0,0,0,.092-.452,1.168,1.168,0,0,0-.08-.464.741.741,0,0,0-.216-.292.768.768,0,0,0-.312-.148,1.694,1.694,0,0,0-.376-.04h-1.48Zm3.952-2.7H26.96v.864H25.144V0h-1V-4.848H22.336Zm5.448,0h1V0h-1Zm3.912,0H32.76L34.96,0H33.888l-.536-1.512h-2.28L30.536,0H29.5Zm-.352,3.44h1.744l-.856-2.456h-.024Zm4.28-3.44H36.68L39.288-1.5H39.3V-5.712h.952V0H39.2L36.6-4.2h-.024V0h-.952ZM47.84-3.9a2.025,2.025,0,0,0-.176-.456,1.262,1.262,0,0,0-.288-.36,1.28,1.28,0,0,0-.412-.236,1.632,1.632,0,0,0-.548-.084,1.6,1.6,0,0,0-.788.184,1.545,1.545,0,0,0-.54.492,2.22,2.22,0,0,0-.308.7,3.224,3.224,0,0,0-.1.8,3.224,3.224,0,0,0,.1.8,2.22,2.22,0,0,0,.308.7,1.545,1.545,0,0,0,.54.492,1.6,1.6,0,0,0,.788.184A1.421,1.421,0,0,0,47.008-.8a1.318,1.318,0,0,0,.44-.32,1.506,1.506,0,0,0,.288-.476,2.279,2.279,0,0,0,.136-.584h.976a2.707,2.707,0,0,1-.22.936,2.3,2.3,0,0,1-.508.732,2.245,2.245,0,0,1-.752.476,2.606,2.606,0,0,1-.952.168A2.694,2.694,0,0,1,45.268-.1a2.525,2.525,0,0,1-.86-.644,2.881,2.881,0,0,1-.54-.952,3.527,3.527,0,0,1-.188-1.16,3.5,3.5,0,0,1,.188-1.152,2.881,2.881,0,0,1,.54-.952,2.57,2.57,0,0,1,.86-.648,2.655,2.655,0,0,1,1.148-.24,3.025,3.025,0,0,1,.9.132,2.337,2.337,0,0,1,.748.384,1.994,1.994,0,0,1,.524.612,2.129,2.129,0,0,1,.248.824Zm4.512-1.136a1.6,1.6,0,0,0-.788.184,1.545,1.545,0,0,0-.54.492,2.22,2.22,0,0,0-.308.7,3.224,3.224,0,0,0-.1.8,3.224,3.224,0,0,0,.1.8,2.22,2.22,0,0,0,.308.7,1.545,1.545,0,0,0,.54.492,1.6,1.6,0,0,0,.788.184,1.6,1.6,0,0,0,.788-.184,1.545,1.545,0,0,0,.54-.492,2.219,2.219,0,0,0,.308-.7,3.224,3.224,0,0,0,.1-.8,3.224,3.224,0,0,0-.1-.8,2.219,2.219,0,0,0-.308-.7,1.545,1.545,0,0,0-.54-.492A1.6,1.6,0,0,0,52.352-5.032Zm0-.816a2.655,2.655,0,0,1,1.148.24,2.57,2.57,0,0,1,.86.648,2.881,2.881,0,0,1,.54.952,3.5,3.5,0,0,1,.188,1.152A3.527,3.527,0,0,1,54.9-1.7a2.881,2.881,0,0,1-.54.952A2.525,2.525,0,0,1,53.5-.1a2.694,2.694,0,0,1-1.148.236A2.694,2.694,0,0,1,51.2-.1a2.525,2.525,0,0,1-.86-.644A2.881,2.881,0,0,1,49.8-1.7a3.527,3.527,0,0,1-.188-1.16A3.5,3.5,0,0,1,49.8-4.008a2.881,2.881,0,0,1,.54-.952,2.57,2.57,0,0,1,.86-.648A2.655,2.655,0,0,1,52.352-5.848Zm3.264.136H60.24v.864H58.424V0h-1V-4.848H55.616Zm4.9,0h4.624v.864H63.328V0h-1V-4.848H60.52Zm7.88.68a1.6,1.6,0,0,0-.788.184,1.545,1.545,0,0,0-.54.492,2.22,2.22,0,0,0-.308.7,3.224,3.224,0,0,0-.1.8,3.224,3.224,0,0,0,.1.8,2.22,2.22,0,0,0,.308.7,1.545,1.545,0,0,0,.54.492A1.6,1.6,0,0,0,68.4-.68a1.6,1.6,0,0,0,.788-.184,1.545,1.545,0,0,0,.54-.492,2.219,2.219,0,0,0,.308-.7,3.224,3.224,0,0,0,.1-.8,3.224,3.224,0,0,0-.1-.8,2.219,2.219,0,0,0-.308-.7,1.545,1.545,0,0,0-.54-.492A1.6,1.6,0,0,0,68.4-5.032Zm0-.816a2.655,2.655,0,0,1,1.148.24,2.57,2.57,0,0,1,.86.648,2.881,2.881,0,0,1,.54.952,3.5,3.5,0,0,1,.188,1.152,3.527,3.527,0,0,1-.188,1.16,2.881,2.881,0,0,1-.54.952,2.525,2.525,0,0,1-.86.644A2.694,2.694,0,0,1,68.4.136,2.694,2.694,0,0,1,67.252-.1a2.525,2.525,0,0,1-.86-.644,2.881,2.881,0,0,1-.54-.952,3.527,3.527,0,0,1-.188-1.16,3.5,3.5,0,0,1,.188-1.152,2.881,2.881,0,0,1,.54-.952,2.571,2.571,0,0,1,.86-.648A2.655,2.655,0,0,1,68.4-5.848Zm3.768.136h1.056L75.832-1.5h.016V-5.712H76.8V0H75.744l-2.6-4.2H73.12V0h-.952Z" transform="translate(35 103.892)"/>
          <text id="TM" transform="translate(117.71 81.264)" font-size="3" font-family="HelveticaNeue, Helvetica Neue" letter-spacing="0.02em"><tspan x="0" y="0">TM</tspan></text>
          <path id="Path_401" data-name="Path 401" d="M.468-4.284V0H3.306V-.48H1.038v-3.8Zm3.48,0V0h.57V-4.284ZM8.61-2.994h.57a1.594,1.594,0,0,0-.2-.6,1.484,1.484,0,0,0-.39-.435A1.71,1.71,0,0,0,8.052-4.3a2.2,2.2,0,0,0-.636-.09,2.05,2.05,0,0,0-.873.177,1.8,1.8,0,0,0-.636.483,2.118,2.118,0,0,0-.387.717,2.858,2.858,0,0,0-.132.879,3.021,3.021,0,0,0,.123.876,2.023,2.023,0,0,0,.369.708A1.709,1.709,0,0,0,6.5-.075,2.065,2.065,0,0,0,7.368.1a1.805,1.805,0,0,0,1.3-.45,1.946,1.946,0,0,0,.558-1.26h-.57a1.635,1.635,0,0,1-.108.492A1.187,1.187,0,0,1,8.3-.729a1.134,1.134,0,0,1-.378.258,1.272,1.272,0,0,1-.5.093,1.41,1.41,0,0,1-.66-.144A1.289,1.289,0,0,1,6.3-.909a1.658,1.658,0,0,1-.261-.57,2.776,2.776,0,0,1-.084-.693,2.482,2.482,0,0,1,.084-.648A1.67,1.67,0,0,1,6.3-3.375a1.3,1.3,0,0,1,.45-.387,1.392,1.392,0,0,1,.657-.144,1.324,1.324,0,0,1,.777.228A1.06,1.06,0,0,1,8.61-2.994Zm1.44-1.29V0h2.976V-.48H10.62V-1.962h2.226v-.48H10.62V-3.8h2.388v-.48Zm3.78,0V0h.54V-3.438h.012L16.62,0h.624V-4.284H16.7V-.81h-.012L14.436-4.284ZM20.766-3.03h.54a1.51,1.51,0,0,0-.135-.609,1.187,1.187,0,0,0-.336-.423,1.386,1.386,0,0,0-.495-.246,2.289,2.289,0,0,0-.612-.078,2.2,2.2,0,0,0-.573.075,1.575,1.575,0,0,0-.5.228,1.154,1.154,0,0,0-.351.39,1.135,1.135,0,0,0-.132.561.937.937,0,0,0,.117.489.949.949,0,0,0,.312.318,1.813,1.813,0,0,0,.441.2q.246.075.5.132l.5.111a2.284,2.284,0,0,1,.441.141.86.86,0,0,1,.312.225.538.538,0,0,1,.117.36.7.7,0,0,1-.1.384.7.7,0,0,1-.252.237,1.14,1.14,0,0,1-.351.123,2.128,2.128,0,0,1-.387.036,1.831,1.831,0,0,1-.468-.06,1.165,1.165,0,0,1-.4-.186.955.955,0,0,1-.276-.321.968.968,0,0,1-.105-.465h-.54a1.506,1.506,0,0,0,.141.675,1.294,1.294,0,0,0,.384.468,1.682,1.682,0,0,0,.564.273,2.512,2.512,0,0,0,.681.09A2.6,2.6,0,0,0,20.4.027a1.71,1.71,0,0,0,.537-.222,1.259,1.259,0,0,0,.393-.4,1.076,1.076,0,0,0,.153-.585,1.074,1.074,0,0,0-.117-.528,1.042,1.042,0,0,0-.312-.348,1.653,1.653,0,0,0-.441-.219q-.246-.081-.5-.141t-.5-.111a2.623,2.623,0,0,1-.441-.129.868.868,0,0,1-.312-.2.447.447,0,0,1-.117-.321.7.7,0,0,1,.081-.351.63.63,0,0,1,.216-.225.94.94,0,0,1,.309-.12,1.743,1.743,0,0,1,.354-.036,1.21,1.21,0,0,1,.729.207A.893.893,0,0,1,20.766-3.03ZM22.3-4.284V0h2.976V-.48H22.866V-1.962h2.226v-.48H22.866V-3.8h2.388v-.48Zm5.568,0V0h.54V-3.438h.012L30.654,0h.624V-4.284h-.54V-.81h-.012L28.47-4.284Zm4.788,2.142a2.47,2.47,0,0,1,.084-.639A1.735,1.735,0,0,1,33-3.348a1.35,1.35,0,0,1,.462-.405,1.39,1.39,0,0,1,.672-.153,1.39,1.39,0,0,1,.672.153,1.35,1.35,0,0,1,.462.405,1.735,1.735,0,0,1,.264.567,2.47,2.47,0,0,1,.084.639,2.47,2.47,0,0,1-.084.639,1.735,1.735,0,0,1-.264.567,1.35,1.35,0,0,1-.462.4,1.39,1.39,0,0,1-.672.153,1.39,1.39,0,0,1-.672-.153A1.35,1.35,0,0,1,33-.936a1.735,1.735,0,0,1-.264-.567A2.47,2.47,0,0,1,32.652-2.142Zm-.57,0a2.761,2.761,0,0,0,.129.843,2.124,2.124,0,0,0,.387.717,1.857,1.857,0,0,0,.642.5A2.057,2.057,0,0,0,34.134.1a2.057,2.057,0,0,0,.894-.183,1.857,1.857,0,0,0,.642-.5,2.124,2.124,0,0,0,.387-.717,2.761,2.761,0,0,0,.129-.843,2.761,2.761,0,0,0-.129-.843A2.124,2.124,0,0,0,35.67-3.7a1.889,1.889,0,0,0-.642-.5,2.028,2.028,0,0,0-.894-.186,2.028,2.028,0,0,0-.894.186,1.889,1.889,0,0,0-.642.5,2.124,2.124,0,0,0-.387.717A2.761,2.761,0,0,0,32.082-2.142ZM37.7-2.436V-3.1h-.666v.666Zm-.666,1.77V0H37.7V-.666Zm2.082-1.428q0-.156,0-.345a3.008,3.008,0,0,1,.03-.378,2.81,2.81,0,0,1,.078-.369.978.978,0,0,1,.15-.315.773.773,0,0,1,.249-.219A.739.739,0,0,1,39.99-3.8a.739.739,0,0,1,.366.084A.773.773,0,0,1,40.6-3.5a.978.978,0,0,1,.15.315,2.81,2.81,0,0,1,.078.369,3.007,3.007,0,0,1,.03.378q0,.189,0,.345,0,.24-.015.537a2.261,2.261,0,0,1-.1.558,1.054,1.054,0,0,1-.261.441.681.681,0,0,1-.5.18.681.681,0,0,1-.5-.18A1.054,1.054,0,0,1,39.225-1a2.261,2.261,0,0,1-.1-.558Q39.114-1.854,39.114-2.094Zm-.54.006q0,.234.012.486a3.307,3.307,0,0,0,.06.492,2.339,2.339,0,0,0,.138.453,1.22,1.22,0,0,0,.246.375,1.088,1.088,0,0,0,.393.255,1.552,1.552,0,0,0,.567.093,1.546,1.546,0,0,0,.57-.093,1.093,1.093,0,0,0,.39-.255A1.22,1.22,0,0,0,41.2-.657a2.339,2.339,0,0,0,.138-.453,3.307,3.307,0,0,0,.06-.492q.012-.252.012-.486t-.012-.486a3.307,3.307,0,0,0-.06-.492,2.413,2.413,0,0,0-.138-.456A1.21,1.21,0,0,0,40.95-3.9a1.12,1.12,0,0,0-.393-.258,1.508,1.508,0,0,0-.567-.1,1.508,1.508,0,0,0-.567.1,1.12,1.12,0,0,0-.393.258,1.21,1.21,0,0,0-.246.378,2.413,2.413,0,0,0-.138.456,3.307,3.307,0,0,0-.06.492Q38.574-2.322,38.574-2.088Zm4.008,1.062h-.51a1.1,1.1,0,0,0,.4.822,1.422,1.422,0,0,0,.888.27,1.21,1.21,0,0,0,1.125-.591,3.352,3.352,0,0,0,.351-1.7,3.571,3.571,0,0,0-.117-1,1.659,1.659,0,0,0-.315-.621,1.084,1.084,0,0,0-.462-.321,1.685,1.685,0,0,0-.564-.093,1.521,1.521,0,0,0-.564.1,1.313,1.313,0,0,0-.444.285,1.265,1.265,0,0,0-.288.438,1.5,1.5,0,0,0-.1.561,1.831,1.831,0,0,0,.087.576,1.218,1.218,0,0,0,.258.45,1.184,1.184,0,0,0,.423.291,1.487,1.487,0,0,0,.576.105,1.1,1.1,0,0,0,.576-.159,1.093,1.093,0,0,0,.408-.429l.012.012a2.71,2.71,0,0,1-.258,1.239.761.761,0,0,1-.7.4.85.85,0,0,1-.528-.168A.649.649,0,0,1,42.582-1.026Zm1.65-1.806a1.07,1.07,0,0,1-.06.357.9.9,0,0,1-.174.3.827.827,0,0,1-.276.2.847.847,0,0,1-.36.075.76.76,0,0,1-.339-.075.842.842,0,0,1-.264-.2.956.956,0,0,1-.174-.288.919.919,0,0,1-.063-.336,1.553,1.553,0,0,1,.045-.378.957.957,0,0,1,.144-.321.721.721,0,0,1,.258-.225.82.82,0,0,1,.387-.084.862.862,0,0,1,.378.078.8.8,0,0,1,.273.213.944.944,0,0,1,.168.309A1.188,1.188,0,0,1,44.232-2.832Zm3.486-.336h.51a1.178,1.178,0,0,0-.36-.807,1.214,1.214,0,0,0-.84-.279,1.377,1.377,0,0,0-.756.192,1.433,1.433,0,0,0-.48.51,2.311,2.311,0,0,0-.255.729,4.721,4.721,0,0,0-.075.849,4.963,4.963,0,0,0,.051.7,2.039,2.039,0,0,0,.207.66,1.31,1.31,0,0,0,.444.492,1.353,1.353,0,0,0,.762.192A1.515,1.515,0,0,0,47.6-.069a1.267,1.267,0,0,0,.438-.342,1.3,1.3,0,0,0,.237-.459,1.767,1.767,0,0,0,.072-.486,1.612,1.612,0,0,0-.09-.546A1.322,1.322,0,0,0,48-2.34a1.142,1.142,0,0,0-.408-.291,1.371,1.371,0,0,0-.549-.105,1.37,1.37,0,0,0-.615.132,1.1,1.1,0,0,0-.447.426l-.012-.012a4.311,4.311,0,0,1,.048-.528,1.947,1.947,0,0,1,.153-.525,1.085,1.085,0,0,1,.309-.4A.809.809,0,0,1,47-3.8a.691.691,0,0,1,.492.174A.734.734,0,0,1,47.718-3.168Zm-.768.882a.862.862,0,0,1,.378.078A.8.8,0,0,1,47.6-2a.826.826,0,0,1,.159.306,1.348,1.348,0,0,1,.051.375,1.121,1.121,0,0,1-.057.357.946.946,0,0,1-.165.3.758.758,0,0,1-.267.207.856.856,0,0,1-.369.075.9.9,0,0,1-.375-.075.807.807,0,0,1-.276-.2.884.884,0,0,1-.171-.3,1.133,1.133,0,0,1-.06-.372,1.216,1.216,0,0,1,.057-.375.848.848,0,0,1,.171-.306.827.827,0,0,1,.276-.2A.892.892,0,0,1,46.95-2.286Zm3.774.84H49.3l1.416-2.082h.012Zm.48,0V-4.254H50.8L48.858-1.488V-1h1.866V0h.48V-1h.576v-.45Z" transform="translate(48 114.516)"/>
          <path id="Path_399" data-name="Path 399" d="M73.5,0A73.5,73.5,0,1,0,147,73.5,73.5,73.5,0,0,0,73.5,0Zm0,133.314A59.814,59.814,0,1,1,133.314,73.5,59.816,59.816,0,0,1,73.5,133.314Z" fill="#d0a20e"/>
          <text id="C" transform="matrix(0.47, -0.883, 0.882, 0.471, 16.265, 47.207)" font-size="9" font-family="HelveticaNeue-Medium, Helvetica Neue" font-weight="500"><tspan x="0" y="0">C</tspan></text>
          <text id="O" transform="matrix(0.57, -0.821, 0.821, 0.57, 19.654, 40.813)" font-size="9" font-family="HelveticaNeue-Medium, Helvetica Neue" font-weight="500"><tspan x="0" y="0">O</tspan></text>
          <text id="T" transform="matrix(0.655, -0.756, 0.756, 0.655, 24.043, 34.574)" font-size="9" font-family="HelveticaNeue-Medium, Helvetica Neue" font-weight="500"><tspan x="0" y="0">T</tspan></text>
          <text id="T-2" data-name="T" transform="matrix(0.721, -0.693, 0.692, 0.722, 27.964, 30.056)" font-size="9" font-family="HelveticaNeue-Medium, Helvetica Neue" font-weight="500"><tspan x="0" y="0">T</tspan></text>
          <text id="O-2" data-name="O" transform="translate(32.248 25.909) rotate(-35.665)" font-size="10" font-family="HelveticaNeue-Medium, Helvetica Neue" font-weight="500"><tspan x="0" y="0">O</tspan></text>
          <text id="N" transform="matrix(0.875, -0.485, 0.485, 0.875, 38.298, 21.281)" font-size="10" font-family="HelveticaNeue-Medium, Helvetica Neue" font-weight="500"><tspan x="0" y="0">N</tspan></text>
          <text id="E" transform="matrix(0.928, -0.373, 0.373, 0.928, 47.153, 16.317)" font-size="9" font-family="HelveticaNeue-Medium, Helvetica Neue" font-weight="500"><tspan x="0" y="0">E</tspan></text>
          <text id="G" transform="matrix(0.964, -0.267, 0.267, 0.964, 53.013, 13.926)" font-size="9" font-family="HelveticaNeue-Medium, Helvetica Neue" font-weight="500"><tspan x="0" y="0">G</tspan></text>
          <text id="Y" transform="matrix(0.988, -0.157, 0.157, 0.988, 60.355, 11.924)" font-size="9" font-family="HelveticaNeue-Medium, Helvetica Neue" font-weight="500"><tspan x="0" y="0">Y</tspan></text>
          <text id="P" transform="matrix(0.999, -0.053, 0.053, 0.999, 66.791, 10.899)" font-size="9" font-family="HelveticaNeue-Medium, Helvetica Neue" font-weight="500"><tspan x="0" y="0">P</tspan></text>
          <text id="T-3" data-name="T" transform="matrix(0.999, 0.046, -0.046, 0.999, 73.497, 10.565)" font-size="9" font-family="HelveticaNeue-Medium, Helvetica Neue" font-weight="500"><tspan x="0" y="0">T</tspan></text>
          <text id="A" transform="matrix(0.981, 0.192, -0.192, 0.981, 82.351, 11.162)" font-size="9" font-family="HelveticaNeue-Medium, Helvetica Neue" font-weight="500"><tspan x="0" y="0">A</tspan></text>
          <text id="S" transform="matrix(0.957, 0.291, -0.289, 0.957, 88.932, 12.455)" font-size="9" font-family="HelveticaNeue-Medium, Helvetica Neue" font-weight="500"><tspan x="0" y="0">S</tspan></text>
          <text id="S-2" data-name="S" transform="matrix(0.92, 0.392, -0.392, 0.92, 95.158, 14.375)" font-size="9" font-family="HelveticaNeue-Medium, Helvetica Neue" font-weight="500"><tspan x="0" y="0">S</tspan></text>
          <text id="O-3" data-name="O" transform="matrix(0.87, 0.493, -0.493, 0.87, 101.154, 16.9)" font-size="9" font-family="HelveticaNeue-Medium, Helvetica Neue" font-weight="500"><tspan x="0" y="0">O</tspan></text>
          <text id="C-2" data-name="C" transform="matrix(0.806, 0.592, -0.592, 0.806, 107.774, 20.666)" font-size="9" font-family="HelveticaNeue-Medium, Helvetica Neue" font-weight="500"><tspan x="0" y="0">C</tspan></text>
          <text id="I" transform="matrix(0.756, 0.655, -0.655, 0.756, 113.593, 25.056)" font-size="9" font-family="HelveticaNeue-Medium, Helvetica Neue" font-weight="500"><tspan x="0" y="0">I</tspan></text>
          <text id="A-2" data-name="A" transform="matrix(0.702, 0.712, -0.712, 0.702, 115.801, 26.875)" font-size="9" font-family="HelveticaNeue-Medium, Helvetica Neue" font-weight="500"><tspan x="0" y="0">A</tspan></text>
          <text id="T-4" data-name="T" transform="matrix(0.638, 0.77, -0.769, 0.639, 119.911, 30.991)" font-size="9" font-family="HelveticaNeue-Medium, Helvetica Neue" font-weight="500"><tspan x="0" y="0">T</tspan></text>
          <text id="I-2" data-name="I" transform="matrix(0.585, 0.811, -0.811, 0.585, 123.718, 35.648)" font-size="9" font-family="HelveticaNeue-Medium, Helvetica Neue" font-weight="500"><tspan x="0" y="0">I</tspan></text>
          <text id="O-4" data-name="O" transform="matrix(0.515, 0.857, -0.857, 0.515, 125.464, 37.904)" font-size="9" font-family="HelveticaNeue-Medium, Helvetica Neue" font-weight="500"><tspan x="0" y="0">O</tspan></text>
          <text id="N-2" data-name="N" transform="matrix(0.41, 0.912, -0.912, 0.41, 129.379, 44.44)" font-size="9" font-family="HelveticaNeue-Medium, Helvetica Neue" font-weight="500"><tspan x="0" y="0">N</tspan></text>
          <text id="A-3" data-name="A" transform="matrix(0.677, 0.736, -0.736, 0.677, 17.712, 117.386)" font-size="10" font-family="HelveticaNeue-Medium, Helvetica Neue" font-weight="500"><tspan x="0" y="0">A</tspan></text>
          <text id="C-3" data-name="C" transform="translate(22.657 123.045) rotate(41.082)" font-size="10" font-family="HelveticaNeue-Medium, Helvetica Neue" font-weight="500"><tspan x="0" y="0">C</tspan></text>
          <text id="C-4" data-name="C" transform="matrix(0.806, 0.592, -0.592, 0.806, 28.626, 128.513)" font-size="9" font-family="HelveticaNeue-Medium, Helvetica Neue" font-weight="500"><tspan x="0" y="0">C</tspan></text>
          <text id="R" transform="matrix(0.867, 0.498, -0.498, 0.867, 35.175, 133.262)" font-size="9" font-family="HelveticaNeue-Medium, Helvetica Neue" font-weight="500"><tspan x="0" y="0">R</tspan></text>
          <text id="E-2" data-name="E" transform="matrix(0.916, 0.402, -0.402, 0.915, 42.027, 137.125)" font-size="9" font-family="HelveticaNeue-Medium, Helvetica Neue" font-weight="500"><tspan x="0" y="0">E</tspan></text>
          <text id="D" transform="matrix(0.953, 0.303, -0.303, 0.953, 48.567, 139.989)" font-size="9" font-family="HelveticaNeue-Medium, Helvetica Neue" font-weight="500"><tspan x="0" y="0">D</tspan></text>
          <text id="I-3" data-name="I" transform="matrix(0.974, 0.225, -0.225, 0.974, 56.121, 142.267)" font-size="9" font-family="HelveticaNeue-Medium, Helvetica Neue" font-weight="500"><tspan x="0" y="0">I</tspan></text>
          <text id="T-5" data-name="T" transform="matrix(0.987, 0.16, -0.16, 0.987, 59.427, 143.066)" font-size="9" font-family="HelveticaNeue-Medium, Helvetica Neue" font-weight="500"><tspan x="0" y="0">T</tspan></text>
          <text id="E-3" data-name="E" transform="matrix(0.998, 0.06, -0.06, 0.998, 66.051, 144.083)" font-size="9" font-family="HelveticaNeue-Medium, Helvetica Neue" font-weight="500"><tspan x="0" y="0">E</tspan></text>
          <text id="D-2" data-name="D" transform="matrix(0.999, -0.045, 0.045, 0.999, 73.164, 144.49)" font-size="9" font-family="HelveticaNeue-Medium, Helvetica Neue" font-weight="500"><tspan x="0" y="0">D</tspan></text>
          <text id="G-2" data-name="G" transform="matrix(0.978, -0.207, 0.207, 0.978, 84.493, 143.655)" font-size="9" font-family="HelveticaNeue-Medium, Helvetica Neue" font-weight="500"><tspan x="0" y="0">G</tspan></text>
          <text id="O-5" data-name="O" transform="matrix(0.948, -0.319, 0.319, 0.948, 92.803, 141.845)" font-size="9" font-family="HelveticaNeue-Medium, Helvetica Neue" font-weight="500"><tspan x="0" y="0">O</tspan></text>
          <text id="L" transform="matrix(0.907, -0.422, 0.422, 0.907, 100.753, 139.035)" font-size="9" font-family="HelveticaNeue-Medium, Helvetica Neue" font-weight="500"><tspan x="0" y="0">L</tspan></text>
          <text id="D-3" data-name="D" transform="matrix(0.859, -0.512, 0.512, 0.859, 106.69, 136.27)" font-size="9" font-family="HelveticaNeue-Medium, Helvetica Neue" font-weight="500"><tspan x="0" y="0">D</tspan></text>
          <text id="S-3" data-name="S" transform="matrix(0.77, -0.638, 0.639, 0.769, 116.216, 130.185)" font-size="9" font-family="HelveticaNeue-Medium, Helvetica Neue" font-weight="500"><tspan x="0" y="0">S</tspan></text>
          <text id="E-4" data-name="E" transform="matrix(0.702, -0.712, 0.712, 0.702, 121.79, 125.507)" font-size="9" font-family="HelveticaNeue-Medium, Helvetica Neue" font-weight="500"><tspan x="0" y="0">E</tspan></text>
          <text id="A-4" data-name="A" transform="matrix(0.628, -0.778, 0.778, 0.628, 126.755, 120.425)" font-size="9" font-family="HelveticaNeue-Medium, Helvetica Neue" font-weight="500"><tspan x="0" y="0">A</tspan></text>
          <text id="L-2" data-name="L" transform="matrix(0.546, -0.838, 0.838, 0.546, 131.369, 114.572)" font-size="9" font-family="HelveticaNeue-Medium, Helvetica Neue" font-weight="500"><tspan x="0" y="0">L</tspan></text>
        </g>
      </g>
    </g>
  </g>
</svg>
