<svg xmlns="http://www.w3.org/2000/svg" xmlns:xlink="http://www.w3.org/1999/xlink" width="1404" zoomAndPan="magnify" viewBox="0 0 1053 359.249998" height="479" preserveAspectRatio="xMidYMid meet" version="1.0"><defs><clipPath id="6686c89dc5"><path d="M 129 19 L 150.996094 19 L 150.996094 53 L 129 53 Z M 129 19 " clip-rule="nonzero"/></clipPath><clipPath id="9d4cf64ca0"><path d="M 23.011719 67 L 37 67 L 37 87 L 23.011719 87 Z M 23.011719 67 " clip-rule="nonzero"/></clipPath><clipPath id="df6fe66072"><path d="M 243.039062 60 L 265 60 L 265 95 L 243.039062 95 Z M 243.039062 60 " clip-rule="nonzero"/></clipPath><clipPath id="110cd55e5c"><path d="M 357 27 L 371.019531 27 L 371.019531 46 L 357 46 Z M 357 27 " clip-rule="nonzero"/></clipPath><clipPath id="f9c277fe55"><path d="M 569 19 L 590.304688 19 L 590.304688 53 L 569 53 Z M 569 19 " clip-rule="nonzero"/></clipPath><clipPath id="74946f743f"><path d="M 462.324219 67 L 477 67 L 477 87 L 462.324219 87 Z M 462.324219 67 " clip-rule="nonzero"/></clipPath><clipPath id="fd58a42d81"><path d="M 682.332031 60 L 704 60 L 704 95 L 682.332031 95 Z M 682.332031 60 " clip-rule="nonzero"/></clipPath><clipPath id="dd3b68f4df"><path d="M 796 27 L 810.316406 27 L 810.316406 46 L 796 46 Z M 796 27 " clip-rule="nonzero"/></clipPath><clipPath id="391b36d64e"><path d="M 1008 19 L 1029.617188 19 L 1029.617188 53 L 1008 53 Z M 1008 19 " clip-rule="nonzero"/></clipPath><clipPath id="2133a91fac"><path d="M 901.632812 67 L 916 67 L 916 87 L 901.632812 87 Z M 901.632812 67 " clip-rule="nonzero"/></clipPath><clipPath id="612e273c70"><path d="M 1.097656 118 L 17 118 L 17 185 L 1.097656 185 Z M 1.097656 118 " clip-rule="nonzero"/></clipPath><clipPath id="ccc4ed3700"><path d="M 19 117 L 41.164062 117 L 41.164062 151 L 19 151 Z M 19 117 " clip-rule="nonzero"/></clipPath><clipPath id="fdecdeb0c7"><path d="M 133.207031 159 L 155 159 L 155 193 L 133.207031 193 Z M 133.207031 159 " clip-rule="nonzero"/></clipPath><clipPath id="ca61b6cc2f"><path d="M 247 125 L 261.1875 125 L 261.1875 145 L 247 145 Z M 247 125 " clip-rule="nonzero"/></clipPath><clipPath id="5912b37de4"><path d="M 459 117 L 480.472656 117 L 480.472656 151 L 459 151 Z M 459 117 " clip-rule="nonzero"/></clipPath><clipPath id="3e3f140f2e"><path d="M 352.492188 165 L 367 165 L 367 185 L 352.492188 185 Z M 352.492188 165 " clip-rule="nonzero"/></clipPath><clipPath id="2d9a93f8f8"><path d="M 572.5 159 L 594 159 L 594 193 L 572.5 193 Z M 572.5 159 " clip-rule="nonzero"/></clipPath><clipPath id="31adedc912"><path d="M 686 125 L 700.484375 125 L 700.484375 145 L 686 145 Z M 686 125 " clip-rule="nonzero"/></clipPath><clipPath id="bbfa51472c"><path d="M 898 117 L 919.785156 117 L 919.785156 151 L 898 151 Z M 898 117 " clip-rule="nonzero"/></clipPath><clipPath id="889f8a90b8"><path d="M 791.800781 165 L 806 165 L 806 185 L 791.800781 185 Z M 791.800781 165 " clip-rule="nonzero"/></clipPath><clipPath id="ada0c30b22"><path d="M 1036 124 L 1051.902344 124 L 1051.902344 192 L 1036 192 Z M 1036 124 " clip-rule="nonzero"/></clipPath><clipPath id="f35e80e2ea"><path d="M 1011.828125 159 L 1034 159 L 1034 193 L 1011.828125 193 Z M 1011.828125 159 " clip-rule="nonzero"/></clipPath></defs><path fill="#13263c" d="M 53.761719 20.816406 L 43.914062 20.816406 L 43.921875 20.402344 L 82.144531 20.402344 L 82.1875 20.675781 C 81.183594 20.769531 80.179688 20.863281 79.175781 20.957031 C 78.152344 21.050781 77.132812 21.144531 75.945312 21.253906 C 76.679688 23.136719 77.375 24.917969 78.074219 26.695312 C 83.371094 40.164062 88.660156 53.636719 93.984375 67.09375 C 94.980469 69.617188 95.007812 72.089844 94.015625 74.597656 C 92.53125 78.339844 91.054688 82.082031 89.570312 85.824219 C 89.476562 86.050781 89.34375 86.261719 89.070312 86.777344 C 87.417969 82.785156 85.832031 79.058594 84.324219 75.300781 C 77.636719 58.605469 70.976562 41.898438 64.269531 25.210938 C 63.78125 24 63.097656 22.8125 62.265625 21.808594 C 61.785156 21.222656 60.835938 21.023438 59.808594 20.507812 C 59.769531 21.4375 59.730469 21.890625 59.730469 22.34375 C 59.726562 37.132812 59.789062 51.921875 59.683594 66.710938 C 59.664062 69.460938 59.371094 72.328125 58.542969 74.929688 C 56.722656 80.660156 52.949219 84.675781 46.90625 86.164062 C 45.914062 86.410156 44.867188 86.4375 43.847656 86.554688 C 43.699219 86.570312 43.546875 86.53125 43.117188 86.492188 C 43.546875 86.261719 43.710938 86.144531 43.898438 86.078125 C 46.476562 85.132812 47.664062 83.128906 47.78125 80.542969 C 47.972656 76.390625 48.054688 72.234375 48.066406 68.078125 C 48.097656 56.804688 48.082031 45.53125 48.050781 34.257812 C 48.035156 29.015625 49.492188 24.457031 53.941406 21.191406 C 53.882812 21.066406 53.824219 20.941406 53.761719 20.816406 " fill-opacity="1" fill-rule="nonzero"/><path fill="#13263c" d="M 120.417969 86.785156 C 119.640625 85.070312 118.945312 83.664062 118.363281 82.214844 C 110.800781 63.433594 103.21875 44.660156 95.738281 25.847656 C 94.597656 22.980469 93.023438 20.9375 89.816406 20.53125 C 89.65625 20.511719 89.507812 20.429688 89.070312 20.28125 L 113.429688 20.28125 C 113.441406 20.417969 113.453125 20.558594 113.464844 20.695312 C 111.492188 20.855469 109.515625 21.015625 107.320312 21.191406 C 108.339844 23.867188 109.265625 26.386719 110.25 28.882812 C 115.277344 41.625 120.285156 54.371094 125.378906 67.089844 C 126.46875 69.808594 126.492188 72.316406 125.25 75.003906 C 123.738281 78.261719 122.503906 81.648438 121.148438 84.980469 C 120.949219 85.476562 120.746094 85.972656 120.417969 86.785156 " fill-opacity="1" fill-rule="nonzero"/><g clip-path="url(#6686c89dc5)"><path fill="#13263c" d="M 152.3125 20.351562 C 147.390625 21.15625 145.546875 24.554688 144.039062 28.34375 C 141.289062 35.261719 138.480469 42.15625 135.675781 49.054688 C 135.195312 50.226562 134.597656 51.347656 133.890625 52.472656 C 134.496094 49.960938 133.480469 47.917969 132.183594 45.992188 C 129.34375 41.765625 129.007812 37.203125 130.832031 32.628906 C 132.058594 29.558594 133.773438 26.644531 135.5625 23.851562 C 137.246094 21.230469 139.996094 20.011719 143.023438 19.53125 C 146.027344 19.054688 148.988281 19.332031 152.3125 20.351562 " fill-opacity="1" fill-rule="nonzero"/></g><g clip-path="url(#9d4cf64ca0)"><path fill="#13263c" d="M 35.808594 86.402344 C 29.089844 86.789062 23.972656 82.6875 22.808594 76.761719 C 22.171875 73.527344 22.894531 70.769531 25.703125 68.863281 C 28.601562 66.894531 31.667969 67.214844 34.585938 68.769531 C 37.027344 70.0625 37.585938 73.085938 36.0625 75.722656 C 35.546875 76.609375 34.941406 77.441406 34.417969 78.324219 C 32.441406 81.679688 32.609375 83.054688 35.289062 85.808594 C 35.453125 85.976562 35.601562 86.164062 35.808594 86.402344 " fill-opacity="1" fill-rule="nonzero"/></g><path fill="#13263c" d="M 340.269531 92.628906 L 350.121094 92.628906 L 350.113281 93.042969 L 311.886719 93.042969 L 311.847656 92.769531 C 312.851562 92.675781 313.855469 92.582031 314.859375 92.492188 C 315.878906 92.394531 316.898438 92.300781 318.089844 92.191406 C 317.351562 90.308594 316.660156 88.53125 315.960938 86.75 C 310.660156 73.285156 305.371094 59.8125 300.050781 46.351562 C 299.054688 43.828125 299.023438 41.355469 300.015625 38.847656 C 301.5 35.109375 302.980469 31.363281 304.464844 27.625 C 304.554688 27.394531 304.691406 27.1875 304.964844 26.671875 C 306.617188 30.664062 308.203125 34.386719 309.707031 38.144531 C 316.398438 54.839844 323.054688 71.546875 329.765625 88.234375 C 330.253906 89.449219 330.9375 90.632812 331.765625 91.640625 C 332.246094 92.222656 333.199219 92.421875 334.222656 92.9375 C 334.265625 92.011719 334.304688 91.558594 334.304688 91.105469 C 334.304688 76.316406 334.246094 61.523438 334.351562 46.734375 C 334.371094 43.984375 334.660156 41.117188 335.488281 38.515625 C 337.3125 32.785156 341.085938 28.773438 347.125 27.28125 C 348.117188 27.039062 349.164062 27.011719 350.1875 26.894531 C 350.332031 26.875 350.484375 26.917969 350.917969 26.957031 C 350.488281 27.1875 350.320312 27.304688 350.136719 27.371094 C 347.558594 28.316406 346.371094 30.316406 346.253906 32.902344 C 346.0625 37.054688 345.976562 41.210938 345.964844 45.367188 C 345.9375 56.640625 345.953125 67.917969 345.984375 79.191406 C 345.996094 84.429688 344.539062 88.988281 340.09375 92.253906 C 340.152344 92.378906 340.210938 92.503906 340.269531 92.628906 " fill-opacity="1" fill-rule="nonzero"/><path fill="#13263c" d="M 273.617188 26.660156 C 274.390625 28.375 275.085938 29.78125 275.671875 31.230469 C 283.234375 50.011719 290.816406 68.789062 298.296875 87.601562 C 299.433594 90.464844 301.011719 92.507812 304.21875 92.914062 C 304.375 92.933594 304.523438 93.015625 304.960938 93.164062 L 280.605469 93.164062 C 280.59375 93.027344 280.582031 92.890625 280.566406 92.75 C 282.542969 92.589844 284.519531 92.433594 286.710938 92.253906 C 285.695312 89.578125 284.769531 87.058594 283.785156 84.566406 C 278.757812 71.824219 273.746094 59.074219 268.652344 46.359375 C 267.566406 43.636719 267.539062 41.128906 268.785156 38.441406 C 270.292969 35.183594 271.527344 31.796875 272.882812 28.46875 C 273.085938 27.96875 273.289062 27.472656 273.617188 26.660156 " fill-opacity="1" fill-rule="nonzero"/><g clip-path="url(#df6fe66072)"><path fill="#13263c" d="M 241.71875 93.09375 C 246.644531 92.292969 248.488281 88.894531 249.992188 85.105469 C 252.746094 78.1875 255.550781 71.289062 258.359375 64.394531 C 258.835938 63.222656 259.433594 62.097656 260.140625 60.972656 C 259.535156 63.488281 260.554688 65.527344 261.847656 67.453125 C 264.691406 71.683594 265.027344 76.242188 263.199219 80.816406 C 261.972656 83.886719 260.261719 86.800781 258.46875 89.59375 C 256.789062 92.21875 254.035156 93.433594 251.011719 93.914062 C 248.003906 94.394531 245.042969 94.113281 241.71875 93.09375 " fill-opacity="1" fill-rule="nonzero"/></g><g clip-path="url(#110cd55e5c)"><path fill="#13263c" d="M 358.226562 27.046875 C 364.945312 26.65625 370.058594 30.761719 371.222656 36.6875 C 371.859375 39.917969 371.140625 42.675781 368.328125 44.585938 C 365.433594 46.550781 362.367188 46.230469 359.445312 44.679688 C 357.003906 43.382812 356.445312 40.363281 357.972656 37.722656 C 358.484375 36.835938 359.09375 36.003906 359.613281 35.121094 C 361.589844 31.769531 361.421875 30.390625 358.746094 27.640625 C 358.578125 27.46875 358.429688 27.28125 358.226562 27.046875 " fill-opacity="1" fill-rule="nonzero"/></g><path fill="#13263c" d="M 493.074219 20.816406 L 483.222656 20.816406 L 483.230469 20.402344 L 521.457031 20.402344 L 521.496094 20.675781 C 520.492188 20.769531 519.488281 20.863281 518.484375 20.957031 C 517.464844 21.050781 516.445312 21.144531 515.257812 21.253906 C 515.992188 23.136719 516.683594 24.917969 517.382812 26.695312 C 522.683594 40.164062 527.972656 53.636719 533.292969 67.09375 C 534.289062 69.617188 534.320312 72.089844 533.328125 74.597656 C 531.84375 78.339844 530.363281 82.082031 528.878906 85.824219 C 528.789062 86.050781 528.652344 86.261719 528.378906 86.777344 C 526.726562 82.785156 525.140625 79.058594 523.636719 75.300781 C 516.945312 58.605469 510.289062 41.898438 503.578125 25.210938 C 503.089844 24 502.40625 22.8125 501.578125 21.808594 C 501.097656 21.222656 500.144531 21.023438 499.121094 20.507812 C 499.078125 21.4375 499.039062 21.890625 499.039062 22.34375 C 499.039062 37.132812 499.097656 51.921875 498.992188 66.710938 C 498.972656 69.460938 498.683594 72.328125 497.855469 74.929688 C 496.035156 80.660156 492.257812 84.675781 486.21875 86.164062 C 485.226562 86.410156 484.179688 86.4375 483.15625 86.554688 C 483.011719 86.570312 482.859375 86.53125 482.425781 86.492188 C 482.859375 86.261719 483.023438 86.144531 483.207031 86.078125 C 485.785156 85.132812 486.972656 83.128906 487.09375 80.542969 C 487.28125 76.390625 487.367188 72.234375 487.378906 68.078125 C 487.40625 56.804688 487.390625 45.53125 487.359375 34.257812 C 487.347656 29.015625 488.804688 24.457031 493.25 21.191406 C 493.191406 21.066406 493.132812 20.941406 493.074219 20.816406 " fill-opacity="1" fill-rule="nonzero"/><path fill="#13263c" d="M 559.726562 86.785156 C 558.953125 85.070312 558.257812 83.664062 557.671875 82.214844 C 550.109375 63.433594 542.53125 44.660156 535.046875 25.847656 C 533.910156 22.980469 532.332031 20.9375 529.125 20.53125 C 528.96875 20.511719 528.820312 20.429688 528.382812 20.28125 L 552.738281 20.28125 C 552.75 20.417969 552.765625 20.558594 552.777344 20.695312 C 550.800781 20.855469 548.824219 21.015625 546.632812 21.191406 C 547.648438 23.867188 548.578125 26.386719 549.558594 28.882812 C 554.585938 41.625 559.597656 54.371094 564.691406 67.089844 C 565.777344 69.808594 565.804688 72.316406 564.558594 75.003906 C 563.050781 78.261719 561.816406 81.648438 560.460938 84.980469 C 560.257812 85.476562 560.054688 85.972656 559.726562 86.785156 " fill-opacity="1" fill-rule="nonzero"/><g clip-path="url(#f9c277fe55)"><path fill="#13263c" d="M 591.625 20.351562 C 586.699219 21.15625 584.855469 24.554688 583.351562 28.34375 C 580.597656 35.261719 577.792969 42.15625 574.984375 49.054688 C 574.507812 50.226562 573.910156 51.347656 573.203125 52.472656 C 573.808594 49.960938 572.789062 47.917969 571.496094 45.992188 C 568.652344 41.765625 568.316406 37.203125 570.144531 32.628906 C 571.371094 29.558594 573.082031 26.644531 574.875 23.851562 C 576.554688 21.230469 579.308594 20.011719 582.332031 19.53125 C 585.339844 19.054688 588.300781 19.332031 591.625 20.351562 " fill-opacity="1" fill-rule="nonzero"/></g><g clip-path="url(#74946f743f)"><path fill="#13263c" d="M 475.117188 86.402344 C 468.398438 86.789062 463.285156 82.6875 462.121094 76.761719 C 461.484375 73.527344 462.203125 70.769531 465.015625 68.863281 C 467.910156 66.894531 470.976562 67.214844 473.898438 68.769531 C 476.339844 70.0625 476.898438 73.085938 475.371094 75.722656 C 474.859375 76.609375 474.25 77.441406 473.730469 78.324219 C 471.753906 81.679688 471.921875 83.054688 474.597656 85.808594 C 474.765625 85.976562 474.914062 86.164062 475.117188 86.402344 " fill-opacity="1" fill-rule="nonzero"/></g><path fill="#13263c" d="M 779.5625 92.628906 L 789.414062 92.628906 L 789.40625 93.042969 L 751.183594 93.042969 L 751.140625 92.769531 C 752.144531 92.675781 753.148438 92.582031 754.152344 92.492188 C 755.171875 92.394531 756.195312 92.300781 757.382812 92.191406 C 756.644531 90.308594 755.953125 88.53125 755.253906 86.75 C 749.957031 73.285156 744.667969 59.8125 739.34375 46.351562 C 738.347656 43.828125 738.316406 41.355469 739.3125 38.847656 C 740.792969 35.109375 742.273438 31.363281 743.757812 27.625 C 743.847656 27.394531 743.984375 27.1875 744.257812 26.671875 C 745.910156 30.664062 747.496094 34.386719 749 38.144531 C 755.691406 54.839844 762.347656 71.546875 769.058594 88.234375 C 769.546875 89.449219 770.230469 90.632812 771.058594 91.640625 C 771.539062 92.222656 772.492188 92.421875 773.515625 92.9375 C 773.558594 92.011719 773.597656 91.558594 773.597656 91.105469 C 773.597656 76.316406 773.539062 61.523438 773.644531 46.734375 C 773.664062 43.984375 773.953125 41.117188 774.78125 38.515625 C 776.605469 32.785156 780.378906 28.773438 786.421875 27.28125 C 787.414062 27.039062 788.457031 27.011719 789.480469 26.894531 C 789.625 26.875 789.777344 26.917969 790.210938 26.957031 C 789.78125 27.1875 789.613281 27.304688 789.429688 27.371094 C 786.851562 28.316406 785.664062 30.316406 785.546875 32.902344 C 785.355469 37.054688 785.269531 41.210938 785.261719 45.367188 C 785.230469 56.640625 785.246094 67.917969 785.277344 79.191406 C 785.292969 84.429688 783.832031 88.988281 779.386719 92.253906 C 779.445312 92.378906 779.503906 92.503906 779.5625 92.628906 " fill-opacity="1" fill-rule="nonzero"/><path fill="#13263c" d="M 712.910156 26.660156 C 713.683594 28.375 714.382812 29.78125 714.964844 31.230469 C 722.527344 50.011719 730.109375 68.789062 737.589844 87.601562 C 738.730469 90.464844 740.304688 92.507812 743.511719 92.914062 C 743.667969 92.933594 743.820312 93.015625 744.257812 93.164062 L 719.898438 93.164062 C 719.886719 93.027344 719.875 92.890625 719.859375 92.75 C 721.835938 92.589844 723.8125 92.433594 726.007812 92.253906 C 724.988281 89.578125 724.0625 87.058594 723.078125 84.566406 C 718.050781 71.824219 713.039062 59.074219 707.949219 46.359375 C 706.859375 43.636719 706.835938 41.128906 708.078125 38.441406 C 709.585938 35.183594 710.824219 31.796875 712.175781 28.46875 C 712.378906 27.96875 712.582031 27.472656 712.910156 26.660156 " fill-opacity="1" fill-rule="nonzero"/><g clip-path="url(#fd58a42d81)"><path fill="#13263c" d="M 681.015625 93.09375 C 685.9375 92.292969 687.78125 88.894531 689.289062 85.105469 C 692.039062 78.1875 694.84375 71.289062 697.652344 64.394531 C 698.128906 63.222656 698.726562 62.097656 699.433594 60.972656 C 698.828125 63.488281 699.847656 65.527344 701.140625 67.453125 C 703.984375 71.683594 704.320312 76.242188 702.492188 80.816406 C 701.265625 83.886719 699.554688 86.800781 697.765625 89.59375 C 696.082031 92.21875 693.332031 93.433594 690.304688 93.914062 C 687.296875 94.394531 684.335938 94.113281 681.015625 93.09375 " fill-opacity="1" fill-rule="nonzero"/></g><g clip-path="url(#dd3b68f4df)"><path fill="#13263c" d="M 797.519531 27.046875 C 804.238281 26.65625 809.351562 30.761719 810.519531 36.6875 C 811.152344 39.917969 810.433594 42.675781 807.625 44.585938 C 804.726562 46.550781 801.660156 46.230469 798.738281 44.679688 C 796.296875 43.382812 795.742188 40.363281 797.265625 37.722656 C 797.777344 36.835938 798.386719 36.003906 798.90625 35.121094 C 800.882812 31.769531 800.714844 30.390625 798.039062 27.640625 C 797.871094 27.46875 797.722656 27.28125 797.519531 27.046875 " fill-opacity="1" fill-rule="nonzero"/></g><path fill="#13263c" d="M 932.386719 20.816406 L 922.535156 20.816406 L 922.542969 20.402344 L 960.765625 20.402344 L 960.808594 20.675781 C 959.804688 20.769531 958.800781 20.863281 957.796875 20.957031 C 956.773438 21.050781 955.753906 21.144531 954.566406 21.253906 C 955.300781 23.136719 955.996094 24.917969 956.695312 26.695312 C 961.992188 40.164062 967.28125 53.636719 972.605469 67.09375 C 973.601562 69.617188 973.632812 72.089844 972.636719 74.597656 C 971.152344 78.339844 969.675781 82.082031 968.191406 85.824219 C 968.101562 86.050781 967.964844 86.261719 967.691406 86.777344 C 966.039062 82.785156 964.453125 79.058594 962.949219 75.300781 C 956.257812 58.605469 949.597656 41.898438 942.890625 25.210938 C 942.402344 24 941.71875 22.8125 940.890625 21.808594 C 940.40625 21.222656 939.457031 21.023438 938.429688 20.507812 C 938.390625 21.4375 938.351562 21.890625 938.351562 22.34375 C 938.351562 37.132812 938.410156 51.921875 938.304688 66.710938 C 938.285156 69.460938 937.992188 72.328125 937.164062 74.929688 C 935.34375 80.660156 931.570312 84.675781 925.527344 86.164062 C 924.535156 86.410156 923.488281 86.4375 922.46875 86.554688 C 922.320312 86.570312 922.171875 86.53125 921.738281 86.492188 C 922.167969 86.261719 922.335938 86.144531 922.519531 86.078125 C 925.097656 85.132812 926.285156 83.128906 926.402344 80.542969 C 926.59375 76.390625 926.675781 72.234375 926.6875 68.078125 C 926.71875 56.804688 926.703125 45.53125 926.671875 34.257812 C 926.65625 29.015625 928.113281 24.457031 932.5625 21.191406 C 932.503906 21.066406 932.445312 20.941406 932.386719 20.816406 " fill-opacity="1" fill-rule="nonzero"/><path fill="#13263c" d="M 999.039062 86.785156 C 998.261719 85.070312 997.566406 83.664062 996.984375 82.214844 C 989.421875 63.433594 981.839844 44.660156 974.359375 25.847656 C 973.21875 22.980469 971.644531 20.9375 968.4375 20.53125 C 968.28125 20.511719 968.128906 20.429688 967.691406 20.28125 L 992.050781 20.28125 C 992.0625 20.417969 992.074219 20.558594 992.085938 20.695312 C 990.113281 20.855469 988.136719 21.015625 985.941406 21.191406 C 986.960938 23.867188 987.886719 26.386719 988.871094 28.882812 C 993.898438 41.625 998.90625 54.371094 1004 67.089844 C 1005.089844 69.808594 1005.113281 72.316406 1003.871094 75.003906 C 1002.359375 78.261719 1001.125 81.648438 999.773438 84.980469 C 999.570312 85.476562 999.367188 85.972656 999.039062 86.785156 " fill-opacity="1" fill-rule="nonzero"/><g clip-path="url(#391b36d64e)"><path fill="#13263c" d="M 1030.933594 20.351562 C 1026.011719 21.15625 1024.167969 24.554688 1022.660156 28.34375 C 1019.910156 35.261719 1017.101562 42.15625 1014.296875 49.054688 C 1013.820312 50.226562 1013.222656 51.347656 1012.511719 52.472656 C 1013.117188 49.960938 1012.101562 47.917969 1010.804688 45.992188 C 1007.964844 41.765625 1007.628906 37.203125 1009.457031 32.628906 C 1010.679688 29.558594 1012.394531 26.644531 1014.183594 23.851562 C 1015.867188 21.230469 1018.617188 20.011719 1021.644531 19.53125 C 1024.648438 19.054688 1027.609375 19.332031 1030.933594 20.351562 " fill-opacity="1" fill-rule="nonzero"/></g><g clip-path="url(#2133a91fac)"><path fill="#13263c" d="M 914.429688 86.402344 C 907.710938 86.789062 902.597656 82.6875 901.429688 76.761719 C 900.792969 73.527344 901.515625 70.769531 904.324219 68.863281 C 907.222656 66.894531 910.289062 67.214844 913.207031 68.769531 C 915.652344 70.0625 916.207031 73.085938 914.683594 75.722656 C 914.171875 76.609375 913.5625 77.441406 913.039062 78.324219 C 911.0625 81.679688 911.230469 83.054688 913.910156 85.808594 C 914.074219 85.976562 914.222656 86.164062 914.429688 86.402344 " fill-opacity="1" fill-rule="nonzero"/></g><g clip-path="url(#612e273c70)"><path fill="#13263c" d="M 10.585938 184.941406 C 9.808594 183.226562 9.113281 181.824219 8.53125 180.375 C 0.96875 161.59375 -6.613281 142.816406 -14.09375 124.003906 C -15.234375 121.140625 -16.808594 119.097656 -20.015625 118.691406 C -20.175781 118.667969 -20.324219 118.589844 -20.761719 118.441406 L 3.597656 118.441406 C 3.609375 118.578125 3.621094 118.714844 3.632812 118.855469 C 1.660156 119.015625 -0.316406 119.171875 -2.511719 119.347656 C -1.492188 122.027344 -0.566406 124.542969 0.417969 127.039062 C 5.445312 139.78125 10.453125 152.53125 15.546875 165.246094 C 16.636719 167.96875 16.660156 170.472656 15.417969 173.164062 C 13.90625 176.421875 12.671875 179.808594 11.316406 183.136719 C 11.117188 183.636719 10.914062 184.132812 10.585938 184.941406 " fill-opacity="1" fill-rule="nonzero"/></g><g clip-path="url(#ccc4ed3700)"><path fill="#13263c" d="M 42.480469 118.511719 C 37.558594 119.3125 35.714844 122.710938 34.207031 126.5 C 31.457031 133.417969 28.648438 140.316406 25.84375 147.210938 C 25.367188 148.382812 24.765625 149.507812 24.058594 150.628906 C 24.664062 148.117188 23.648438 146.074219 22.351562 144.148438 C 19.511719 139.921875 19.175781 135.363281 21 130.789062 C 22.226562 127.71875 23.941406 124.804688 25.730469 122.011719 C 27.414062 119.386719 30.164062 118.171875 33.191406 117.691406 C 36.195312 117.210938 39.15625 117.492188 42.480469 118.511719 " fill-opacity="1" fill-rule="nonzero"/></g><path fill="#13263c" d="M 230.4375 190.789062 L 240.289062 190.789062 L 240.28125 191.203125 L 202.054688 191.203125 L 202.015625 190.925781 C 203.019531 190.835938 204.023438 190.742188 205.027344 190.648438 C 206.046875 190.554688 207.066406 190.460938 208.257812 190.351562 C 207.519531 188.46875 206.828125 186.6875 206.128906 184.910156 C 200.828125 171.441406 195.539062 157.96875 190.21875 144.511719 C 189.222656 141.988281 189.191406 139.511719 190.183594 137.007812 C 191.667969 133.265625 193.148438 129.519531 194.632812 125.78125 C 194.722656 125.554688 194.859375 125.34375 195.132812 124.828125 C 196.785156 128.820312 198.371094 132.546875 199.875 136.304688 C 206.566406 153 213.222656 169.707031 219.933594 186.394531 C 220.421875 187.605469 221.105469 188.792969 221.933594 189.796875 C 222.414062 190.382812 223.367188 190.582031 224.390625 191.097656 C 224.433594 190.167969 224.472656 189.714844 224.472656 189.261719 C 224.472656 174.472656 224.414062 159.683594 224.519531 144.894531 C 224.539062 142.144531 224.828125 139.277344 225.65625 136.675781 C 227.480469 130.945312 231.253906 126.929688 237.292969 125.441406 C 238.285156 125.195312 239.332031 125.167969 240.355469 125.050781 C 240.5 125.035156 240.652344 125.074219 241.085938 125.113281 C 240.65625 125.34375 240.488281 125.460938 240.304688 125.527344 C 237.726562 126.472656 236.539062 128.476562 236.421875 131.0625 C 236.230469 135.210938 236.144531 139.371094 236.132812 143.527344 C 236.105469 154.800781 236.121094 166.074219 236.152344 177.347656 C 236.164062 182.585938 234.707031 187.148438 230.261719 190.410156 C 230.320312 190.535156 230.378906 190.664062 230.4375 190.789062 " fill-opacity="1" fill-rule="nonzero"/><path fill="#13263c" d="M 163.785156 124.820312 C 164.558594 126.535156 165.253906 127.941406 165.839844 129.390625 C 173.402344 148.171875 180.984375 166.945312 188.464844 185.757812 C 189.601562 188.625 191.179688 190.667969 194.386719 191.074219 C 194.542969 191.09375 194.695312 191.175781 195.128906 191.324219 L 170.773438 191.324219 C 170.761719 191.183594 170.75 191.046875 170.734375 190.90625 C 172.710938 190.75 174.6875 190.589844 176.878906 190.414062 C 175.863281 187.738281 174.9375 185.21875 173.953125 182.722656 C 168.925781 169.980469 163.914062 157.230469 158.820312 144.515625 C 157.734375 141.796875 157.707031 139.289062 158.953125 136.601562 C 160.460938 133.339844 161.695312 129.957031 163.050781 126.625 C 163.253906 126.128906 163.457031 125.628906 163.785156 124.820312 " fill-opacity="1" fill-rule="nonzero"/><g clip-path="url(#fdecdeb0c7)"><path fill="#13263c" d="M 131.886719 191.253906 C 136.8125 190.449219 138.65625 187.050781 140.164062 183.261719 C 142.914062 176.34375 145.71875 169.449219 148.527344 162.550781 C 149.003906 161.378906 149.601562 160.257812 150.308594 159.132812 C 149.703125 161.644531 150.722656 163.6875 152.015625 165.613281 C 154.859375 169.839844 155.195312 174.402344 153.367188 178.976562 C 152.140625 182.046875 150.429688 184.960938 148.636719 187.753906 C 146.957031 190.375 144.203125 191.589844 141.179688 192.074219 C 138.171875 192.550781 135.210938 192.273438 131.886719 191.253906 " fill-opacity="1" fill-rule="nonzero"/></g><g clip-path="url(#ca61b6cc2f)"><path fill="#13263c" d="M 248.394531 125.203125 C 255.113281 124.816406 260.226562 128.917969 261.390625 134.84375 C 262.027344 138.078125 261.308594 140.835938 258.496094 142.742188 C 255.601562 144.707031 252.535156 144.390625 249.613281 142.835938 C 247.171875 141.539062 246.613281 138.519531 248.140625 135.882812 C 248.652344 134.996094 249.261719 134.160156 249.78125 133.277344 C 251.757812 129.925781 251.589844 128.550781 248.914062 125.796875 C 248.746094 125.625 248.597656 125.4375 248.394531 125.203125 " fill-opacity="1" fill-rule="nonzero"/></g><path fill="#13263c" d="M 383.242188 118.976562 L 373.390625 118.976562 L 373.398438 118.5625 L 411.625 118.5625 L 411.667969 118.835938 C 410.660156 118.929688 409.65625 119.023438 408.652344 119.113281 C 407.632812 119.207031 406.613281 119.300781 405.425781 119.410156 C 406.160156 121.292969 406.851562 123.074219 407.550781 124.851562 C 412.851562 138.320312 418.140625 151.792969 423.460938 165.253906 C 424.457031 167.777344 424.488281 170.25 423.496094 172.757812 C 422.011719 176.496094 420.53125 180.242188 419.046875 183.980469 C 418.957031 184.207031 418.820312 184.417969 418.546875 184.933594 C 416.894531 180.941406 415.308594 177.214844 413.804688 173.457031 C 407.113281 156.765625 400.457031 140.058594 393.746094 123.371094 C 393.257812 122.15625 392.574219 120.972656 391.746094 119.964844 C 391.265625 119.378906 390.3125 119.183594 389.289062 118.667969 C 389.246094 119.59375 389.210938 120.046875 389.210938 120.5 C 389.207031 135.289062 389.265625 150.082031 389.160156 164.871094 C 389.140625 167.621094 388.851562 170.484375 388.023438 173.085938 C 386.203125 178.816406 382.425781 182.832031 376.386719 184.324219 C 375.394531 184.566406 374.347656 184.59375 373.324219 184.710938 C 373.179688 184.730469 373.027344 184.6875 372.59375 184.648438 C 373.027344 184.417969 373.191406 184.300781 373.375 184.234375 C 375.953125 183.289062 377.140625 181.285156 377.261719 178.703125 C 377.449219 174.550781 377.535156 170.390625 377.546875 166.238281 C 377.574219 154.960938 377.558594 143.6875 377.527344 132.414062 C 377.515625 127.175781 378.972656 122.617188 383.417969 119.351562 C 383.359375 119.226562 383.300781 119.101562 383.242188 118.976562 " fill-opacity="1" fill-rule="nonzero"/><path fill="#13263c" d="M 449.894531 184.941406 C 449.121094 183.226562 448.425781 181.824219 447.839844 180.375 C 440.277344 161.59375 432.699219 142.816406 425.214844 124.003906 C 424.078125 121.140625 422.5 119.097656 419.292969 118.691406 C 419.136719 118.667969 418.988281 118.589844 418.550781 118.441406 L 442.90625 118.441406 C 442.917969 118.578125 442.933594 118.714844 442.945312 118.855469 C 440.96875 119.015625 438.992188 119.171875 436.800781 119.347656 C 437.816406 122.027344 438.746094 124.542969 439.726562 127.039062 C 444.753906 139.78125 449.765625 152.53125 454.859375 165.246094 C 455.949219 167.96875 455.972656 170.472656 454.726562 173.164062 C 453.21875 176.421875 451.984375 179.808594 450.628906 183.136719 C 450.425781 183.636719 450.226562 184.132812 449.894531 184.941406 " fill-opacity="1" fill-rule="nonzero"/><g clip-path="url(#5912b37de4)"><path fill="#13263c" d="M 481.792969 118.511719 C 476.867188 119.3125 475.023438 122.710938 473.519531 126.5 C 470.765625 133.417969 467.960938 140.316406 465.152344 147.210938 C 464.675781 148.382812 464.078125 149.507812 463.371094 150.628906 C 463.976562 148.117188 462.957031 146.074219 461.664062 144.148438 C 458.820312 139.921875 458.484375 135.363281 460.3125 130.789062 C 461.539062 127.71875 463.25 124.804688 465.042969 122.011719 C 466.722656 119.386719 469.476562 118.171875 472.503906 117.691406 C 475.507812 117.210938 478.46875 117.492188 481.792969 118.511719 " fill-opacity="1" fill-rule="nonzero"/></g><g clip-path="url(#3e3f140f2e)"><path fill="#13263c" d="M 365.285156 184.558594 C 358.566406 184.949219 353.453125 180.84375 352.289062 174.917969 C 351.652344 171.6875 352.371094 168.929688 355.183594 167.019531 C 358.078125 165.054688 361.144531 165.375 364.066406 166.925781 C 366.507812 168.222656 367.066406 171.242188 365.539062 173.878906 C 365.027344 174.769531 364.417969 175.601562 363.898438 176.484375 C 361.921875 179.835938 362.089844 181.214844 364.765625 183.964844 C 364.933594 184.136719 365.082031 184.324219 365.285156 184.558594 " fill-opacity="1" fill-rule="nonzero"/></g><path fill="#13263c" d="M 669.730469 190.789062 L 679.582031 190.789062 L 679.574219 191.203125 L 641.351562 191.203125 L 641.308594 190.925781 C 642.3125 190.835938 643.316406 190.742188 644.320312 190.648438 C 645.339844 190.554688 646.363281 190.460938 647.550781 190.351562 C 646.8125 188.46875 646.121094 186.6875 645.421875 184.910156 C 640.125 171.441406 634.835938 157.96875 629.511719 144.511719 C 628.515625 141.988281 628.484375 139.511719 629.480469 137.007812 C 630.960938 133.265625 632.441406 129.519531 633.925781 125.78125 C 634.015625 125.554688 634.152344 125.34375 634.425781 124.828125 C 636.078125 128.820312 637.664062 132.546875 639.167969 136.304688 C 645.859375 153 652.515625 169.707031 659.226562 186.394531 C 659.714844 187.605469 660.398438 188.792969 661.226562 189.796875 C 661.710938 190.382812 662.660156 190.582031 663.683594 191.097656 C 663.726562 190.167969 663.765625 189.714844 663.765625 189.261719 C 663.765625 174.472656 663.707031 159.683594 663.8125 144.894531 C 663.832031 142.144531 664.121094 139.277344 664.949219 136.675781 C 666.773438 130.945312 670.546875 126.929688 676.589844 125.441406 C 677.582031 125.195312 678.625 125.167969 679.648438 125.050781 C 679.792969 125.035156 679.945312 125.074219 680.378906 125.113281 C 679.949219 125.34375 679.78125 125.460938 679.597656 125.527344 C 677.019531 126.472656 675.832031 128.476562 675.714844 131.0625 C 675.523438 135.210938 675.4375 139.371094 675.429688 143.527344 C 675.398438 154.800781 675.414062 166.074219 675.445312 177.347656 C 675.460938 182.585938 674 187.148438 669.554688 190.410156 C 669.613281 190.535156 669.671875 190.664062 669.730469 190.789062 " fill-opacity="1" fill-rule="nonzero"/><path fill="#13263c" d="M 603.078125 124.820312 C 603.851562 126.535156 604.550781 127.941406 605.132812 129.390625 C 612.695312 148.171875 620.277344 166.945312 627.757812 185.757812 C 628.898438 188.625 630.472656 190.667969 633.679688 191.074219 C 633.835938 191.09375 633.988281 191.175781 634.425781 191.324219 L 610.066406 191.324219 C 610.054688 191.183594 610.042969 191.046875 610.027344 190.90625 C 612.003906 190.75 613.980469 190.589844 616.175781 190.414062 C 615.15625 187.738281 614.230469 185.21875 613.246094 182.722656 C 608.21875 169.980469 603.207031 157.230469 598.117188 144.515625 C 597.027344 141.796875 597.003906 139.289062 598.246094 136.601562 C 599.757812 133.339844 600.992188 129.957031 602.34375 126.625 C 602.546875 126.128906 602.75 125.628906 603.078125 124.820312 " fill-opacity="1" fill-rule="nonzero"/><g clip-path="url(#2d9a93f8f8)"><path fill="#13263c" d="M 571.183594 191.253906 C 576.105469 190.449219 577.949219 187.050781 579.457031 183.261719 C 582.207031 176.34375 585.011719 169.449219 587.820312 162.550781 C 588.296875 161.378906 588.894531 160.257812 589.605469 159.132812 C 588.996094 161.644531 590.015625 163.6875 591.308594 165.613281 C 594.152344 169.839844 594.488281 174.402344 592.660156 178.976562 C 591.433594 182.046875 589.722656 184.960938 587.933594 187.753906 C 586.25 190.375 583.5 191.589844 580.472656 192.074219 C 577.464844 192.550781 574.503906 192.273438 571.183594 191.253906 " fill-opacity="1" fill-rule="nonzero"/></g><g clip-path="url(#31adedc912)"><path fill="#13263c" d="M 687.6875 125.203125 C 694.40625 124.816406 699.519531 128.917969 700.6875 134.84375 C 701.320312 138.078125 700.601562 140.835938 697.792969 142.742188 C 694.894531 144.707031 691.828125 144.390625 688.90625 142.835938 C 686.464844 141.539062 685.910156 138.519531 687.433594 135.882812 C 687.945312 134.996094 688.554688 134.160156 689.074219 133.277344 C 691.050781 129.925781 690.882812 128.550781 688.207031 125.796875 C 688.039062 125.625 687.890625 125.4375 687.6875 125.203125 " fill-opacity="1" fill-rule="nonzero"/></g><path fill="#13263c" d="M 822.554688 118.976562 L 812.703125 118.976562 L 812.710938 118.5625 L 850.933594 118.5625 L 850.976562 118.835938 C 849.972656 118.929688 848.96875 119.023438 847.964844 119.113281 C 846.941406 119.207031 845.921875 119.300781 844.734375 119.410156 C 845.46875 121.292969 846.164062 123.074219 846.863281 124.851562 C 852.160156 138.320312 857.449219 151.792969 862.773438 165.253906 C 863.769531 167.777344 863.800781 170.25 862.804688 172.757812 C 861.320312 176.496094 859.84375 180.242188 858.359375 183.980469 C 858.269531 184.207031 858.132812 184.417969 857.859375 184.933594 C 856.207031 180.941406 854.621094 177.214844 853.117188 173.457031 C 846.425781 156.765625 839.765625 140.058594 833.058594 123.371094 C 832.570312 122.15625 831.886719 120.972656 831.058594 119.964844 C 830.574219 119.378906 829.625 119.183594 828.597656 118.667969 C 828.558594 119.59375 828.519531 120.046875 828.519531 120.5 C 828.519531 135.289062 828.578125 150.082031 828.472656 164.871094 C 828.453125 167.621094 828.160156 170.484375 827.332031 173.085938 C 825.511719 178.816406 821.738281 182.832031 815.695312 184.324219 C 814.703125 184.566406 813.65625 184.59375 812.636719 184.710938 C 812.488281 184.730469 812.339844 184.6875 811.90625 184.648438 C 812.335938 184.417969 812.503906 184.300781 812.6875 184.234375 C 815.265625 183.289062 816.453125 181.285156 816.570312 178.703125 C 816.761719 174.550781 816.84375 170.390625 816.855469 166.238281 C 816.886719 154.960938 816.871094 143.6875 816.839844 132.414062 C 816.824219 127.175781 818.28125 122.617188 822.730469 119.351562 C 822.671875 119.226562 822.613281 119.101562 822.554688 118.976562 " fill-opacity="1" fill-rule="nonzero"/><path fill="#13263c" d="M 889.207031 184.941406 C 888.429688 183.226562 887.734375 181.824219 887.152344 180.375 C 879.589844 161.59375 872.007812 142.816406 864.527344 124.003906 C 863.386719 121.140625 861.8125 119.097656 858.605469 118.691406 C 858.449219 118.667969 858.296875 118.589844 857.859375 118.441406 L 882.21875 118.441406 C 882.230469 118.578125 882.242188 118.714844 882.253906 118.855469 C 880.28125 119.015625 878.304688 119.171875 876.109375 119.347656 C 877.128906 122.027344 878.054688 124.542969 879.039062 127.039062 C 884.066406 139.78125 889.074219 152.53125 894.167969 165.246094 C 895.257812 167.96875 895.28125 170.472656 894.039062 173.164062 C 892.527344 176.421875 891.292969 179.808594 889.941406 183.136719 C 889.738281 183.636719 889.535156 184.132812 889.207031 184.941406 " fill-opacity="1" fill-rule="nonzero"/><g clip-path="url(#bbfa51472c)"><path fill="#13263c" d="M 921.101562 118.511719 C 916.179688 119.3125 914.335938 122.710938 912.828125 126.5 C 910.078125 133.417969 907.269531 140.316406 904.464844 147.210938 C 903.988281 148.382812 903.390625 149.507812 902.679688 150.628906 C 903.285156 148.117188 902.269531 146.074219 900.972656 144.148438 C 898.132812 139.921875 897.796875 135.363281 899.625 130.789062 C 900.847656 127.71875 902.5625 124.804688 904.351562 122.011719 C 906.035156 119.386719 908.785156 118.171875 911.8125 117.691406 C 914.816406 117.210938 917.777344 117.492188 921.101562 118.511719 " fill-opacity="1" fill-rule="nonzero"/></g><g clip-path="url(#889f8a90b8)"><path fill="#13263c" d="M 804.597656 184.558594 C 797.878906 184.949219 792.765625 180.84375 791.597656 174.917969 C 790.960938 171.6875 791.683594 168.929688 794.492188 167.019531 C 797.390625 165.054688 800.457031 165.375 803.375 166.925781 C 805.820312 168.222656 806.375 171.242188 804.851562 173.878906 C 804.339844 174.769531 803.730469 175.601562 803.207031 176.484375 C 801.230469 179.835938 801.398438 181.214844 804.078125 183.964844 C 804.242188 184.136719 804.390625 184.324219 804.597656 184.558594 " fill-opacity="1" fill-rule="nonzero"/></g><g clip-path="url(#ada0c30b22)"><path fill="#13263c" d="M 1042.40625 124.820312 C 1043.179688 126.535156 1043.878906 127.941406 1044.460938 129.390625 C 1052.023438 148.171875 1059.605469 166.945312 1067.085938 185.757812 C 1068.226562 188.625 1069.800781 190.667969 1073.007812 191.074219 C 1073.164062 191.09375 1073.316406 191.175781 1073.753906 191.324219 L 1049.394531 191.324219 C 1049.382812 191.183594 1049.371094 191.046875 1049.355469 190.90625 C 1051.332031 190.75 1053.308594 190.589844 1055.503906 190.414062 C 1054.484375 187.738281 1053.558594 185.21875 1052.574219 182.722656 C 1047.546875 169.980469 1042.535156 157.230469 1037.445312 144.515625 C 1036.355469 141.796875 1036.332031 139.289062 1037.574219 136.601562 C 1039.082031 133.339844 1040.320312 129.957031 1041.671875 126.625 C 1041.875 126.128906 1042.078125 125.628906 1042.40625 124.820312 " fill-opacity="1" fill-rule="nonzero"/></g><g clip-path="url(#f35e80e2ea)"><path fill="#13263c" d="M 1010.511719 191.253906 C 1015.433594 190.449219 1017.277344 187.050781 1018.785156 183.261719 C 1021.535156 176.34375 1024.339844 169.449219 1027.148438 162.550781 C 1027.625 161.378906 1028.222656 160.257812 1028.929688 159.132812 C 1028.324219 161.644531 1029.34375 163.6875 1030.636719 165.613281 C 1033.480469 169.839844 1033.816406 174.402344 1031.988281 178.976562 C 1030.761719 182.046875 1029.050781 184.960938 1027.261719 187.753906 C 1025.578125 190.375 1022.828125 191.589844 1019.800781 192.074219 C 1016.792969 192.550781 1013.832031 192.273438 1010.511719 191.253906 " fill-opacity="1" fill-rule="nonzero"/></g></svg>